<svg width="101" height="101" viewBox="0 0 101 101" fill="none" xmlns="http://www.w3.org/2000/svg">
<path d="M101 1H1V101" stroke="#2b2b2b"/>
<rect x="61.25" y="55.25" width="0.5" height="0.5" stroke="#2b2b2b" stroke-width="0.5"/>
<rect x="83.25" y="55.25" width="0.5" height="0.5" stroke="#2b2b2b" stroke-width="0.5"/>
<rect x="40.25" y="55.25" width="0.5" height="0.5" stroke="#2b2b2b" stroke-width="0.5"/>
<rect x="18.25" y="55.25" width="0.5" height="0.5" stroke="#2b2b2b" stroke-width="0.5"/>
<rect x="61.25" y="82.25" width="0.5" height="0.5" stroke="#2b2b2b" stroke-width="0.5"/>
<rect x="83.25" y="82.25" width="0.5" height="0.5" stroke="#2b2b2b" stroke-width="0.5"/>
<rect x="40.25" y="82.25" width="0.5" height="0.5" stroke="#2b2b2b" stroke-width="0.5"/>
<rect x="18.25" y="82.25" width="0.5" height="0.5" stroke="#2b2b2b" stroke-width="0.5"/>
<rect x="61.25" y="28.25" width="0.5" height="0.5" stroke="#2b2b2b" stroke-width="0.5"/>
<rect x="83.25" y="28.25" width="0.5" height="0.5" stroke="#2b2b2b" stroke-width="0.5"/>
<rect x="40.25" y="28.25" width="0.5" height="0.5" stroke="#2b2b2b" stroke-width="0.5"/>
<rect x="18.25" y="28.25" width="0.5" height="0.5" stroke="#2b2b2b" stroke-width="0.5"/>
<rect x="61.25" y="91.25" width="0.5" height="0.5" stroke="#2b2b2b" stroke-width="0.5"/>
<rect x="83.25" y="91.25" width="0.5" height="0.5" stroke="#2b2b2b" stroke-width="0.5"/>
<rect x="40.25" y="91.25" width="0.5" height="0.5" stroke="#2b2b2b" stroke-width="0.5"/>
<rect x="18.25" y="91.25" width="0.5" height="0.5" stroke="#2b2b2b" stroke-width="0.5"/>
<rect x="61.25" y="37.25" width="0.5" height="0.5" stroke="#2b2b2b" stroke-width="0.5"/>
<rect x="83.25" y="37.25" width="0.5" height="0.5" stroke="#2b2b2b" stroke-width="0.5"/>
<rect x="40.25" y="37.25" width="0.5" height="0.5" stroke="#2b2b2b" stroke-width="0.5"/>
<rect x="18.25" y="37.25" width="0.5" height="0.5" stroke="#2b2b2b" stroke-width="0.5"/>
<rect x="61.25" y="46.25" width="0.5" height="0.5" stroke="#2b2b2b" stroke-width="0.5"/>
<rect x="83.25" y="46.25" width="0.5" height="0.5" stroke="#2b2b2b" stroke-width="0.5"/>
<rect x="40.25" y="46.25" width="0.5" height="0.5" stroke="#2b2b2b" stroke-width="0.5"/>
<rect x="18.25" y="46.25" width="0.5" height="0.5" stroke="#2b2b2b" stroke-width="0.5"/>
<rect x="61.25" y="73.25" width="0.5" height="0.5" stroke="#2b2b2b" stroke-width="0.5"/>
<rect x="83.25" y="73.25" width="0.5" height="0.5" stroke="#2b2b2b" stroke-width="0.5"/>
<rect x="40.25" y="73.25" width="0.5" height="0.5" stroke="#2b2b2b" stroke-width="0.5"/>
<rect x="18.25" y="73.25" width="0.5" height="0.5" stroke="#2b2b2b" stroke-width="0.5"/>
<rect x="61.25" y="19.25" width="0.5" height="0.5" stroke="#2b2b2b" stroke-width="0.5"/>
<rect x="83.25" y="19.25" width="0.5" height="0.5" stroke="#2b2b2b" stroke-width="0.5"/>
<rect x="40.25" y="19.25" width="0.5" height="0.5" stroke="#2b2b2b" stroke-width="0.5"/>
<rect x="18.25" y="19.25" width="0.5" height="0.5" stroke="#2b2b2b" stroke-width="0.5"/>
<rect x="61.25" y="64.25" width="0.5" height="0.5" stroke="#2b2b2b" stroke-width="0.5"/>
<rect x="83.25" y="64.25" width="0.5" height="0.5" stroke="#2b2b2b" stroke-width="0.5"/>
<rect x="40.25" y="64.25" width="0.5" height="0.5" stroke="#2b2b2b" stroke-width="0.5"/>
<rect x="18.25" y="64.25" width="0.5" height="0.5" stroke="#2b2b2b" stroke-width="0.5"/>
<rect x="61.25" y="10.25" width="0.5" height="0.5" stroke="#2b2b2b" stroke-width="0.5"/>
<rect x="83.25" y="10.25" width="0.5" height="0.5" stroke="#2b2b2b" stroke-width="0.5"/>
<rect x="40.25" y="10.25" width="0.5" height="0.5" stroke="#2b2b2b" stroke-width="0.5"/>
<rect x="18.25" y="10.25" width="0.5" height="0.5" stroke="#2b2b2b" stroke-width="0.5"/>
</svg>
