<svg width="220" height="124" viewBox="0 0 220 124" fill="none" xmlns="http://www.w3.org/2000/svg">
<path d="M79 48C79 45.2386 81.2386 43 84 43H136C138.761 43 141 45.2386 141 48V76C141 78.7614 138.761 81 136 81H84C81.2386 81 79 78.7614 79 76V48Z" fill="#593634"/>
<path d="M91.9588 67V58.2727H95.1548C95.7741 58.2727 96.2869 58.375 96.6932 58.5795C97.0994 58.7812 97.4034 59.0554 97.6051 59.402C97.8068 59.7457 97.9077 60.1335 97.9077 60.5653C97.9077 60.929 97.8409 61.2358 97.7074 61.4858C97.5739 61.733 97.3949 61.9318 97.1705 62.0824C96.9489 62.2301 96.7045 62.3381 96.4375 62.4062V62.4915C96.7273 62.5057 97.0099 62.5994 97.2855 62.7727C97.5639 62.9432 97.794 63.1861 97.9759 63.5014C98.1577 63.8168 98.2486 64.2003 98.2486 64.652C98.2486 65.098 98.1435 65.4986 97.9332 65.8537C97.7259 66.206 97.4048 66.4858 96.9702 66.6932C96.5355 66.8977 95.9801 67 95.304 67H91.9588ZM93.2756 65.8707H95.1761C95.8068 65.8707 96.2585 65.7486 96.5312 65.5043C96.804 65.2599 96.9403 64.9545 96.9403 64.5881C96.9403 64.3125 96.8707 64.0597 96.7315 63.8295C96.5923 63.5994 96.3935 63.4162 96.1349 63.2798C95.8793 63.1435 95.5753 63.0753 95.223 63.0753H93.2756V65.8707ZM93.2756 62.0483H95.0398C95.3352 62.0483 95.6009 61.9915 95.8366 61.8778C96.0753 61.7642 96.2642 61.6051 96.4034 61.4006C96.5455 61.1932 96.6165 60.9489 96.6165 60.6676C96.6165 60.3068 96.4901 60.0043 96.2372 59.7599C95.9844 59.5156 95.5966 59.3935 95.0739 59.3935H93.2756V62.0483ZM103.854 64.2855V60.4545H105.133V67H103.88V65.8665H103.812C103.661 66.2159 103.42 66.5071 103.087 66.7401C102.758 66.9702 102.347 67.0852 101.856 67.0852C101.435 67.0852 101.063 66.9929 100.739 66.8082C100.418 66.6207 100.165 66.3438 99.9808 65.9773C99.799 65.6108 99.7081 65.1577 99.7081 64.6179V60.4545H100.982V64.4645C100.982 64.9105 101.106 65.2656 101.353 65.5298C101.6 65.794 101.921 65.9261 102.316 65.9261C102.555 65.9261 102.792 65.8665 103.028 65.7472C103.266 65.6278 103.464 65.4474 103.62 65.206C103.779 64.9645 103.857 64.6577 103.854 64.2855ZM109.9 60.4545V61.4773H106.325V60.4545H109.9ZM107.284 58.8864H108.558V65.0781C108.558 65.3253 108.595 65.5114 108.669 65.6364C108.743 65.7585 108.838 65.8423 108.954 65.8878C109.074 65.9304 109.203 65.9517 109.342 65.9517C109.444 65.9517 109.534 65.9446 109.61 65.9304C109.687 65.9162 109.747 65.9048 109.789 65.8963L110.02 66.9489C109.946 66.9773 109.841 67.0057 109.704 67.0341C109.568 67.0653 109.397 67.0824 109.193 67.0852C108.858 67.0909 108.545 67.0312 108.255 66.9062C107.966 66.7812 107.731 66.5881 107.552 66.3267C107.373 66.0653 107.284 65.7372 107.284 65.3423V58.8864ZM114.365 60.4545V61.4773H110.79V60.4545H114.365ZM111.749 58.8864H113.023V65.0781C113.023 65.3253 113.06 65.5114 113.134 65.6364C113.207 65.7585 113.303 65.8423 113.419 65.8878C113.538 65.9304 113.668 65.9517 113.807 65.9517C113.909 65.9517 113.999 65.9446 114.075 65.9304C114.152 65.9162 114.212 65.9048 114.254 65.8963L114.484 66.9489C114.411 66.9773 114.305 67.0057 114.169 67.0341C114.033 67.0653 113.862 67.0824 113.658 67.0852C113.322 67.0909 113.01 67.0312 112.72 66.9062C112.43 66.7812 112.196 66.5881 112.017 66.3267C111.838 66.0653 111.749 65.7372 111.749 65.3423V58.8864ZM118.461 67.1321C117.848 67.1321 117.312 66.9915 116.855 66.7102C116.397 66.429 116.042 66.0355 115.789 65.5298C115.537 65.0241 115.41 64.4332 115.41 63.7571C115.41 63.0781 115.537 62.4844 115.789 61.9759C116.042 61.4673 116.397 61.0724 116.855 60.7912C117.312 60.5099 117.848 60.3693 118.461 60.3693C119.075 60.3693 119.61 60.5099 120.068 60.7912C120.525 61.0724 120.88 61.4673 121.133 61.9759C121.386 62.4844 121.512 63.0781 121.512 63.7571C121.512 64.4332 121.386 65.0241 121.133 65.5298C120.88 66.0355 120.525 66.429 120.068 66.7102C119.61 66.9915 119.075 67.1321 118.461 67.1321ZM118.466 66.0625C118.863 66.0625 119.193 65.9574 119.454 65.7472C119.716 65.5369 119.909 65.2571 120.034 64.9077C120.162 64.5582 120.225 64.1733 120.225 63.7528C120.225 63.3352 120.162 62.9517 120.034 62.6023C119.909 62.25 119.716 61.9673 119.454 61.7543C119.193 61.5412 118.863 61.4347 118.466 61.4347C118.065 61.4347 117.733 61.5412 117.468 61.7543C117.207 61.9673 117.012 62.25 116.885 62.6023C116.76 62.9517 116.697 63.3352 116.697 63.7528C116.697 64.1733 116.76 64.5582 116.885 64.9077C117.012 65.2571 117.207 65.5369 117.468 65.7472C117.733 65.9574 118.065 66.0625 118.466 66.0625ZM124.209 63.1136V67H122.935V60.4545H124.158V61.5199H124.239C124.389 61.1733 124.625 60.8949 124.946 60.6847C125.27 60.4744 125.678 60.3693 126.169 60.3693C126.615 60.3693 127.006 60.4631 127.341 60.6506C127.676 60.8352 127.936 61.1108 128.121 61.4773C128.305 61.8437 128.398 62.2969 128.398 62.8366V67H127.124V62.9901C127.124 62.5156 127 62.1449 126.753 61.8778C126.506 61.608 126.166 61.473 125.734 61.473C125.439 61.473 125.176 61.5369 124.946 61.6648C124.719 61.7926 124.538 61.9801 124.405 62.2273C124.274 62.4716 124.209 62.767 124.209 63.1136Z" fill="white"/>
</svg>
