<svg width="213" height="100" viewBox="0 0 213 100" fill="none" xmlns="http://www.w3.org/2000/svg">
<rect x="0.5" y="0.5" width="212" height="99" rx="2.5" stroke="white"/>
<rect x="171" y="78" width="31" height="10" rx="4" fill="#D9D9D9"/>
<path d="M19.2042 19.3732C19.1843 19.1727 19.099 19.0169 18.9482 18.9059C18.7973 18.7949 18.5927 18.7393 18.3342 18.7393C18.1585 18.7393 18.0102 18.7642 17.8892 18.8139C17.7682 18.862 17.6754 18.9291 17.6108 19.0153C17.5478 19.1014 17.5163 19.1992 17.5163 19.3086C17.513 19.3997 17.5321 19.4793 17.5735 19.5472C17.6166 19.6152 17.6754 19.674 17.75 19.7237C17.8246 19.7718 17.9107 19.814 18.0085 19.8505C18.1063 19.8853 18.2107 19.9151 18.3217 19.94L18.7791 20.0494C19.0012 20.0991 19.205 20.1654 19.3906 20.2482C19.5762 20.3311 19.737 20.433 19.8729 20.554C20.0088 20.675 20.114 20.8175 20.1886 20.9815C20.2648 21.1456 20.3037 21.3337 20.3054 21.5458C20.3037 21.8574 20.2242 22.1275 20.0668 22.3562C19.911 22.5832 19.6856 22.7597 19.3906 22.8857C19.0973 23.0099 18.7435 23.0721 18.3292 23.0721C17.9182 23.0721 17.5603 23.0091 17.2553 22.8832C16.9521 22.7572 16.7151 22.5708 16.5444 22.3239C16.3754 22.0753 16.2867 21.7679 16.2784 21.4016H17.32C17.3316 21.5723 17.3804 21.7148 17.4666 21.8292C17.5545 21.9419 17.6713 22.0272 17.8171 22.0852C17.9646 22.1416 18.1312 22.1697 18.3168 22.1697C18.4991 22.1697 18.6573 22.1432 18.7915 22.0902C18.9274 22.0372 19.0327 21.9634 19.1072 21.869C19.1818 21.7745 19.2191 21.666 19.2191 21.5433C19.2191 21.429 19.1851 21.3329 19.1172 21.255C19.0509 21.1771 18.9531 21.1108 18.8239 21.0561C18.6963 21.0014 18.5397 20.9517 18.354 20.907L17.7997 20.7678C17.3705 20.6634 17.0316 20.5001 16.783 20.2781C16.5344 20.056 16.411 19.7569 16.4126 19.3807C16.411 19.0724 16.493 18.8031 16.6587 18.5728C16.8261 18.3424 17.0556 18.1626 17.3473 18.0334C17.639 17.9041 17.9704 17.8395 18.3416 17.8395C18.7195 17.8395 19.0492 17.9041 19.331 18.0334C19.6143 18.1626 19.8348 18.3424 19.9922 18.5728C20.1496 18.8031 20.2308 19.07 20.2358 19.3732H19.2042ZM23.458 21.3743V19.1818H24.517V23H23.5003V22.3065H23.4605C23.3743 22.5302 23.231 22.71 23.0305 22.8459C22.8316 22.9818 22.5888 23.0497 22.3021 23.0497C22.0469 23.0497 21.8224 22.9917 21.6285 22.8757C21.4346 22.7597 21.2829 22.5948 21.1736 22.381C21.0658 22.1673 21.0112 21.9112 21.0095 21.6129V19.1818H22.0684V21.424C22.0701 21.6494 22.1306 21.8275 22.2499 21.9585C22.3692 22.0894 22.5291 22.1548 22.7297 22.1548C22.8573 22.1548 22.9766 22.1258 23.0876 22.0678C23.1987 22.0082 23.2881 21.9203 23.3561 21.8043C23.4257 21.6883 23.4597 21.545 23.458 21.3743ZM25.364 23V19.1818H26.3732V19.8555H26.418C26.4975 19.6317 26.6301 19.4553 26.8157 19.326C27.0013 19.1967 27.2234 19.1321 27.4819 19.1321C27.7437 19.1321 27.9666 19.1976 28.1506 19.3285C28.3345 19.4577 28.4571 19.6334 28.5185 19.8555H28.5582C28.6361 19.6367 28.777 19.4619 28.9808 19.331C29.1863 19.1984 29.4291 19.1321 29.7092 19.1321C30.0655 19.1321 30.3546 19.2456 30.5767 19.4727C30.8004 19.698 30.9123 20.0179 30.9123 20.4322V23H29.8558V20.641C29.8558 20.4289 29.7995 20.2698 29.6868 20.1637C29.5741 20.0576 29.4332 20.0046 29.2642 20.0046C29.072 20.0046 28.922 20.0659 28.8143 20.1886C28.7066 20.3095 28.6527 20.4695 28.6527 20.6683V23H27.6261V20.6186C27.6261 20.4313 27.5722 20.2822 27.4645 20.1712C27.3584 20.0601 27.2184 20.0046 27.0444 20.0046C26.9267 20.0046 26.8207 20.0344 26.7262 20.0941C26.6334 20.1521 26.5597 20.2341 26.505 20.3402C26.4503 20.4446 26.4229 20.5672 26.4229 20.7081V23H25.364ZM31.7488 23V19.1818H32.758V19.8555H32.8027C32.8823 19.6317 33.0149 19.4553 33.2005 19.326C33.3861 19.1967 33.6081 19.1321 33.8667 19.1321C34.1285 19.1321 34.3514 19.1976 34.5353 19.3285C34.7193 19.4577 34.8419 19.6334 34.9032 19.8555H34.943C35.0209 19.6367 35.1618 19.4619 35.3656 19.331C35.5711 19.1984 35.8139 19.1321 36.0939 19.1321C36.4502 19.1321 36.7394 19.2456 36.9615 19.4727C37.1852 19.698 37.2971 20.0179 37.2971 20.4322V23H36.2406V20.641C36.2406 20.4289 36.1842 20.2698 36.0716 20.1637C35.9589 20.0576 35.818 20.0046 35.649 20.0046C35.4567 20.0046 35.3068 20.0659 35.199 20.1886C35.0913 20.3095 35.0375 20.4695 35.0375 20.6683V23H34.0108V20.6186C34.0108 20.4313 33.957 20.2822 33.8493 20.1712C33.7432 20.0601 33.6032 20.0046 33.4292 20.0046C33.3115 20.0046 33.2054 20.0344 33.111 20.0941C33.0182 20.1521 32.9444 20.2341 32.8897 20.3402C32.835 20.4446 32.8077 20.5672 32.8077 20.7081V23H31.7488ZM39.8736 23.0746C39.4808 23.0746 39.1428 22.995 38.8594 22.8359C38.5777 22.6752 38.3606 22.4482 38.2081 22.1548C38.0556 21.8598 37.9794 21.511 37.9794 21.1083C37.9794 20.7156 38.0556 20.3709 38.2081 20.0742C38.3606 19.7776 38.5752 19.5464 38.8519 19.3807C39.1303 19.215 39.4568 19.1321 39.8313 19.1321C40.0832 19.1321 40.3177 19.1727 40.5348 19.2539C40.7536 19.3335 40.9441 19.4536 41.1065 19.6143C41.2706 19.7751 41.3982 19.9773 41.4893 20.2209C41.5805 20.4628 41.6261 20.7462 41.6261 21.071V21.3619H38.402V20.7056H40.6293C40.6293 20.5531 40.5961 20.4181 40.5298 20.3004C40.4635 20.1828 40.3716 20.0908 40.2539 20.0245C40.1379 19.9566 40.0028 19.9226 39.8487 19.9226C39.688 19.9226 39.5455 19.9599 39.4212 20.0344C39.2985 20.1074 39.2024 20.206 39.1328 20.3303C39.0632 20.4529 39.0276 20.5896 39.0259 20.7404V21.3643C39.0259 21.5533 39.0607 21.7165 39.1303 21.854C39.2016 21.9916 39.3018 22.0977 39.4311 22.1722C39.5604 22.2468 39.7137 22.2841 39.891 22.2841C40.0086 22.2841 40.1164 22.2675 40.2141 22.2344C40.3119 22.2012 40.3956 22.1515 40.4652 22.0852C40.5348 22.0189 40.5878 21.9377 40.6243 21.8416L41.6037 21.9062C41.554 22.1416 41.4521 22.3471 41.2979 22.5227C41.1455 22.6967 40.9483 22.8326 40.7063 22.9304C40.466 23.0265 40.1884 23.0746 39.8736 23.0746ZM42.3171 23V19.1818H43.3438V19.848H43.3835C43.4531 19.611 43.57 19.4321 43.734 19.3111C43.8981 19.1884 44.087 19.1271 44.3008 19.1271C44.3538 19.1271 44.411 19.1304 44.4723 19.1371C44.5336 19.1437 44.5875 19.1528 44.6339 19.1644V20.104C44.5842 20.0891 44.5154 20.0759 44.4276 20.0643C44.3397 20.0527 44.2594 20.0469 44.1864 20.0469C44.0307 20.0469 43.8915 20.0808 43.7688 20.1488C43.6478 20.2151 43.5517 20.3079 43.4805 20.4272C43.4109 20.5465 43.3761 20.6841 43.3761 20.8398V23H42.3171ZM50.1971 19.5547C50.1623 19.4337 50.1134 19.3268 50.0504 19.234C49.9875 19.1396 49.9104 19.06 49.8192 18.9954C49.7298 18.9291 49.627 18.8786 49.511 18.8438C49.3967 18.8089 49.2699 18.7915 49.1307 18.7915C48.8705 18.7915 48.6418 18.8562 48.4446 18.9854C48.2491 19.1147 48.0966 19.3028 47.9872 19.5497C47.8778 19.795 47.8232 20.0949 47.8232 20.4496C47.8232 20.8042 47.877 21.1058 47.9847 21.3544C48.0924 21.603 48.2449 21.7927 48.4421 21.9237C48.6393 22.0529 48.8722 22.1175 49.1406 22.1175C49.3842 22.1175 49.5922 22.0745 49.7646 21.9883C49.9386 21.9004 50.0711 21.777 50.1623 21.6179C50.2551 21.4588 50.3015 21.2707 50.3015 21.0536L50.5202 21.0859H49.2077V20.2756H51.3381V20.9169C51.3381 21.3643 51.2436 21.7488 51.0547 22.0703C50.8658 22.3902 50.6056 22.6371 50.2741 22.8111C49.9427 22.9834 49.5632 23.0696 49.1357 23.0696C48.6584 23.0696 48.2391 22.9644 47.8778 22.7539C47.5166 22.5418 47.2348 22.241 47.0327 21.8516C46.8321 21.4605 46.7319 20.9964 46.7319 20.4595C46.7319 20.0469 46.7915 19.679 46.9109 19.3558C47.0318 19.031 47.2009 18.7559 47.418 18.5305C47.6351 18.3052 47.8878 18.1336 48.1761 18.016C48.4645 17.8983 48.7769 17.8395 49.1133 17.8395C49.4016 17.8395 49.6701 17.8817 49.9187 17.9663C50.1673 18.0491 50.3877 18.1668 50.5799 18.3192C50.7738 18.4717 50.9321 18.6532 51.0547 18.8636C51.1773 19.0724 51.256 19.3028 51.2908 19.5547H50.1971ZM53.2155 23.0721C52.9719 23.0721 52.7548 23.0298 52.5642 22.9453C52.3736 22.8591 52.2228 22.7324 52.1118 22.565C52.0024 22.396 51.9477 22.1855 51.9477 21.9336C51.9477 21.7215 51.9867 21.5433 52.0645 21.3991C52.1424 21.255 52.2485 21.139 52.3827 21.0511C52.517 20.9633 52.6694 20.897 52.8401 20.8523C53.0125 20.8075 53.1931 20.776 53.382 20.7578C53.6041 20.7346 53.7831 20.7131 53.9189 20.6932C54.0548 20.6716 54.1534 20.6402 54.2148 20.5987C54.2761 20.5573 54.3067 20.496 54.3067 20.4148V20.3999C54.3067 20.2424 54.257 20.1206 54.1576 20.0344C54.0598 19.9483 53.9206 19.9052 53.74 19.9052C53.5494 19.9052 53.3978 19.9474 53.2851 20.032C53.1724 20.1148 53.0978 20.2192 53.0613 20.3452L52.0819 20.2656C52.1317 20.0336 52.2294 19.8331 52.3753 19.6641C52.5211 19.4934 52.7092 19.3625 52.9395 19.2713C53.1715 19.1785 53.44 19.1321 53.7449 19.1321C53.9571 19.1321 54.1601 19.157 54.354 19.2067C54.5495 19.2564 54.7227 19.3335 54.8735 19.4379C55.026 19.5423 55.1461 19.6765 55.2339 19.8406C55.3218 20.003 55.3657 20.1977 55.3657 20.4247V23H54.3614V22.4705H54.3316C54.2703 22.5898 54.1882 22.6951 54.0855 22.7862C53.9827 22.8757 53.8593 22.9461 53.7151 22.9975C53.5709 23.0472 53.4044 23.0721 53.2155 23.0721ZM53.5187 22.3413C53.6745 22.3413 53.8121 22.3106 53.9314 22.2493C54.0507 22.1863 54.1443 22.1018 54.2123 21.9957C54.2802 21.8897 54.3142 21.7695 54.3142 21.6353V21.2301C54.281 21.2517 54.2355 21.2715 54.1775 21.2898C54.1211 21.3063 54.0573 21.3221 53.9861 21.337C53.9148 21.3503 53.8435 21.3627 53.7723 21.3743C53.701 21.3842 53.6364 21.3933 53.5784 21.4016C53.4541 21.4199 53.3456 21.4489 53.2528 21.4886C53.1599 21.5284 53.0879 21.5823 53.0365 21.6502C52.9851 21.7165 52.9594 21.7994 52.9594 21.8988C52.9594 22.043 53.0116 22.1532 53.116 22.2294C53.2221 22.304 53.3563 22.3413 53.5187 22.3413ZM56.1872 23V19.1818H57.2139V19.848H57.2536C57.3232 19.611 57.4401 19.4321 57.6041 19.3111C57.7682 19.1884 57.9571 19.1271 58.1709 19.1271C58.2239 19.1271 58.2811 19.1304 58.3424 19.1371C58.4037 19.1437 58.4576 19.1528 58.504 19.1644V20.104C58.4543 20.0891 58.3855 20.0759 58.2977 20.0643C58.2098 20.0527 58.1295 20.0469 58.0566 20.0469C57.9008 20.0469 57.7616 20.0808 57.6389 20.1488C57.518 20.2151 57.4218 20.3079 57.3506 20.4272C57.281 20.5465 57.2462 20.6841 57.2462 20.8398V23H56.1872ZM60.2807 23.0621C59.9907 23.0621 59.728 22.9876 59.4927 22.8384C59.2591 22.6876 59.0734 22.4664 58.9359 22.1747C58.8 21.8814 58.7321 21.5218 58.7321 21.0959C58.7321 20.6584 58.8025 20.2946 58.9434 20.0046C59.0842 19.7129 59.2715 19.495 59.5051 19.3509C59.7405 19.205 59.9982 19.1321 60.2782 19.1321C60.492 19.1321 60.6702 19.1686 60.8127 19.2415C60.9569 19.3127 61.0729 19.4022 61.1607 19.5099C61.2502 19.616 61.3181 19.7204 61.3645 19.8232H61.3968V17.9091H62.4533V23H61.4093V22.3885H61.3645C61.3148 22.4946 61.2444 22.5998 61.1532 22.7042C61.0637 22.8069 60.9469 22.8923 60.8027 22.9602C60.6602 23.0282 60.4862 23.0621 60.2807 23.0621ZM60.6163 22.2195C60.787 22.2195 60.9312 22.1731 61.0488 22.0803C61.1681 21.9858 61.2593 21.854 61.3223 21.685C61.3869 21.516 61.4192 21.3179 61.4192 21.0909C61.4192 20.8639 61.3877 20.6667 61.3248 20.4993C61.2618 20.3319 61.1706 20.2027 61.0513 20.1115C60.932 20.0204 60.787 19.9748 60.6163 19.9748C60.4423 19.9748 60.2956 20.022 60.1763 20.1165C60.057 20.2109 59.9667 20.3419 59.9054 20.5092C59.844 20.6766 59.8134 20.8705 59.8134 21.0909C59.8134 21.313 59.844 21.5094 59.9054 21.68C59.9683 21.8491 60.0587 21.9817 60.1763 22.0778C60.2956 22.1722 60.4423 22.2195 60.6163 22.2195ZM65.064 23.0746C64.6713 23.0746 64.3332 22.995 64.0498 22.8359C63.7681 22.6752 63.551 22.4482 63.3985 22.1548C63.2461 21.8598 63.1698 21.511 63.1698 21.1083C63.1698 20.7156 63.2461 20.3709 63.3985 20.0742C63.551 19.7776 63.7656 19.5464 64.0423 19.3807C64.3208 19.215 64.6472 19.1321 65.0218 19.1321C65.2736 19.1321 65.5081 19.1727 65.7252 19.2539C65.944 19.3335 66.1346 19.4536 66.297 19.6143C66.461 19.7751 66.5886 19.9773 66.6798 20.2209C66.7709 20.4628 66.8165 20.7462 66.8165 21.071V21.3619H63.5924V20.7056H65.8197C65.8197 20.5531 65.7865 20.4181 65.7203 20.3004C65.654 20.1828 65.562 20.0908 65.4443 20.0245C65.3283 19.9566 65.1933 19.9226 65.0392 19.9226C64.8784 19.9226 64.7359 19.9599 64.6116 20.0344C64.489 20.1074 64.3928 20.206 64.3232 20.3303C64.2536 20.4529 64.218 20.5896 64.2164 20.7404V21.3643C64.2164 21.5533 64.2512 21.7165 64.3208 21.854C64.392 21.9916 64.4923 22.0977 64.6215 22.1722C64.7508 22.2468 64.9041 22.2841 65.0814 22.2841C65.1991 22.2841 65.3068 22.2675 65.4046 22.2344C65.5023 22.2012 65.586 22.1515 65.6556 22.0852C65.7252 22.0189 65.7783 21.9377 65.8147 21.8416L66.7941 21.9062C66.7444 22.1416 66.6425 22.3471 66.4884 22.5227C66.3359 22.6967 66.1387 22.8326 65.8968 22.9304C65.6565 23.0265 65.3789 23.0746 65.064 23.0746ZM68.5665 20.7926V23H67.5075V19.1818H68.5168V19.8555H68.5615C68.646 19.6334 68.7877 19.4577 68.9866 19.3285C69.1855 19.1976 69.4266 19.1321 69.71 19.1321C69.9751 19.1321 70.2063 19.1901 70.4035 19.3061C70.6007 19.4221 70.754 19.5878 70.8634 19.8033C70.9727 20.017 71.0274 20.2723 71.0274 20.5689V23H69.9685V20.7578C69.9701 20.5241 69.9105 20.3419 69.7895 20.2109C69.6685 20.0784 69.502 20.0121 69.2899 20.0121C69.1473 20.0121 69.0214 20.0427 68.912 20.104C68.8043 20.1654 68.7198 20.2549 68.6585 20.3725C68.5988 20.4885 68.5682 20.6286 68.5665 20.7926Z" fill="white"/>
<path d="M16.7074 36H16.1534L17.7557 31.6364H18.3011L19.9034 36H19.3494L18.0455 32.3267H18.0114L16.7074 36ZM16.9119 34.2955H19.1449V34.7642H16.9119V34.2955ZM21.0178 34.0312V36H20.5149V32.7273H21.0007V33.2386H21.0433C21.12 33.0724 21.2365 32.9389 21.3928 32.8381C21.549 32.7358 21.7507 32.6847 21.9979 32.6847C22.2195 32.6847 22.4134 32.7301 22.5795 32.821C22.7457 32.9105 22.875 33.0469 22.9673 33.2301C23.0597 33.4119 23.1058 33.642 23.1058 33.9205V36H22.603V33.9545C22.603 33.6974 22.5362 33.4972 22.4027 33.3537C22.2692 33.2088 22.0859 33.1364 21.853 33.1364C21.6925 33.1364 21.549 33.1712 21.4226 33.2408C21.2976 33.3104 21.1989 33.4119 21.1264 33.5455C21.054 33.679 21.0178 33.8409 21.0178 34.0312ZM27.9428 31.6364V36H27.4144V32.1903H27.3888L26.3235 32.8977V32.3608L27.4144 31.6364H27.9428ZM30.5955 36.0597C30.3029 36.0597 30.0444 36.0078 29.82 35.9041C29.5969 35.799 29.4229 35.6548 29.2979 35.4716C29.1729 35.2869 29.1112 35.0767 29.1126 34.8409C29.1112 34.6562 29.1474 34.4858 29.2212 34.3295C29.2951 34.1719 29.396 34.0405 29.5238 33.9354C29.6531 33.8288 29.7972 33.7614 29.9563 33.733V33.7074C29.7475 33.6534 29.5813 33.5362 29.4577 33.3558C29.3342 33.174 29.2731 32.9673 29.2745 32.7358C29.2731 32.5142 29.3292 32.3161 29.4428 32.1413C29.5565 31.9666 29.7127 31.8288 29.9116 31.728C30.1119 31.6271 30.3398 31.5767 30.5955 31.5767C30.8484 31.5767 31.0742 31.6271 31.2731 31.728C31.4719 31.8288 31.6282 31.9666 31.7418 32.1413C31.8569 32.3161 31.9151 32.5142 31.9165 32.7358C31.9151 32.9673 31.8519 33.174 31.7269 33.3558C31.6033 33.5362 31.4393 33.6534 31.2347 33.7074V33.733C31.3924 33.7614 31.5344 33.8288 31.6609 33.9354C31.7873 34.0405 31.8881 34.1719 31.9634 34.3295C32.0387 34.4858 32.0771 34.6562 32.0785 34.8409C32.0771 35.0767 32.0131 35.2869 31.8867 35.4716C31.7617 35.6548 31.5877 35.799 31.3647 35.9041C31.1431 36.0078 30.8867 36.0597 30.5955 36.0597ZM30.5955 35.5909C30.793 35.5909 30.9634 35.5589 31.1069 35.495C31.2504 35.4311 31.3612 35.3409 31.4393 35.2244C31.5174 35.108 31.5572 34.9716 31.5586 34.8153C31.5572 34.6506 31.5146 34.505 31.4308 34.3786C31.3469 34.2521 31.2326 34.1527 31.0877 34.0803C30.9442 34.0078 30.7802 33.9716 30.5955 33.9716C30.4094 33.9716 30.2433 34.0078 30.0969 34.0803C29.9521 34.1527 29.8377 34.2521 29.7539 34.3786C29.6715 34.505 29.631 34.6506 29.6325 34.8153C29.631 34.9716 29.6687 35.108 29.7454 35.2244C29.8235 35.3409 29.935 35.4311 30.0799 35.495C30.2248 35.5589 30.3967 35.5909 30.5955 35.5909ZM30.5955 33.5199C30.7518 33.5199 30.8903 33.4886 31.011 33.4261C31.1332 33.3636 31.229 33.2763 31.2987 33.1641C31.3683 33.0518 31.4038 32.9205 31.4052 32.7699C31.4038 32.6222 31.369 32.4936 31.3008 32.3842C31.2326 32.2734 31.1381 32.1882 31.0174 32.1286C30.8967 32.0675 30.756 32.0369 30.5955 32.0369C30.4322 32.0369 30.2894 32.0675 30.1673 32.1286C30.0451 32.1882 29.9506 32.2734 29.8839 32.3842C29.8171 32.4936 29.7844 32.6222 29.7859 32.7699C29.7844 32.9205 29.8178 33.0518 29.886 33.1641C29.9556 33.2763 30.0515 33.3636 30.1737 33.4261C30.2958 33.4886 30.4364 33.5199 30.5955 33.5199ZM34.3269 32.7273V33.1534H32.6309V32.7273H34.3269ZM33.1252 31.9432H33.628V35.0625C33.628 35.2045 33.6486 35.3111 33.6898 35.3821C33.7324 35.4517 33.7864 35.4986 33.8517 35.5227C33.9185 35.5455 33.9888 35.5568 34.0627 35.5568C34.1181 35.5568 34.1635 35.554 34.199 35.5483C34.2346 35.5412 34.263 35.5355 34.2843 35.5312L34.3865 35.983C34.3525 35.9957 34.3049 36.0085 34.2438 36.0213C34.1827 36.0355 34.1053 36.0426 34.0115 36.0426C33.8695 36.0426 33.7303 36.0121 33.5939 35.951C33.459 35.8899 33.3468 35.7969 33.2573 35.6719C33.1692 35.5469 33.1252 35.3892 33.1252 35.1989V31.9432ZM35.6564 34.0312V36H35.1536V31.6364H35.6564V33.2386H35.699C35.7757 33.0696 35.8908 32.9354 36.0442 32.8359C36.199 32.7351 36.405 32.6847 36.6621 32.6847C36.8851 32.6847 37.0804 32.7294 37.248 32.8189C37.4157 32.907 37.5456 33.0426 37.638 33.2259C37.7317 33.4077 37.7786 33.6392 37.7786 33.9205V36H37.2757V33.9545C37.2757 33.6946 37.2083 33.4936 37.0733 33.3516C36.9398 33.2081 36.7544 33.1364 36.5172 33.1364C36.3525 33.1364 36.2047 33.1712 36.074 33.2408C35.9448 33.3104 35.8425 33.4119 35.7672 33.5455C35.6934 33.679 35.6564 33.8409 35.6564 34.0312ZM40.5735 33.8949V34.3636H38.6644V33.8949H40.5735ZM42.7878 36.0682C42.481 36.0682 42.2168 35.9957 41.9952 35.8509C41.7736 35.706 41.6032 35.5064 41.4838 35.2521C41.3645 34.9979 41.3049 34.7074 41.3049 34.3807C41.3049 34.0483 41.3659 33.755 41.4881 33.5007C41.6117 33.245 41.7836 33.0455 42.0037 32.902C42.2253 32.7571 42.4838 32.6847 42.7793 32.6847C43.0094 32.6847 43.2168 32.7273 43.4015 32.8125C43.5861 32.8977 43.7374 33.017 43.8553 33.1705C43.9732 33.3239 44.0463 33.5028 44.0748 33.7074H43.5719C43.5336 33.5582 43.4483 33.4261 43.3162 33.3111C43.1855 33.1946 43.0094 33.1364 42.7878 33.1364C42.5918 33.1364 42.4199 33.1875 42.2722 33.2898C42.1259 33.3906 42.0115 33.5334 41.9292 33.718C41.8482 33.9013 41.8077 34.1165 41.8077 34.3636C41.8077 34.6165 41.8475 34.8366 41.927 35.0241C42.008 35.2116 42.1216 35.3572 42.2679 35.4609C42.4157 35.5646 42.589 35.6165 42.7878 35.6165C42.9185 35.6165 43.0371 35.5938 43.1436 35.5483C43.2502 35.5028 43.3404 35.4375 43.4142 35.3523C43.4881 35.267 43.5407 35.1648 43.5719 35.0455H44.0748C44.0463 35.2386 43.976 35.4126 43.8638 35.5675C43.753 35.7209 43.606 35.843 43.4228 35.9339C43.2409 36.0234 43.0293 36.0682 42.7878 36.0682ZM46.182 36.0682C45.8667 36.0682 45.5946 35.9986 45.3659 35.8594C45.1387 35.7188 44.9632 35.5227 44.8397 35.2713C44.7175 35.0185 44.6564 34.7244 44.6564 34.3892C44.6564 34.054 44.7175 33.7585 44.8397 33.5028C44.9632 33.2457 45.1351 33.0455 45.3553 32.902C45.5769 32.7571 45.8354 32.6847 46.1309 32.6847C46.3013 32.6847 46.4696 32.7131 46.6358 32.7699C46.802 32.8267 46.9533 32.919 47.0897 33.0469C47.226 33.1733 47.3347 33.3409 47.4157 33.5497C47.4966 33.7585 47.5371 34.0156 47.5371 34.321V34.5341H45.0144V34.0994H47.0257C47.0257 33.9148 46.9888 33.75 46.915 33.6051C46.8425 33.4602 46.7388 33.3459 46.6039 33.2621C46.4703 33.1783 46.3127 33.1364 46.1309 33.1364C45.9306 33.1364 45.7573 33.1861 45.611 33.2855C45.4661 33.3835 45.3546 33.5114 45.2765 33.669C45.1983 33.8267 45.1593 33.9957 45.1593 34.1761V34.4659C45.1593 34.7131 45.2019 34.9226 45.2871 35.0945C45.3738 35.2649 45.4938 35.3949 45.6472 35.4844C45.8006 35.5724 45.9789 35.6165 46.182 35.6165C46.3141 35.6165 46.4334 35.598 46.54 35.5611C46.6479 35.5227 46.7409 35.4659 46.8191 35.3906C46.8972 35.3139 46.9576 35.2187 47.0002 35.1051L47.486 35.2415C47.4348 35.4062 47.3489 35.5511 47.2282 35.6761C47.1074 35.7997 46.9583 35.8963 46.7807 35.9659C46.6032 36.0341 46.4036 36.0682 46.182 36.0682ZM48.8049 34.0312V36H48.302V32.7273H48.7878V33.2386H48.8304C48.9071 33.0724 49.0236 32.9389 49.1799 32.8381C49.3361 32.7358 49.5378 32.6847 49.785 32.6847C50.0066 32.6847 50.2005 32.7301 50.3667 32.821C50.5328 32.9105 50.6621 33.0469 50.7544 33.2301C50.8468 33.4119 50.8929 33.642 50.8929 33.9205V36H50.3901V33.9545C50.3901 33.6974 50.3233 33.4972 50.1898 33.3537C50.0563 33.2088 49.873 33.1364 49.6401 33.1364C49.4796 33.1364 49.3361 33.1712 49.2097 33.2408C49.0847 33.3104 48.986 33.4119 48.9135 33.5455C48.8411 33.679 48.8049 33.8409 48.8049 34.0312ZM53.2351 32.7273V33.1534H51.5391V32.7273H53.2351ZM52.0334 31.9432H52.5362V35.0625C52.5362 35.2045 52.5568 35.3111 52.598 35.3821C52.6406 35.4517 52.6946 35.4986 52.7599 35.5227C52.8267 35.5455 52.897 35.5568 52.9709 35.5568C53.0263 35.5568 53.0717 35.554 53.1072 35.5483C53.1428 35.5412 53.1712 35.5355 53.1925 35.5312L53.2947 35.983C53.2607 35.9957 53.2131 36.0085 53.152 36.0213C53.0909 36.0355 53.0135 36.0426 52.9197 36.0426C52.7777 36.0426 52.6385 36.0121 52.5021 35.951C52.3672 35.8899 52.255 35.7969 52.1655 35.6719C52.0774 35.5469 52.0334 35.3892 52.0334 35.1989V31.9432ZM56.054 34.6619V32.7273H56.5568V36H56.054V35.446H56.0199C55.9432 35.6122 55.8239 35.7536 55.6619 35.87C55.5 35.9851 55.2955 36.0426 55.0483 36.0426C54.8438 36.0426 54.6619 35.9979 54.5028 35.9084C54.3438 35.8175 54.2188 35.6811 54.1278 35.4993C54.0369 35.3161 53.9915 35.0852 53.9915 34.8068V32.7273H54.4943V34.7727C54.4943 35.0114 54.5611 35.2017 54.6946 35.3438C54.8295 35.4858 55.0014 35.5568 55.2102 35.5568C55.3352 35.5568 55.4624 35.5249 55.5916 35.4609C55.7223 35.397 55.8317 35.299 55.9197 35.1669C56.0092 35.0348 56.054 34.8665 56.054 34.6619ZM57.4778 36V32.7273H57.9636V33.2216H57.9977C58.0574 33.0597 58.1653 32.9283 58.3216 32.8274C58.4778 32.7266 58.6539 32.6761 58.85 32.6761C58.8869 32.6761 58.9331 32.6768 58.9885 32.6783C59.0439 32.6797 59.0858 32.6818 59.1142 32.6847V33.196C59.0971 33.1918 59.0581 33.1854 58.997 33.1768C58.9373 33.1669 58.8741 33.1619 58.8074 33.1619C58.6483 33.1619 58.5062 33.1953 58.3812 33.2621C58.2576 33.3274 58.1596 33.4183 58.0872 33.5348C58.0162 33.6499 57.9806 33.7812 57.9806 33.929V36H57.4778ZM60.1337 37.2273C60.0485 37.2273 59.9725 37.2202 59.9057 37.206C59.839 37.1932 59.7928 37.1804 59.7672 37.1676L59.8951 36.7244C60.0172 36.7557 60.1252 36.767 60.2189 36.7585C60.3127 36.75 60.3958 36.7081 60.4682 36.6328C60.5421 36.5589 60.6096 36.4389 60.6706 36.2727L60.7644 36.017L59.5542 32.7273H60.0996L61.003 35.3352H61.0371L61.9405 32.7273H62.486L61.0968 36.4773C61.0343 36.6463 60.9569 36.7862 60.8645 36.897C60.7722 37.0092 60.665 37.0923 60.5428 37.1463C60.4221 37.2003 60.2857 37.2273 60.1337 37.2273ZM65.5423 37.2273V32.7273H66.0281V33.2472H66.0877C66.1246 33.1903 66.1758 33.1179 66.2411 33.0298C66.3079 32.9403 66.4031 32.8608 66.5266 32.7912C66.6516 32.7202 66.8207 32.6847 67.0337 32.6847C67.3093 32.6847 67.5522 32.7536 67.7624 32.8913C67.9727 33.0291 68.1367 33.2244 68.2546 33.4773C68.3725 33.7301 68.4315 34.0284 68.4315 34.3722C68.4315 34.7188 68.3725 35.0192 68.2546 35.2734C68.1367 35.5263 67.9734 35.7223 67.7646 35.8615C67.5558 35.9993 67.315 36.0682 67.0423 36.0682C66.832 36.0682 66.6637 36.0334 66.5373 35.9638C66.4109 35.8928 66.3136 35.8125 66.2454 35.723C66.1772 35.6321 66.1246 35.5568 66.0877 35.4972H66.0451V37.2273H65.5423ZM66.0366 34.3636C66.0366 34.6108 66.0728 34.8288 66.1452 35.0178C66.2177 35.2053 66.3235 35.3523 66.4627 35.4588C66.6019 35.5639 66.7724 35.6165 66.9741 35.6165C67.1843 35.6165 67.3597 35.5611 67.5004 35.4503C67.6424 35.3381 67.7489 35.1875 67.82 34.9986C67.8924 34.8082 67.9286 34.5966 67.9286 34.3636C67.9286 34.1335 67.8931 33.9261 67.8221 33.7415C67.7525 33.5554 67.6467 33.4084 67.5046 33.3004C67.364 33.1911 67.1871 33.1364 66.9741 33.1364C66.7695 33.1364 66.5977 33.1882 66.4585 33.2919C66.3192 33.3942 66.2141 33.5376 66.1431 33.7223C66.0721 33.9055 66.0366 34.1193 66.0366 34.3636ZM70.1616 36.0767C69.9542 36.0767 69.766 36.0376 69.5969 35.9595C69.4279 35.88 69.2937 35.7656 69.1942 35.6165C69.0948 35.4659 69.0451 35.2841 69.0451 35.071C69.0451 34.8835 69.082 34.7315 69.1559 34.6151C69.2298 34.4972 69.3285 34.4048 69.4521 34.3381C69.5756 34.2713 69.712 34.2216 69.8612 34.1889C70.0117 34.1548 70.163 34.1278 70.315 34.108C70.5138 34.0824 70.6751 34.0632 70.7987 34.0504C70.9237 34.0362 71.0146 34.0128 71.0714 33.9801C71.1296 33.9474 71.1587 33.8906 71.1587 33.8097V33.7926C71.1587 33.5824 71.1012 33.419 70.9862 33.3026C70.8725 33.1861 70.6999 33.1278 70.4684 33.1278C70.2283 33.1278 70.0401 33.1804 69.9038 33.2855C69.7674 33.3906 69.6715 33.5028 69.6161 33.6222L69.1388 33.4517C69.2241 33.2528 69.3377 33.098 69.4798 32.9872C69.6232 32.875 69.7795 32.7969 69.9485 32.7528C70.119 32.7074 70.2866 32.6847 70.4513 32.6847C70.5565 32.6847 70.6772 32.6974 70.8136 32.723C70.9513 32.7472 71.0842 32.7976 71.212 32.8743C71.3413 32.951 71.4485 33.0668 71.5337 33.2216C71.619 33.3764 71.6616 33.5838 71.6616 33.8438V36H71.1587V35.5568H71.1332C71.0991 35.6278 71.0423 35.7038 70.9627 35.7848C70.8832 35.8658 70.7773 35.9347 70.6452 35.9915C70.5131 36.0483 70.3519 36.0767 70.1616 36.0767ZM70.2383 35.625C70.4371 35.625 70.6048 35.5859 70.7411 35.5078C70.8789 35.4297 70.9826 35.3288 71.0522 35.2053C71.1232 35.0817 71.1587 34.9517 71.1587 34.8153V34.3551C71.1374 34.3807 71.0906 34.4041 71.0181 34.4254C70.9471 34.4453 70.8647 34.4631 70.771 34.4787C70.6786 34.4929 70.5884 34.5057 70.5004 34.517C70.4137 34.527 70.3434 34.5355 70.2894 34.5426C70.1587 34.5597 70.0366 34.5874 69.9229 34.6257C69.8107 34.6626 69.7198 34.7187 69.6502 34.794C69.582 34.8679 69.5479 34.9687 69.5479 35.0966C69.5479 35.2713 69.6126 35.4034 69.7418 35.4929C69.8725 35.581 70.038 35.625 70.2383 35.625ZM72.5794 36V32.7273H73.0652V33.2216H73.0993C73.1589 33.0597 73.2669 32.9283 73.4231 32.8274C73.5794 32.7266 73.7555 32.6761 73.9515 32.6761C73.9885 32.6761 74.0346 32.6768 74.09 32.6783C74.1454 32.6797 74.1873 32.6818 74.2157 32.6847V33.196C74.1987 33.1918 74.1596 33.1854 74.0985 33.1768C74.0389 33.1669 73.9757 33.1619 73.9089 33.1619C73.7498 33.1619 73.6078 33.1953 73.4828 33.2621C73.3592 33.3274 73.2612 33.4183 73.1887 33.5348C73.1177 33.6499 73.0822 33.7812 73.0822 33.929V36H72.5794ZM75.2805 34.8068L75.272 34.1847H75.3743L76.8061 32.7273H77.4283L75.9027 34.2699H75.8601L75.2805 34.8068ZM74.8118 36V31.6364H75.3146V36H74.8118ZM76.8913 36L75.6129 34.3807L75.9709 34.0312L77.5305 36H76.8913ZM81.7976 36.0682C81.5021 36.0682 81.2429 35.9979 81.0199 35.8572C80.7983 35.7166 80.625 35.5199 80.5 35.267C80.3764 35.0142 80.3146 34.7187 80.3146 34.3807C80.3146 34.0398 80.3764 33.7422 80.5 33.4879C80.625 33.2337 80.7983 33.0362 81.0199 32.8956C81.2429 32.755 81.5021 32.6847 81.7976 32.6847C82.093 32.6847 82.3516 32.755 82.5732 32.8956C82.7962 33.0362 82.9695 33.2337 83.093 33.4879C83.218 33.7422 83.2805 34.0398 83.2805 34.3807C83.2805 34.7187 83.218 35.0142 83.093 35.267C82.9695 35.5199 82.7962 35.7166 82.5732 35.8572C82.3516 35.9979 82.093 36.0682 81.7976 36.0682ZM81.7976 35.6165C82.022 35.6165 82.2067 35.5589 82.3516 35.4439C82.4964 35.3288 82.6037 35.1776 82.6733 34.9901C82.7429 34.8026 82.7777 34.5994 82.7777 34.3807C82.7777 34.1619 82.7429 33.9581 82.6733 33.7692C82.6037 33.5803 82.4964 33.4276 82.3516 33.3111C82.2067 33.1946 82.022 33.1364 81.7976 33.1364C81.5732 33.1364 81.3885 33.1946 81.2436 33.3111C81.0987 33.4276 80.9915 33.5803 80.9219 33.7692C80.8523 33.9581 80.8175 34.1619 80.8175 34.3807C80.8175 34.5994 80.8523 34.8026 80.9219 34.9901C80.9915 35.1776 81.0987 35.3288 81.2436 35.4439C81.3885 35.5589 81.5732 35.6165 81.7976 35.6165ZM84.551 34.0312V36H84.0481V32.7273H84.5339V33.2386H84.5765C84.6532 33.0724 84.7697 32.9389 84.926 32.8381C85.0822 32.7358 85.2839 32.6847 85.5311 32.6847C85.7527 32.6847 85.9466 32.7301 86.1127 32.821C86.2789 32.9105 86.4082 33.0469 86.5005 33.2301C86.5929 33.4119 86.639 33.642 86.639 33.9205V36H86.1362V33.9545C86.1362 33.6974 86.0694 33.4972 85.9359 33.3537C85.8024 33.2088 85.6191 33.1364 85.3862 33.1364C85.2257 33.1364 85.0822 33.1712 84.9558 33.2408C84.8308 33.3104 84.7321 33.4119 84.6596 33.5455C84.5872 33.679 84.551 33.8409 84.551 34.0312ZM91.3738 32.7273V33.1534H89.6777V32.7273H91.3738ZM90.1721 31.9432H90.6749V35.0625C90.6749 35.2045 90.6955 35.3111 90.7367 35.3821C90.7793 35.4517 90.8333 35.4986 90.8986 35.5227C90.9654 35.5455 91.0357 35.5568 91.1096 35.5568C91.165 35.5568 91.2104 35.554 91.2459 35.5483C91.2814 35.5412 91.3098 35.5355 91.3311 35.5312L91.4334 35.983C91.3993 35.9957 91.3517 36.0085 91.2907 36.0213C91.2296 36.0355 91.1522 36.0426 91.0584 36.0426C90.9164 36.0426 90.7772 36.0121 90.6408 35.951C90.5059 35.8899 90.3936 35.7969 90.3042 35.6719C90.2161 35.5469 90.1721 35.3892 90.1721 35.1989V31.9432ZM92.7033 34.0312V36H92.2005V31.6364H92.7033V33.2386H92.7459C92.8226 33.0696 92.9377 32.9354 93.0911 32.8359C93.2459 32.7351 93.4519 32.6847 93.709 32.6847C93.932 32.6847 94.1273 32.7294 94.2949 32.8189C94.4625 32.907 94.5925 33.0426 94.6848 33.2259C94.7786 33.4077 94.8255 33.6392 94.8255 33.9205V36H94.3226V33.9545C94.3226 33.6946 94.2551 33.4936 94.1202 33.3516C93.9867 33.2081 93.8013 33.1364 93.5641 33.1364C93.3993 33.1364 93.2516 33.1712 93.1209 33.2408C92.9917 33.3104 92.8894 33.4119 92.8141 33.5455C92.7402 33.679 92.7033 33.8409 92.7033 34.0312ZM97.1175 36.0682C96.8022 36.0682 96.5302 35.9986 96.3015 35.8594C96.0742 35.7188 95.8988 35.5227 95.7752 35.2713C95.6531 35.0185 95.592 34.7244 95.592 34.3892C95.592 34.054 95.6531 33.7585 95.7752 33.5028C95.8988 33.2457 96.0707 33.0455 96.2908 32.902C96.5124 32.7571 96.771 32.6847 97.0664 32.6847C97.2369 32.6847 97.4052 32.7131 97.5714 32.7699C97.7376 32.8267 97.8888 32.919 98.0252 33.0469C98.1616 33.1733 98.2702 33.3409 98.3512 33.5497C98.4322 33.7585 98.4727 34.0156 98.4727 34.321V34.5341H95.9499V34.0994H97.9613C97.9613 33.9148 97.9244 33.75 97.8505 33.6051C97.7781 33.4602 97.6744 33.3459 97.5394 33.2621C97.4059 33.1783 97.2482 33.1364 97.0664 33.1364C96.8661 33.1364 96.6928 33.1861 96.5465 33.2855C96.4016 33.3835 96.2901 33.5114 96.212 33.669C96.1339 33.8267 96.0948 33.9957 96.0948 34.1761V34.4659C96.0948 34.7131 96.1374 34.9226 96.2227 35.0945C96.3093 35.2649 96.4293 35.3949 96.5827 35.4844C96.7362 35.5724 96.9144 35.6165 97.1175 35.6165C97.2496 35.6165 97.369 35.598 97.4755 35.5611C97.5835 35.5227 97.6765 35.4659 97.7546 35.3906C97.8327 35.3139 97.8931 35.2187 97.9357 35.1051L98.4215 35.2415C98.3704 35.4062 98.2844 35.5511 98.1637 35.6761C98.043 35.7997 97.8938 35.8963 97.7163 35.9659C97.5387 36.0341 97.3391 36.0682 97.1175 36.0682ZM101.698 36V31.6364H102.201V33.2472H102.244C102.281 33.1903 102.332 33.1179 102.397 33.0298C102.464 32.9403 102.559 32.8608 102.683 32.7912C102.808 32.7202 102.977 32.6847 103.19 32.6847C103.465 32.6847 103.708 32.7536 103.919 32.8913C104.129 33.0291 104.293 33.2244 104.411 33.4773C104.529 33.7301 104.588 34.0284 104.588 34.3722C104.588 34.7188 104.529 35.0192 104.411 35.2734C104.293 35.5263 104.129 35.7223 103.921 35.8615C103.712 35.9993 103.471 36.0682 103.198 36.0682C102.988 36.0682 102.82 36.0334 102.693 35.9638C102.567 35.8928 102.47 35.8125 102.401 35.723C102.333 35.6321 102.281 35.5568 102.244 35.4972H102.184V36H101.698ZM102.193 34.3636C102.193 34.6108 102.229 34.8288 102.301 35.0178C102.374 35.2053 102.48 35.3523 102.619 35.4588C102.758 35.5639 102.928 35.6165 103.13 35.6165C103.34 35.6165 103.516 35.5611 103.656 35.4503C103.798 35.3381 103.905 35.1875 103.976 34.9986C104.048 34.8082 104.085 34.5966 104.085 34.3636C104.085 34.1335 104.049 33.9261 103.978 33.7415C103.909 33.5554 103.803 33.4084 103.661 33.3004C103.52 33.1911 103.343 33.1364 103.13 33.1364C102.926 33.1364 102.754 33.1882 102.615 33.2919C102.475 33.3942 102.37 33.5376 102.299 33.7223C102.228 33.9055 102.193 34.1193 102.193 34.3636ZM106.32 36.0767C106.112 36.0767 105.924 36.0376 105.755 35.9595C105.586 35.88 105.452 35.7656 105.352 35.6165C105.253 35.4659 105.203 35.2841 105.203 35.071C105.203 34.8835 105.24 34.7315 105.314 34.6151C105.388 34.4972 105.487 34.4048 105.61 34.3381C105.734 34.2713 105.87 34.2216 106.019 34.1889C106.17 34.1548 106.321 34.1278 106.473 34.108C106.672 34.0824 106.833 34.0632 106.957 34.0504C107.082 34.0362 107.173 34.0128 107.23 33.9801C107.288 33.9474 107.317 33.8906 107.317 33.8097V33.7926C107.317 33.5824 107.259 33.419 107.144 33.3026C107.031 33.1861 106.858 33.1278 106.627 33.1278C106.387 33.1278 106.198 33.1804 106.062 33.2855C105.926 33.3906 105.83 33.5028 105.774 33.6222L105.297 33.4517C105.382 33.2528 105.496 33.098 105.638 32.9872C105.781 32.875 105.938 32.7969 106.107 32.7528C106.277 32.7074 106.445 32.6847 106.61 32.6847C106.715 32.6847 106.835 32.6974 106.972 32.723C107.11 32.7472 107.242 32.7976 107.37 32.8743C107.499 32.951 107.607 33.0668 107.692 33.2216C107.777 33.3764 107.82 33.5838 107.82 33.8438V36H107.317V35.5568H107.291C107.257 35.6278 107.2 35.7038 107.121 35.7848C107.041 35.8658 106.936 35.9347 106.803 35.9915C106.671 36.0483 106.51 36.0767 106.32 36.0767ZM106.396 35.625C106.595 35.625 106.763 35.5859 106.899 35.5078C107.037 35.4297 107.141 35.3288 107.21 35.2053C107.281 35.0817 107.317 34.9517 107.317 34.8153V34.3551C107.296 34.3807 107.249 34.4041 107.176 34.4254C107.105 34.4453 107.023 34.4631 106.929 34.4787C106.837 34.4929 106.747 34.5057 106.659 34.517C106.572 34.527 106.502 34.5355 106.448 34.5426C106.317 34.5597 106.195 34.5874 106.081 34.6257C105.969 34.6626 105.878 34.7187 105.808 34.794C105.74 34.8679 105.706 34.9687 105.706 35.0966C105.706 35.2713 105.771 35.4034 105.9 35.4929C106.031 35.581 106.196 35.625 106.396 35.625ZM109.24 34.0312V36H108.738V32.7273H109.223V33.2386H109.266C109.343 33.0724 109.459 32.9389 109.615 32.8381C109.772 32.7358 109.973 32.6847 110.221 32.6847C110.442 32.6847 110.636 32.7301 110.802 32.821C110.968 32.9105 111.098 33.0469 111.19 33.2301C111.282 33.4119 111.328 33.642 111.328 33.9205V36H110.826V33.9545C110.826 33.6974 110.759 33.4972 110.625 33.3537C110.492 33.2088 110.309 33.1364 110.076 33.1364C109.915 33.1364 109.772 33.1712 109.645 33.2408C109.52 33.3104 109.422 33.4119 109.349 33.5455C109.277 33.679 109.24 33.8409 109.24 34.0312ZM112.716 34.8068L112.708 34.1847H112.81L114.242 32.7273H114.864L113.338 34.2699H113.296L112.716 34.8068ZM112.247 36V31.6364H112.75V36H112.247ZM114.327 36L113.048 34.3807L113.406 34.0312L114.966 36H114.327ZM117.829 33.4602L117.377 33.5881C117.349 33.5128 117.307 33.4396 117.252 33.3686C117.198 33.2962 117.124 33.2365 117.03 33.1896C116.936 33.1428 116.816 33.1193 116.67 33.1193C116.47 33.1193 116.303 33.1655 116.169 33.2578C116.037 33.3487 115.971 33.4645 115.971 33.6051C115.971 33.7301 116.017 33.8288 116.108 33.9013C116.199 33.9737 116.341 34.0341 116.534 34.0824L117.02 34.2017C117.312 34.2727 117.53 34.3814 117.674 34.5277C117.817 34.6726 117.889 34.8594 117.889 35.0881C117.889 35.2756 117.835 35.4432 117.727 35.5909C117.62 35.7386 117.471 35.8551 117.279 35.9403C117.088 36.0256 116.865 36.0682 116.61 36.0682C116.277 36.0682 116 35.9957 115.782 35.8509C115.563 35.706 115.424 35.4943 115.366 35.2159L115.843 35.0966C115.889 35.2727 115.975 35.4048 116.101 35.4929C116.229 35.581 116.396 35.625 116.602 35.625C116.836 35.625 117.022 35.5753 117.16 35.4759C117.299 35.375 117.369 35.2543 117.369 35.1136C117.369 35 117.329 34.9048 117.25 34.8281C117.17 34.75 117.048 34.6918 116.883 34.6534L116.338 34.5256C116.038 34.4545 115.818 34.3445 115.677 34.1953C115.538 34.0447 115.468 33.8565 115.468 33.6307C115.468 33.446 115.52 33.2827 115.624 33.1406C115.729 32.9986 115.872 32.8871 116.052 32.8061C116.234 32.7251 116.44 32.6847 116.67 32.6847C116.994 32.6847 117.248 32.7557 117.433 32.8977C117.619 33.0398 117.751 33.2273 117.829 33.4602ZM122.368 36.0682C122.072 36.0682 121.813 35.9979 121.59 35.8572C121.369 35.7166 121.195 35.5199 121.07 35.267C120.947 35.0142 120.885 34.7187 120.885 34.3807C120.885 34.0398 120.947 33.7422 121.07 33.4879C121.195 33.2337 121.369 33.0362 121.59 32.8956C121.813 32.755 122.072 32.6847 122.368 32.6847C122.663 32.6847 122.922 32.755 123.143 32.8956C123.366 33.0362 123.54 33.2337 123.663 33.4879C123.788 33.7422 123.851 34.0398 123.851 34.3807C123.851 34.7187 123.788 35.0142 123.663 35.267C123.54 35.5199 123.366 35.7166 123.143 35.8572C122.922 35.9979 122.663 36.0682 122.368 36.0682ZM122.368 35.6165C122.592 35.6165 122.777 35.5589 122.922 35.4439C123.067 35.3288 123.174 35.1776 123.244 34.9901C123.313 34.8026 123.348 34.5994 123.348 34.3807C123.348 34.1619 123.313 33.9581 123.244 33.7692C123.174 33.5803 123.067 33.4276 122.922 33.3111C122.777 33.1946 122.592 33.1364 122.368 33.1364C122.143 33.1364 121.959 33.1946 121.814 33.3111C121.669 33.4276 121.562 33.5803 121.492 33.7692C121.423 33.9581 121.388 34.1619 121.388 34.3807C121.388 34.5994 121.423 34.8026 121.492 34.9901C121.562 35.1776 121.669 35.3288 121.814 35.4439C121.959 35.5589 122.143 35.6165 122.368 35.6165ZM126.076 32.7273V33.1534H124.312V32.7273H126.076ZM124.84 36V32.2756C124.84 32.0881 124.884 31.9318 124.972 31.8068C125.06 31.6818 125.175 31.5881 125.315 31.5256C125.456 31.4631 125.604 31.4318 125.76 31.4318C125.884 31.4318 125.985 31.4418 126.063 31.4616C126.141 31.4815 126.199 31.5 126.238 31.517L126.093 31.9517C126.067 31.9432 126.032 31.9325 125.986 31.9197C125.942 31.907 125.884 31.9006 125.812 31.9006C125.645 31.9006 125.525 31.9425 125.452 32.0263C125.379 32.1101 125.343 32.233 125.343 32.3949V36H124.84ZM130.596 32.7273V33.1534H128.9V32.7273H130.596ZM129.395 31.9432H129.898V35.0625C129.898 35.2045 129.918 35.3111 129.959 35.3821C130.002 35.4517 130.056 35.4986 130.121 35.5227C130.188 35.5455 130.258 35.5568 130.332 35.5568C130.388 35.5568 130.433 35.554 130.469 35.5483C130.504 35.5412 130.532 35.5355 130.554 35.5312L130.656 35.983C130.622 35.9957 130.574 36.0085 130.513 36.0213C130.452 36.0355 130.375 36.0426 130.281 36.0426C130.139 36.0426 130 36.0121 129.863 35.951C129.729 35.8899 129.616 35.7969 129.527 35.6719C129.439 35.5469 129.395 35.3892 129.395 35.1989V31.9432ZM131.926 34.0312V36H131.423V31.6364H131.926V33.2386H131.969C132.045 33.0696 132.16 32.9354 132.314 32.8359C132.469 32.7351 132.675 32.6847 132.932 32.6847C133.155 32.6847 133.35 32.7294 133.518 32.8189C133.685 32.907 133.815 33.0426 133.907 33.2259C134.001 33.4077 134.048 33.6392 134.048 33.9205V36H133.545V33.9545C133.545 33.6946 133.478 33.4936 133.343 33.3516C133.209 33.2081 133.024 33.1364 132.787 33.1364C132.622 33.1364 132.474 33.1712 132.344 33.2408C132.214 33.3104 132.112 33.4119 132.037 33.5455C131.963 33.679 131.926 33.8409 131.926 34.0312ZM136.34 36.0682C136.025 36.0682 135.753 35.9986 135.524 35.8594C135.297 35.7188 135.121 35.5227 134.998 35.2713C134.876 35.0185 134.815 34.7244 134.815 34.3892C134.815 34.054 134.876 33.7585 134.998 33.5028C135.121 33.2457 135.293 33.0455 135.513 32.902C135.735 32.7571 135.994 32.6847 136.289 32.6847C136.46 32.6847 136.628 32.7131 136.794 32.7699C136.96 32.8267 137.112 32.919 137.248 33.0469C137.384 33.1733 137.493 33.3409 137.574 33.5497C137.655 33.7585 137.695 34.0156 137.695 34.321V34.5341H135.173V34.0994H137.184C137.184 33.9148 137.147 33.75 137.073 33.6051C137.001 33.4602 136.897 33.3459 136.762 33.2621C136.629 33.1783 136.471 33.1364 136.289 33.1364C136.089 33.1364 135.915 33.1861 135.769 33.2855C135.624 33.3835 135.513 33.5114 135.435 33.669C135.357 33.8267 135.317 33.9957 135.317 34.1761V34.4659C135.317 34.7131 135.36 34.9226 135.445 35.0945C135.532 35.2649 135.652 35.3949 135.805 35.4844C135.959 35.5724 136.137 35.6165 136.34 35.6165C136.472 35.6165 136.592 35.598 136.698 35.5611C136.806 35.5227 136.899 35.4659 136.977 35.3906C137.055 35.3139 137.116 35.2187 137.158 35.1051L137.644 35.2415C137.593 35.4062 137.507 35.5511 137.386 35.6761C137.266 35.7997 137.116 35.8963 136.939 35.9659C136.761 36.0341 136.562 36.0682 136.34 36.0682ZM19.9886 38.6364V43H19.4773L17.0994 39.5739H17.0568V43H16.5284V38.6364H17.0398L19.4261 42.071H19.4688V38.6364H19.9886ZM22.35 43.0682C22.0346 43.0682 21.7626 42.9986 21.5339 42.8594C21.3066 42.7188 21.1312 42.5227 21.0076 42.2713C20.8855 42.0185 20.8244 41.7244 20.8244 41.3892C20.8244 41.054 20.8855 40.7585 21.0076 40.5028C21.1312 40.2457 21.3031 40.0455 21.5233 39.902C21.7449 39.7571 22.0034 39.6847 22.2988 39.6847C22.4693 39.6847 22.6376 39.7131 22.8038 39.7699C22.97 39.8267 23.1213 39.919 23.2576 40.0469C23.394 40.1733 23.5027 40.3409 23.5836 40.5497C23.6646 40.7585 23.7051 41.0156 23.7051 41.321V41.5341H21.1824V41.0994H23.1937C23.1937 40.9148 23.1568 40.75 23.0829 40.6051C23.0105 40.4602 22.9068 40.3459 22.7718 40.2621C22.6383 40.1783 22.4806 40.1364 22.2988 40.1364C22.0985 40.1364 21.9252 40.1861 21.7789 40.2855C21.6341 40.3835 21.5225 40.5114 21.4444 40.669C21.3663 40.8267 21.3272 40.9957 21.3272 41.1761V41.4659C21.3272 41.7131 21.3699 41.9226 21.4551 42.0945C21.5417 42.2649 21.6618 42.3949 21.8152 42.4844C21.9686 42.5724 22.1468 42.6165 22.35 42.6165C22.4821 42.6165 22.6014 42.598 22.7079 42.5611C22.8159 42.5227 22.9089 42.4659 22.987 42.3906C23.0652 42.3139 23.1255 42.2187 23.1681 42.1051L23.6539 42.2415C23.6028 42.4062 23.5169 42.5511 23.3961 42.6761C23.2754 42.7997 23.1262 42.8963 22.9487 42.9659C22.7711 43.0341 22.5716 43.0682 22.35 43.0682ZM27.0465 39.7273L25.8363 43H25.3249L24.1147 39.7273H24.6602L25.5636 42.3352H25.5977L26.5011 39.7273H27.0465ZM28.5737 43.0767C28.3663 43.0767 28.1781 43.0376 28.0091 42.9595C27.84 42.88 27.7058 42.7656 27.6064 42.6165C27.5069 42.4659 27.4572 42.2841 27.4572 42.071C27.4572 41.8835 27.4941 41.7315 27.568 41.6151C27.6419 41.4972 27.7406 41.4048 27.8642 41.3381C27.9877 41.2713 28.1241 41.2216 28.2733 41.1889C28.4238 41.1548 28.5751 41.1278 28.7271 41.108C28.926 41.0824 29.0872 41.0632 29.2108 41.0504C29.3358 41.0362 29.4267 41.0128 29.4835 40.9801C29.5417 40.9474 29.5708 40.8906 29.5708 40.8097V40.7926C29.5708 40.5824 29.5133 40.419 29.3983 40.3026C29.2846 40.1861 29.112 40.1278 28.8805 40.1278C28.6404 40.1278 28.4522 40.1804 28.3159 40.2855C28.1795 40.3906 28.0836 40.5028 28.0282 40.6222L27.551 40.4517C27.6362 40.2528 27.7498 40.098 27.8919 39.9872C28.0353 39.875 28.1916 39.7969 28.3606 39.7528C28.5311 39.7074 28.6987 39.6847 28.8635 39.6847C28.9686 39.6847 29.0893 39.6974 29.2257 39.723C29.3635 39.7472 29.4963 39.7976 29.6241 39.8743C29.7534 39.951 29.8606 40.0668 29.9458 40.2216C30.0311 40.3764 30.0737 40.5838 30.0737 40.8438V43H29.5708V42.5568H29.5453C29.5112 42.6278 29.4544 42.7038 29.3748 42.7848C29.2953 42.8658 29.1895 42.9347 29.0574 42.9915C28.9252 43.0483 28.764 43.0767 28.5737 43.0767ZM28.6504 42.625C28.8493 42.625 29.0169 42.5859 29.1532 42.5078C29.291 42.4297 29.3947 42.3288 29.4643 42.2053C29.5353 42.0817 29.5708 41.9517 29.5708 41.8153V41.3551C29.5495 41.3807 29.5027 41.4041 29.4302 41.4254C29.3592 41.4453 29.2768 41.4631 29.1831 41.4787C29.0907 41.4929 29.0005 41.5057 28.9125 41.517C28.8258 41.527 28.7555 41.5355 28.7015 41.5426C28.5708 41.5597 28.4487 41.5874 28.335 41.6257C28.2228 41.6626 28.1319 41.7187 28.0623 41.794C27.9941 41.8679 27.96 41.9687 27.96 42.0966C27.96 42.2713 28.0247 42.4034 28.1539 42.4929C28.2846 42.581 28.4501 42.625 28.6504 42.625ZM34.838 43V38.6364H36.3124C36.6533 38.6364 36.9331 38.6946 37.1519 38.8111C37.3706 38.9261 37.5326 39.0845 37.6377 39.2862C37.7428 39.4879 37.7954 39.7173 37.7954 39.9744C37.7954 40.2315 37.7428 40.4595 37.6377 40.6584C37.5326 40.8572 37.3714 41.0135 37.154 41.1271C36.9367 41.2393 36.659 41.2955 36.3209 41.2955H35.1278V40.8182H36.3039C36.5368 40.8182 36.7243 40.7841 36.8664 40.7159C37.0099 40.6477 37.1135 40.5511 37.1775 40.4261C37.2428 40.2997 37.2755 40.1491 37.2755 39.9744C37.2755 39.7997 37.2428 39.647 37.1775 39.5163C37.1121 39.3857 37.0077 39.2848 36.8643 39.2138C36.7208 39.1413 36.5312 39.1051 36.2954 39.1051H35.3664V43H34.838ZM36.892 41.0398L37.9658 43H37.3522L36.2954 41.0398H36.892ZM38.6077 43V39.7273H39.1105V43H38.6077ZM38.8634 39.1818C38.7654 39.1818 38.6808 39.1484 38.6098 39.0817C38.5402 39.0149 38.5054 38.9347 38.5054 38.8409C38.5054 38.7472 38.5402 38.6669 38.6098 38.6001C38.6808 38.5334 38.7654 38.5 38.8634 38.5C38.9614 38.5 39.0452 38.5334 39.1148 38.6001C39.1858 38.6669 39.2213 38.7472 39.2213 38.8409C39.2213 38.9347 39.1858 39.0149 39.1148 39.0817C39.0452 39.1484 38.9614 39.1818 38.8634 39.1818ZM42.7077 39.7273L41.4974 43H40.9861L39.7758 39.7273H40.3213L41.2247 42.3352H41.2588L42.1622 39.7273H42.7077ZM44.6263 43.0682C44.311 43.0682 44.039 42.9986 43.8103 42.8594C43.583 42.7188 43.4076 42.5227 43.284 42.2713C43.1618 42.0185 43.1008 41.7244 43.1008 41.3892C43.1008 41.054 43.1618 40.7585 43.284 40.5028C43.4076 40.2457 43.5795 40.0455 43.7996 39.902C44.0212 39.7571 44.2797 39.6847 44.5752 39.6847C44.7456 39.6847 44.914 39.7131 45.0802 39.7699C45.2464 39.8267 45.3976 39.919 45.534 40.0469C45.6704 40.1733 45.779 40.3409 45.86 40.5497C45.941 40.7585 45.9814 41.0156 45.9814 41.321V41.5341H43.4587V41.0994H45.4701C45.4701 40.9148 45.4331 40.75 45.3593 40.6051C45.2868 40.4602 45.1831 40.3459 45.0482 40.2621C44.9147 40.1783 44.757 40.1364 44.5752 40.1364C44.3749 40.1364 44.2016 40.1861 44.0553 40.2855C43.9104 40.3835 43.7989 40.5114 43.7208 40.669C43.6427 40.8267 43.6036 40.9957 43.6036 41.1761V41.4659C43.6036 41.7131 43.6462 41.9226 43.7314 42.0945C43.8181 42.2649 43.9381 42.3949 44.0915 42.4844C44.2449 42.5724 44.4232 42.6165 44.6263 42.6165C44.7584 42.6165 44.8778 42.598 44.9843 42.5611C45.0922 42.5227 45.1853 42.4659 45.2634 42.3906C45.3415 42.3139 45.4019 42.2187 45.4445 42.1051L45.9303 42.2415C45.8792 42.4062 45.7932 42.5511 45.6725 42.6761C45.5518 42.7997 45.4026 42.8963 45.2251 42.9659C45.0475 43.0341 44.8479 43.0682 44.6263 43.0682ZM46.7464 43V39.7273H47.2322V40.2216H47.2662C47.3259 40.0597 47.4339 39.9283 47.5901 39.8274C47.7464 39.7266 47.9225 39.6761 48.1185 39.6761C48.1555 39.6761 48.2016 39.6768 48.257 39.6783C48.3124 39.6797 48.3543 39.6818 48.3827 39.6847V40.196C48.3657 40.1918 48.3266 40.1854 48.2655 40.1768C48.2059 40.1669 48.1427 40.1619 48.0759 40.1619C47.9168 40.1619 47.7748 40.1953 47.6498 40.2621C47.5262 40.3274 47.4282 40.4183 47.3557 40.5348C47.2847 40.6499 47.2492 40.7812 47.2492 40.929V43H46.7464ZM52.9361 41.1591C52.9361 40.6222 53.0057 40.1286 53.1449 39.6783C53.2855 39.2266 53.4858 38.8111 53.7457 38.4318H54.1889C54.0866 38.5724 53.9908 38.7457 53.9013 38.9517C53.8132 39.1562 53.7358 39.3814 53.669 39.6271C53.6023 39.8714 53.5497 40.1243 53.5114 40.3857C53.4744 40.647 53.456 40.9048 53.456 41.1591C53.456 41.4972 53.4886 41.8402 53.554 42.1882C53.6193 42.5362 53.7074 42.8594 53.8182 43.1577C53.929 43.456 54.0526 43.6989 54.1889 43.8864H53.7457C53.4858 43.5071 53.2855 43.0923 53.1449 42.642C53.0057 42.1903 52.9361 41.696 52.9361 41.1591ZM55.4338 38.6364V43H54.9309V38.6364H55.4338ZM57.3178 43.0767C57.1104 43.0767 56.9222 43.0376 56.7532 42.9595C56.5842 42.88 56.4499 42.7656 56.3505 42.6165C56.2511 42.4659 56.2013 42.2841 56.2013 42.071C56.2013 41.8835 56.2383 41.7315 56.3121 41.6151C56.386 41.4972 56.4847 41.4048 56.6083 41.3381C56.7319 41.2713 56.8683 41.2216 57.0174 41.1889C57.168 41.1548 57.3192 41.1278 57.4712 41.108C57.6701 41.0824 57.8313 41.0632 57.9549 41.0504C58.0799 41.0362 58.1708 41.0128 58.2276 40.9801C58.2859 40.9474 58.315 40.8906 58.315 40.8097V40.7926C58.315 40.5824 58.2575 40.419 58.1424 40.3026C58.0288 40.1861 57.8562 40.1278 57.6246 40.1278C57.3846 40.1278 57.1964 40.1804 57.06 40.2855C56.9237 40.3906 56.8278 40.5028 56.7724 40.6222L56.2951 40.4517C56.3803 40.2528 56.494 40.098 56.636 39.9872C56.7795 39.875 56.9357 39.7969 57.1048 39.7528C57.2752 39.7074 57.4428 39.6847 57.6076 39.6847C57.7127 39.6847 57.8335 39.6974 57.9698 39.723C58.1076 39.7472 58.2404 39.7976 58.3683 39.8743C58.4975 39.951 58.6048 40.0668 58.69 40.2216C58.7752 40.3764 58.8178 40.5838 58.8178 40.8438V43H58.315V42.5568H58.2894C58.2553 42.6278 58.1985 42.7038 58.119 42.7848C58.0394 42.8658 57.9336 42.9347 57.8015 42.9915C57.6694 43.0483 57.5082 43.0767 57.3178 43.0767ZM57.3945 42.625C57.5934 42.625 57.761 42.5859 57.8974 42.5078C58.0352 42.4297 58.1388 42.3288 58.2085 42.2053C58.2795 42.0817 58.315 41.9517 58.315 41.8153V41.3551C58.2937 41.3807 58.2468 41.4041 58.1744 41.4254C58.1033 41.4453 58.021 41.4631 57.9272 41.4787C57.8349 41.4929 57.7447 41.5057 57.6566 41.517C57.57 41.527 57.4996 41.5355 57.4457 41.5426C57.315 41.5597 57.1928 41.5874 57.0792 41.6257C56.967 41.6626 56.8761 41.7187 56.8065 41.794C56.7383 41.8679 56.7042 41.9687 56.7042 42.0966C56.7042 42.2713 56.7688 42.4034 56.8981 42.4929C57.0288 42.581 57.1942 42.625 57.3945 42.625ZM61.1589 39.7273V40.1534H59.4629V39.7273H61.1589ZM59.9572 38.9432H60.46V42.0625C60.46 42.2045 60.4806 42.3111 60.5218 42.3821C60.5645 42.4517 60.6184 42.4986 60.6838 42.5227C60.7505 42.5455 60.8208 42.5568 60.8947 42.5568C60.9501 42.5568 60.9956 42.554 61.0311 42.5483C61.0666 42.5412 61.095 42.5355 61.1163 42.5312L61.2186 42.983C61.1845 42.9957 61.1369 43.0085 61.0758 43.0213C61.0147 43.0355 60.9373 43.0426 60.8436 43.0426C60.7015 43.0426 60.5623 43.0121 60.426 42.951C60.291 42.8899 60.1788 42.7969 60.0893 42.6719C60.0012 42.5469 59.9572 42.3892 59.9572 42.1989V38.9432ZM63.2523 43.0682C62.937 43.0682 62.665 42.9986 62.4363 42.8594C62.209 42.7188 62.0336 42.5227 61.91 42.2713C61.7878 42.0185 61.7267 41.7244 61.7267 41.3892C61.7267 41.054 61.7878 40.7585 61.91 40.5028C62.0336 40.2457 62.2054 40.0455 62.4256 39.902C62.6472 39.7571 62.9057 39.6847 63.2012 39.6847C63.3716 39.6847 63.54 39.7131 63.7061 39.7699C63.8723 39.8267 64.0236 39.919 64.16 40.0469C64.2963 40.1733 64.405 40.3409 64.486 40.5497C64.5669 40.7585 64.6074 41.0156 64.6074 41.321V41.5341H62.0847V41.0994H64.0961C64.0961 40.9148 64.0591 40.75 63.9853 40.6051C63.9128 40.4602 63.8091 40.3459 63.6742 40.2621C63.5407 40.1783 63.383 40.1364 63.2012 40.1364C63.0009 40.1364 62.8276 40.1861 62.6813 40.2855C62.5364 40.3835 62.4249 40.5114 62.3468 40.669C62.2686 40.8267 62.2296 40.9957 62.2296 41.1761V41.4659C62.2296 41.7131 62.2722 41.9226 62.3574 42.0945C62.4441 42.2649 62.5641 42.3949 62.7175 42.4844C62.8709 42.5724 63.0492 42.6165 63.2523 42.6165C63.3844 42.6165 63.5037 42.598 63.6103 42.5611C63.7182 42.5227 63.8113 42.4659 63.8894 42.3906C63.9675 42.3139 64.0279 42.2187 64.0705 42.1051L64.5563 42.2415C64.5051 42.4062 64.4192 42.5511 64.2985 42.6761C64.1777 42.7997 64.0286 42.8963 63.851 42.9659C63.6735 43.0341 63.4739 43.0682 63.2523 43.0682ZM65.3723 43V39.7273H65.8581V40.2216H65.8922C65.9519 40.0597 66.0598 39.9283 66.2161 39.8274C66.3723 39.7266 66.5485 39.6761 66.7445 39.6761C66.7814 39.6761 66.8276 39.6768 66.883 39.6783C66.9384 39.6797 66.9803 39.6818 67.0087 39.6847V40.196C66.9917 40.1918 66.9526 40.1854 66.8915 40.1768C66.8319 40.1669 66.7686 40.1619 66.7019 40.1619C66.5428 40.1619 66.4007 40.1953 66.2757 40.2621C66.1522 40.3274 66.0542 40.4183 65.9817 40.5348C65.9107 40.6499 65.8752 40.7812 65.8752 40.929V43H65.3723ZM71.3831 43V39.7273H71.8689V40.2216H71.903C71.9626 40.0597 72.0706 39.9283 72.2268 39.8274C72.3831 39.7266 72.5592 39.6761 72.7552 39.6761C72.7922 39.6761 72.8383 39.6768 72.8937 39.6783C72.9491 39.6797 72.991 39.6818 73.0194 39.6847V40.196C73.0024 40.1918 72.9633 40.1854 72.9023 40.1768C72.8426 40.1669 72.7794 40.1619 72.7126 40.1619C72.5535 40.1619 72.4115 40.1953 72.2865 40.2621C72.1629 40.3274 72.0649 40.4183 71.9925 40.5348C71.9214 40.6499 71.8859 40.7812 71.8859 40.929V43H71.3831ZM74.8881 43.0682C74.5727 43.0682 74.3007 42.9986 74.072 42.8594C73.8447 42.7188 73.6693 42.5227 73.5457 42.2713C73.4236 42.0185 73.3625 41.7244 73.3625 41.3892C73.3625 41.054 73.4236 40.7585 73.5457 40.5028C73.6693 40.2457 73.8412 40.0455 74.0613 39.902C74.2829 39.7571 74.5415 39.6847 74.8369 39.6847C75.0074 39.6847 75.1757 39.7131 75.3419 39.7699C75.5081 39.8267 75.6594 39.919 75.7957 40.0469C75.9321 40.1733 76.0407 40.3409 76.1217 40.5497C76.2027 40.7585 76.2432 41.0156 76.2432 41.321V41.5341H73.7204V41.0994H75.7318C75.7318 40.9148 75.6949 40.75 75.621 40.6051C75.5486 40.4602 75.4449 40.3459 75.3099 40.2621C75.1764 40.1783 75.0187 40.1364 74.8369 40.1364C74.6366 40.1364 74.4633 40.1861 74.317 40.2855C74.1721 40.3835 74.0606 40.5114 73.9825 40.669C73.9044 40.8267 73.8653 40.9957 73.8653 41.1761V41.4659C73.8653 41.7131 73.9079 41.9226 73.9932 42.0945C74.0798 42.2649 74.1998 42.3949 74.3532 42.4844C74.5067 42.5724 74.6849 42.6165 74.8881 42.6165C75.0202 42.6165 75.1395 42.598 75.246 42.5611C75.354 42.5227 75.447 42.4659 75.5251 42.3906C75.6032 42.3139 75.6636 42.2187 75.7062 42.1051L76.192 42.2415C76.1409 42.4062 76.055 42.5511 75.9342 42.6761C75.8135 42.7997 75.6643 42.8963 75.4868 42.9659C75.3092 43.0341 75.1096 43.0682 74.8881 43.0682ZM77.0763 43V38.6364H77.5791V40.2472H77.6217C77.6586 40.1903 77.7098 40.1179 77.7751 40.0298C77.8419 39.9403 77.9371 39.8608 78.0606 39.7912C78.1856 39.7202 78.3547 39.6847 78.5677 39.6847C78.8433 39.6847 79.0862 39.7536 79.2964 39.8913C79.5067 40.0291 79.6707 40.2244 79.7886 40.4773C79.9065 40.7301 79.9655 41.0284 79.9655 41.3722C79.9655 41.7188 79.9065 42.0192 79.7886 42.2734C79.6707 42.5263 79.5074 42.7223 79.2986 42.8615C79.0898 42.9993 78.849 43.0682 78.5763 43.0682C78.366 43.0682 78.1977 43.0334 78.0713 42.9638C77.9449 42.8928 77.8476 42.8125 77.7794 42.723C77.7112 42.6321 77.6586 42.5568 77.6217 42.4972H77.5621V43H77.0763ZM77.5706 41.3636C77.5706 41.6108 77.6068 41.8288 77.6792 42.0178C77.7517 42.2053 77.8575 42.3523 77.9967 42.4588C78.1359 42.5639 78.3064 42.6165 78.5081 42.6165C78.7183 42.6165 78.8937 42.5611 79.0344 42.4503C79.1764 42.3381 79.2829 42.1875 79.354 41.9986C79.4264 41.8082 79.4626 41.5966 79.4626 41.3636C79.4626 41.1335 79.4271 40.9261 79.3561 40.7415C79.2865 40.5554 79.1807 40.4084 79.0386 40.3004C78.898 40.1911 78.7211 40.1364 78.5081 40.1364C78.3035 40.1364 78.1317 40.1882 77.9925 40.2919C77.8532 40.3942 77.7481 40.5376 77.6771 40.7223C77.6061 40.9055 77.5706 41.1193 77.5706 41.3636ZM82.7971 41.6619V39.7273H83.3V43H82.7971V42.446H82.7631C82.6863 42.6122 82.567 42.7536 82.4051 42.87C82.2432 42.9851 82.0386 43.0426 81.7915 43.0426C81.5869 43.0426 81.4051 42.9979 81.246 42.9084C81.0869 42.8175 80.9619 42.6811 80.871 42.4993C80.7801 42.3161 80.7346 42.0852 80.7346 41.8068V39.7273H81.2375V41.7727C81.2375 42.0114 81.3042 42.2017 81.4378 42.3438C81.5727 42.4858 81.7446 42.5568 81.9534 42.5568C82.0784 42.5568 82.2055 42.5249 82.3348 42.4609C82.4655 42.397 82.5748 42.299 82.6629 42.1669C82.7524 42.0348 82.7971 41.8665 82.7971 41.6619ZM84.221 43V39.7273H84.7238V43H84.221ZM84.4767 39.1818C84.3786 39.1818 84.2941 39.1484 84.2231 39.0817C84.1535 39.0149 84.1187 38.9347 84.1187 38.8409C84.1187 38.7472 84.1535 38.6669 84.2231 38.6001C84.2941 38.5334 84.3786 38.5 84.4767 38.5C84.5747 38.5 84.6585 38.5334 84.7281 38.6001C84.7991 38.6669 84.8346 38.7472 84.8346 38.8409C84.8346 38.9347 84.7991 39.0149 84.7281 39.0817C84.6585 39.1484 84.5747 39.1818 84.4767 39.1818ZM86.1476 38.6364V43H85.6448V38.6364H86.1476ZM88.4919 39.7273V40.1534H86.7959V39.7273H88.4919ZM87.2902 38.9432H87.7931V42.0625C87.7931 42.2045 87.8137 42.3111 87.8548 42.3821C87.8975 42.4517 87.9514 42.4986 88.0168 42.5227C88.0835 42.5455 88.1539 42.5568 88.2277 42.5568C88.2831 42.5568 88.3286 42.554 88.3641 42.5483C88.3996 42.5412 88.428 42.5355 88.4493 42.5312L88.5516 42.983C88.5175 42.9957 88.4699 43.0085 88.4088 43.0213C88.3477 43.0355 88.2703 43.0426 88.1766 43.0426C88.0345 43.0426 87.8953 43.0121 87.759 42.951C87.624 42.8899 87.5118 42.7969 87.4223 42.6719C87.3343 42.5469 87.2902 42.3892 87.2902 42.1989V38.9432ZM90.3222 41.1591C90.3222 41.696 90.2519 42.1903 90.1112 42.642C89.972 43.0923 89.7725 43.5071 89.5125 43.8864H89.0693C89.1716 43.7457 89.2668 43.5724 89.3548 43.3665C89.4443 43.1619 89.5225 42.9375 89.5892 42.6932C89.656 42.4474 89.7078 42.1939 89.7448 41.9325C89.7831 41.6697 89.8023 41.4119 89.8023 41.1591C89.8023 40.821 89.7696 40.478 89.7043 40.13C89.6389 39.782 89.5509 39.4588 89.4401 39.1605C89.3293 38.8622 89.2057 38.6193 89.0693 38.4318H89.5125C89.7725 38.8111 89.972 39.2266 90.1112 39.6783C90.2519 40.1286 90.3222 40.6222 90.3222 41.1591ZM93.8511 43L92.854 39.7273H93.3824L94.0898 42.233H94.1238L94.8227 39.7273H95.3596L96.05 42.2244H96.0841L96.7915 39.7273H97.3199L96.3227 43H95.8284L95.1125 40.4858H95.0613L94.3454 43H93.8511ZM97.9846 43V39.7273H98.4875V43H97.9846ZM98.2403 39.1818C98.1423 39.1818 98.0578 39.1484 97.9868 39.0817C97.9172 39.0149 97.8824 38.9347 97.8824 38.8409C97.8824 38.7472 97.9172 38.6669 97.9868 38.6001C98.0578 38.5334 98.1423 38.5 98.2403 38.5C98.3383 38.5 98.4221 38.5334 98.4917 38.6001C98.5628 38.6669 98.5983 38.7472 98.5983 38.8409C98.5983 38.9347 98.5628 39.0149 98.4917 39.0817C98.4221 39.1484 98.3383 39.1818 98.2403 39.1818ZM100.832 39.7273V40.1534H99.1357V39.7273H100.832ZM99.6301 38.9432H100.133V42.0625C100.133 42.2045 100.153 42.3111 100.195 42.3821C100.237 42.4517 100.291 42.4986 100.357 42.5227C100.423 42.5455 100.494 42.5568 100.568 42.5568C100.623 42.5568 100.668 42.554 100.704 42.5483C100.739 42.5412 100.768 42.5355 100.789 42.5312L100.891 42.983C100.857 42.9957 100.81 43.0085 100.749 43.0213C100.688 43.0355 100.61 43.0426 100.516 43.0426C100.374 43.0426 100.235 43.0121 100.099 42.951C99.9639 42.8899 99.8517 42.7969 99.7622 42.6719C99.6741 42.5469 99.6301 42.3892 99.6301 42.1989V38.9432ZM102.161 41.0312V43H101.658V38.6364H102.161V40.2386H102.204C102.281 40.0696 102.396 39.9354 102.549 39.8359C102.704 39.7351 102.91 39.6847 103.167 39.6847C103.39 39.6847 103.585 39.7294 103.753 39.8189C103.921 39.907 104.051 40.0426 104.143 40.2259C104.237 40.4077 104.283 40.6392 104.283 40.9205V43H103.781V40.9545C103.781 40.6946 103.713 40.4936 103.578 40.3516C103.445 40.2081 103.259 40.1364 103.022 40.1364C102.857 40.1364 102.71 40.1712 102.579 40.2408C102.45 40.3104 102.347 40.4119 102.272 40.5455C102.198 40.679 102.161 40.8409 102.161 41.0312ZM111.3 40.4602L110.848 40.5881C110.82 40.5128 110.778 40.4396 110.722 40.3686C110.669 40.2962 110.595 40.2365 110.501 40.1896C110.407 40.1428 110.287 40.1193 110.141 40.1193C109.941 40.1193 109.774 40.1655 109.64 40.2578C109.508 40.3487 109.442 40.4645 109.442 40.6051C109.442 40.7301 109.487 40.8288 109.578 40.9013C109.669 40.9737 109.811 41.0341 110.004 41.0824L110.49 41.2017C110.783 41.2727 111.001 41.3814 111.144 41.5277C111.288 41.6726 111.36 41.8594 111.36 42.0881C111.36 42.2756 111.306 42.4432 111.198 42.5909C111.091 42.7386 110.942 42.8551 110.75 42.9403C110.558 43.0256 110.335 43.0682 110.081 43.0682C109.747 43.0682 109.471 42.9957 109.252 42.8509C109.034 42.706 108.895 42.4943 108.837 42.2159L109.314 42.0966C109.36 42.2727 109.445 42.4048 109.572 42.4929C109.7 42.581 109.867 42.625 110.073 42.625C110.307 42.625 110.493 42.5753 110.631 42.4759C110.77 42.375 110.84 42.2543 110.84 42.1136C110.84 42 110.8 41.9048 110.72 41.8281C110.641 41.75 110.519 41.6918 110.354 41.6534L109.808 41.5256C109.509 41.4545 109.289 41.3445 109.148 41.1953C109.009 41.0447 108.939 40.8565 108.939 40.6307C108.939 40.446 108.991 40.2827 109.095 40.1406C109.2 39.9986 109.343 39.8871 109.523 39.8061C109.705 39.7251 109.911 39.6847 110.141 39.6847C110.465 39.6847 110.719 39.7557 110.904 39.8977C111.09 40.0398 111.222 40.2273 111.3 40.4602ZM113.446 43.0682C113.139 43.0682 112.875 42.9957 112.653 42.8509C112.432 42.706 112.261 42.5064 112.142 42.2521C112.023 41.9979 111.963 41.7074 111.963 41.3807C111.963 41.0483 112.024 40.755 112.146 40.5007C112.27 40.245 112.442 40.0455 112.662 39.902C112.884 39.7571 113.142 39.6847 113.438 39.6847C113.668 39.6847 113.875 39.7273 114.06 39.8125C114.244 39.8977 114.396 40.017 114.513 40.1705C114.631 40.3239 114.705 40.5028 114.733 40.7074H114.23C114.192 40.5582 114.107 40.4261 113.974 40.3111C113.844 40.1946 113.668 40.1364 113.446 40.1364C113.25 40.1364 113.078 40.1875 112.93 40.2898C112.784 40.3906 112.67 40.5334 112.587 40.718C112.506 40.9013 112.466 41.1165 112.466 41.3636C112.466 41.6165 112.506 41.8366 112.585 42.0241C112.666 42.2116 112.78 42.3572 112.926 42.4609C113.074 42.5646 113.247 42.6165 113.446 42.6165C113.577 42.6165 113.695 42.5938 113.802 42.5483C113.908 42.5028 113.999 42.4375 114.072 42.3523C114.146 42.267 114.199 42.1648 114.23 42.0455H114.733C114.705 42.2386 114.634 42.4126 114.522 42.5675C114.411 42.7209 114.264 42.843 114.081 42.9339C113.899 43.0234 113.688 43.0682 113.446 43.0682ZM117.531 41.6619V39.7273H118.033V43H117.531V42.446H117.496C117.42 42.6122 117.3 42.7536 117.138 42.87C116.977 42.9851 116.772 43.0426 116.525 43.0426C116.32 43.0426 116.138 42.9979 115.979 42.9084C115.82 42.8175 115.695 42.6811 115.604 42.4993C115.513 42.3161 115.468 42.0852 115.468 41.8068V39.7273H115.971V41.7727C115.971 42.0114 116.038 42.2017 116.171 42.3438C116.306 42.4858 116.478 42.5568 116.687 42.5568C116.812 42.5568 116.939 42.5249 117.068 42.4609C117.199 42.397 117.308 42.299 117.396 42.1669C117.486 42.0348 117.531 41.8665 117.531 41.6619ZM119.457 38.6364V43H118.954V38.6364H119.457ZM120.378 44.2273V39.7273H120.864V40.2472H120.924C120.961 40.1903 121.012 40.1179 121.077 40.0298C121.144 39.9403 121.239 39.8608 121.363 39.7912C121.488 39.7202 121.657 39.6847 121.87 39.6847C122.145 39.6847 122.388 39.7536 122.598 39.8913C122.809 40.0291 122.973 40.2244 123.091 40.4773C123.208 40.7301 123.267 41.0284 123.267 41.3722C123.267 41.7188 123.208 42.0192 123.091 42.2734C122.973 42.5263 122.809 42.7223 122.6 42.8615C122.392 42.9993 122.151 43.0682 121.878 43.0682C121.668 43.0682 121.5 43.0334 121.373 42.9638C121.247 42.8928 121.15 42.8125 121.081 42.723C121.013 42.6321 120.961 42.5568 120.924 42.4972H120.881V44.2273H120.378ZM120.873 41.3636C120.873 41.6108 120.909 41.8288 120.981 42.0178C121.054 42.2053 121.159 42.3523 121.299 42.4588C121.438 42.5639 121.608 42.6165 121.81 42.6165C122.02 42.6165 122.196 42.5611 122.336 42.4503C122.478 42.3381 122.585 42.1875 122.656 41.9986C122.728 41.8082 122.765 41.5966 122.765 41.3636C122.765 41.1335 122.729 40.9261 122.658 40.7415C122.588 40.5554 122.483 40.4084 122.341 40.3004C122.2 40.1911 122.023 40.1364 121.81 40.1364C121.605 40.1364 121.434 40.1882 121.294 40.2919C121.155 40.3942 121.05 40.5376 120.979 40.7223C120.908 40.9055 120.873 41.1193 120.873 41.3636ZM125.458 39.7273V40.1534H123.762V39.7273H125.458ZM124.256 38.9432H124.759V42.0625C124.759 42.2045 124.779 42.3111 124.821 42.3821C124.863 42.4517 124.917 42.4986 124.983 42.5227C125.049 42.5455 125.12 42.5568 125.194 42.5568C125.249 42.5568 125.294 42.554 125.33 42.5483C125.365 42.5412 125.394 42.5355 125.415 42.5312L125.517 42.983C125.483 42.9957 125.436 43.0085 125.375 43.0213C125.314 43.0355 125.236 43.0426 125.142 43.0426C125 43.0426 124.861 43.0121 124.725 42.951C124.59 42.8899 124.478 42.7969 124.388 42.6719C124.3 42.5469 124.256 42.3892 124.256 42.1989V38.9432ZM128.277 41.6619V39.7273H128.779V43H128.277V42.446H128.243C128.166 42.6122 128.047 42.7536 127.885 42.87C127.723 42.9851 127.518 43.0426 127.271 43.0426C127.066 43.0426 126.885 42.9979 126.725 42.9084C126.566 42.8175 126.441 42.6811 126.35 42.4993C126.26 42.3161 126.214 42.0852 126.214 41.8068V39.7273H126.717V41.7727C126.717 42.0114 126.784 42.2017 126.917 42.3438C127.052 42.4858 127.224 42.5568 127.433 42.5568C127.558 42.5568 127.685 42.5249 127.814 42.4609C127.945 42.397 128.054 42.299 128.142 42.1669C128.232 42.0348 128.277 41.8665 128.277 41.6619ZM129.7 43V39.7273H130.186V40.2216H130.22C130.28 40.0597 130.388 39.9283 130.544 39.8274C130.7 39.7266 130.877 39.6761 131.073 39.6761C131.11 39.6761 131.156 39.6768 131.211 39.6783C131.267 39.6797 131.308 39.6818 131.337 39.6847V40.196C131.32 40.1918 131.281 40.1854 131.22 40.1768C131.16 40.1669 131.097 40.1619 131.03 40.1619C130.871 40.1619 130.729 40.1953 130.604 40.2621C130.48 40.3274 130.382 40.4183 130.31 40.5348C130.239 40.6499 130.203 40.7812 130.203 40.929V43H129.7ZM133.205 43.0682C132.89 43.0682 132.618 42.9986 132.389 42.8594C132.162 42.7188 131.987 42.5227 131.863 42.2713C131.741 42.0185 131.68 41.7244 131.68 41.3892C131.68 41.054 131.741 40.7585 131.863 40.5028C131.987 40.2457 132.159 40.0455 132.379 39.902C132.6 39.7571 132.859 39.6847 133.154 39.6847C133.325 39.6847 133.493 39.7131 133.659 39.7699C133.825 39.8267 133.977 39.919 134.113 40.0469C134.249 40.1733 134.358 40.3409 134.439 40.5497C134.52 40.7585 134.561 41.0156 134.561 41.321V41.5341H132.038V41.0994H134.049C134.049 40.9148 134.012 40.75 133.938 40.6051C133.866 40.4602 133.762 40.3459 133.627 40.2621C133.494 40.1783 133.336 40.1364 133.154 40.1364C132.954 40.1364 132.781 40.1861 132.634 40.2855C132.49 40.3835 132.378 40.5114 132.3 40.669C132.222 40.8267 132.183 40.9957 132.183 41.1761V41.4659C132.183 41.7131 132.225 41.9226 132.311 42.0945C132.397 42.2649 132.517 42.3949 132.671 42.4844C132.824 42.5724 133.002 42.6165 133.205 42.6165C133.338 42.6165 133.457 42.598 133.563 42.5611C133.671 42.5227 133.764 42.4659 133.843 42.3906C133.921 42.3139 133.981 42.2187 134.024 42.1051L134.509 42.2415C134.458 42.4062 134.372 42.5511 134.252 42.6761C134.131 42.7997 133.982 42.8963 133.804 42.9659C133.627 43.0341 133.427 43.0682 133.205 43.0682ZM137.644 40.4602L137.192 40.5881C137.164 40.5128 137.122 40.4396 137.066 40.3686C137.012 40.2962 136.938 40.2365 136.845 40.1896C136.751 40.1428 136.631 40.1193 136.485 40.1193C136.284 40.1193 136.117 40.1655 135.984 40.2578C135.852 40.3487 135.786 40.4645 135.786 40.6051C135.786 40.7301 135.831 40.8288 135.922 40.9013C136.013 40.9737 136.155 41.0341 136.348 41.0824L136.834 41.2017C137.127 41.2727 137.345 41.3814 137.488 41.5277C137.632 41.6726 137.703 41.8594 137.703 42.0881C137.703 42.2756 137.649 42.4432 137.541 42.5909C137.435 42.7386 137.286 42.8551 137.094 42.9403C136.902 43.0256 136.679 43.0682 136.425 43.0682C136.091 43.0682 135.815 42.9957 135.596 42.8509C135.377 42.706 135.239 42.4943 135.181 42.2159L135.658 42.0966C135.703 42.2727 135.789 42.4048 135.916 42.4929C136.044 42.581 136.21 42.625 136.416 42.625C136.651 42.625 136.837 42.5753 136.975 42.4759C137.114 42.375 137.183 42.2543 137.183 42.1136C137.183 42 137.144 41.9048 137.064 41.8281C136.985 41.75 136.862 41.6918 136.698 41.6534L136.152 41.5256C135.852 41.4545 135.632 41.3445 135.492 41.1953C135.352 41.0447 135.283 40.8565 135.283 40.6307C135.283 40.446 135.335 40.2827 135.438 40.1406C135.544 39.9986 135.686 39.8871 135.867 39.8061C136.048 39.7251 136.254 39.6847 136.485 39.6847C136.808 39.6847 137.063 39.7557 137.247 39.8977C137.433 40.0398 137.566 40.2273 137.644 40.4602ZM17.4233 50.0767C17.2159 50.0767 17.0277 50.0376 16.8587 49.9595C16.6896 49.88 16.5554 49.7656 16.456 49.6165C16.3565 49.4659 16.3068 49.2841 16.3068 49.071C16.3068 48.8835 16.3438 48.7315 16.4176 48.6151C16.4915 48.4972 16.5902 48.4048 16.7138 48.3381C16.8374 48.2713 16.9737 48.2216 17.1229 48.1889C17.2734 48.1548 17.4247 48.1278 17.5767 48.108C17.7756 48.0824 17.9368 48.0632 18.0604 48.0504C18.1854 48.0362 18.2763 48.0128 18.3331 47.9801C18.3913 47.9474 18.4205 47.8906 18.4205 47.8097V47.7926C18.4205 47.5824 18.3629 47.419 18.2479 47.3026C18.1342 47.1861 17.9616 47.1278 17.7301 47.1278C17.4901 47.1278 17.3018 47.1804 17.1655 47.2855C17.0291 47.3906 16.9332 47.5028 16.8778 47.6222L16.4006 47.4517C16.4858 47.2528 16.5994 47.098 16.7415 46.9872C16.8849 46.875 17.0412 46.7969 17.2102 46.7528C17.3807 46.7074 17.5483 46.6847 17.7131 46.6847C17.8182 46.6847 17.9389 46.6974 18.0753 46.723C18.2131 46.7472 18.3459 46.7976 18.4737 46.8743C18.603 46.951 18.7102 47.0668 18.7955 47.2216C18.8807 47.3764 18.9233 47.5838 18.9233 47.8438V50H18.4205V49.5568H18.3949C18.3608 49.6278 18.304 49.7038 18.2244 49.7848C18.1449 49.8658 18.0391 49.9347 17.907 49.9915C17.7749 50.0483 17.6136 50.0767 17.4233 50.0767ZM17.5 49.625C17.6989 49.625 17.8665 49.5859 18.0028 49.5078C18.1406 49.4297 18.2443 49.3288 18.3139 49.2053C18.3849 49.0817 18.4205 48.9517 18.4205 48.8153V48.3551C18.3991 48.3807 18.3523 48.4041 18.2798 48.4254C18.2088 48.4453 18.1264 48.4631 18.0327 48.4787C17.9403 48.4929 17.8501 48.5057 17.7621 48.517C17.6754 48.527 17.6051 48.5355 17.5511 48.5426C17.4205 48.5597 17.2983 48.5874 17.1847 48.6257C17.0724 48.6626 16.9815 48.7187 16.9119 48.794C16.8438 48.8679 16.8097 48.9687 16.8097 49.0966C16.8097 49.2713 16.8743 49.4034 17.0036 49.4929C17.1342 49.581 17.2997 49.625 17.5 49.625ZM20.3439 48.0312V50H19.8411V46.7273H20.3269V47.2386H20.3695C20.4462 47.0724 20.5627 46.9389 20.7189 46.8381C20.8752 46.7358 21.0769 46.6847 21.324 46.6847C21.5456 46.6847 21.7395 46.7301 21.9057 46.821C22.0719 46.9105 22.2012 47.0469 22.2935 47.2301C22.3858 47.4119 22.432 47.642 22.432 47.9205V50H21.9292V47.9545C21.9292 47.6974 21.8624 47.4972 21.7289 47.3537C21.5953 47.2088 21.4121 47.1364 21.1792 47.1364C21.0186 47.1364 20.8752 47.1712 20.7488 47.2408C20.6238 47.3104 20.525 47.4119 20.4526 47.5455C20.3801 47.679 20.3439 47.8409 20.3439 48.0312ZM24.5866 50.0682C24.3139 50.0682 24.0732 49.9993 23.8643 49.8615C23.6555 49.7223 23.4922 49.5263 23.3743 49.2734C23.2564 49.0192 23.1974 48.7188 23.1974 48.3722C23.1974 48.0284 23.2564 47.7301 23.3743 47.4773C23.4922 47.2244 23.6563 47.0291 23.8665 46.8913C24.0767 46.7536 24.3196 46.6847 24.5952 46.6847C24.8082 46.6847 24.9766 46.7202 25.1001 46.7912C25.2251 46.8608 25.3203 46.9403 25.3857 47.0298C25.4524 47.1179 25.5043 47.1903 25.5412 47.2472H25.5838V45.6364H26.0866V50H25.6009V49.4972H25.5412C25.5043 49.5568 25.4517 49.6321 25.3835 49.723C25.3153 49.8125 25.218 49.8928 25.0916 49.9638C24.9652 50.0334 24.7969 50.0682 24.5866 50.0682ZM24.6548 49.6165C24.8565 49.6165 25.027 49.5639 25.1662 49.4588C25.3054 49.3523 25.4112 49.2053 25.4837 49.0178C25.5561 48.8288 25.5923 48.6108 25.5923 48.3636C25.5923 48.1193 25.5568 47.9055 25.4858 47.7223C25.4148 47.5376 25.3097 47.3942 25.1705 47.2919C25.0313 47.1882 24.8594 47.1364 24.6548 47.1364C24.4418 47.1364 24.2642 47.1911 24.1222 47.3004C23.9815 47.4084 23.8757 47.5554 23.8047 47.7415C23.7351 47.9261 23.7003 48.1335 23.7003 48.3636C23.7003 48.5966 23.7358 48.8082 23.8068 48.9986C23.8793 49.1875 23.9858 49.3381 24.1264 49.4503C24.2685 49.5611 24.4446 49.6165 24.6548 49.6165ZM30.1882 46.7273V47.1534H28.4922V46.7273H30.1882ZM28.9865 45.9432H29.4893V49.0625C29.4893 49.2045 29.5099 49.3111 29.5511 49.3821C29.5938 49.4517 29.6477 49.4986 29.7131 49.5227C29.7798 49.5455 29.8501 49.5568 29.924 49.5568C29.9794 49.5568 30.0249 49.554 30.0604 49.5483C30.0959 49.5412 30.1243 49.5355 30.1456 49.5312L30.2479 49.983C30.2138 49.9957 30.1662 50.0085 30.1051 50.0213C30.044 50.0355 29.9666 50.0426 29.8729 50.0426C29.7308 50.0426 29.5916 50.0121 29.4553 49.951C29.3203 49.8899 29.2081 49.7969 29.1186 49.6719C29.0305 49.5469 28.9865 49.3892 28.9865 49.1989V45.9432ZM31.9077 50.0767C31.7003 50.0767 31.5121 50.0376 31.343 49.9595C31.174 49.88 31.0398 49.7656 30.9403 49.6165C30.8409 49.4659 30.7912 49.2841 30.7912 49.071C30.7912 48.8835 30.8281 48.7315 30.902 48.6151C30.9759 48.4972 31.0746 48.4048 31.1982 48.3381C31.3217 48.2713 31.4581 48.2216 31.6072 48.1889C31.7578 48.1548 31.9091 48.1278 32.0611 48.108C32.2599 48.0824 32.4212 48.0632 32.5447 48.0504C32.6697 48.0362 32.7607 48.0128 32.8175 47.9801C32.8757 47.9474 32.9048 47.8906 32.9048 47.8097V47.7926C32.9048 47.5824 32.8473 47.419 32.7322 47.3026C32.6186 47.1861 32.446 47.1278 32.2145 47.1278C31.9744 47.1278 31.7862 47.1804 31.6499 47.2855C31.5135 47.3906 31.4176 47.5028 31.3622 47.6222L30.8849 47.4517C30.9702 47.2528 31.0838 47.098 31.2259 46.9872C31.3693 46.875 31.5256 46.7969 31.6946 46.7528C31.8651 46.7074 32.0327 46.6847 32.1974 46.6847C32.3026 46.6847 32.4233 46.6974 32.5597 46.723C32.6974 46.7472 32.8303 46.7976 32.9581 46.8743C33.0874 46.951 33.1946 47.0668 33.2798 47.2216C33.3651 47.3764 33.4077 47.5838 33.4077 47.8438V50H32.9048V49.5568H32.8793C32.8452 49.6278 32.7884 49.7038 32.7088 49.7848C32.6293 49.8658 32.5234 49.9347 32.3913 49.9915C32.2592 50.0483 32.098 50.0767 31.9077 50.0767ZM31.9844 49.625C32.1832 49.625 32.3509 49.5859 32.4872 49.5078C32.625 49.4297 32.7287 49.3288 32.7983 49.2053C32.8693 49.0817 32.9048 48.9517 32.9048 48.8153V48.3551C32.8835 48.3807 32.8366 48.4041 32.7642 48.4254C32.6932 48.4453 32.6108 48.4631 32.517 48.4787C32.4247 48.4929 32.3345 48.5057 32.2464 48.517C32.1598 48.527 32.0895 48.5355 32.0355 48.5426C31.9048 48.5597 31.7827 48.5874 31.669 48.6257C31.5568 48.6626 31.4659 48.7187 31.3963 48.794C31.3281 48.8679 31.294 48.9687 31.294 49.0966C31.294 49.2713 31.3587 49.4034 31.4879 49.4929C31.6186 49.581 31.7841 49.625 31.9844 49.625ZM34.8283 45.6364V50H34.3255V45.6364H34.8283ZM36.2521 45.6364V50H35.7493V45.6364H36.2521ZM40.2839 46.7273V47.1534H38.5879V46.7273H40.2839ZM39.0822 45.9432H39.585V49.0625C39.585 49.2045 39.6056 49.3111 39.6468 49.3821C39.6895 49.4517 39.7434 49.4986 39.8088 49.5227C39.8755 49.5455 39.9458 49.5568 40.0197 49.5568C40.0751 49.5568 40.1206 49.554 40.1561 49.5483C40.1916 49.5412 40.22 49.5355 40.2413 49.5312L40.3436 49.983C40.3095 49.9957 40.2619 50.0085 40.2008 50.0213C40.1397 50.0355 40.0623 50.0426 39.9686 50.0426C39.8265 50.0426 39.6873 50.0121 39.551 49.951C39.416 49.8899 39.3038 49.7969 39.2143 49.6719C39.1262 49.5469 39.0822 49.3892 39.0822 49.1989V45.9432ZM41.0403 50V46.7273H41.5261V47.2216H41.5602C41.6199 47.0597 41.7278 46.9283 41.8841 46.8274C42.0403 46.7266 42.2164 46.6761 42.4125 46.6761C42.4494 46.6761 42.4956 46.6768 42.551 46.6783C42.6064 46.6797 42.6483 46.6818 42.6767 46.6847V47.196C42.6596 47.1918 42.6206 47.1854 42.5595 47.1768C42.4998 47.1669 42.4366 47.1619 42.3699 47.1619C42.2108 47.1619 42.0687 47.1953 41.9437 47.2621C41.8201 47.3274 41.7221 47.4183 41.6497 47.5348C41.5787 47.6499 41.5431 47.7812 41.5431 47.929V50H41.0403ZM44.5453 50.0682C44.2299 50.0682 43.9579 49.9986 43.7292 49.8594C43.502 49.7188 43.3265 49.5227 43.2029 49.2713C43.0808 49.0185 43.0197 48.7244 43.0197 48.3892C43.0197 48.054 43.0808 47.7585 43.2029 47.5028C43.3265 47.2457 43.4984 47.0455 43.7186 46.902C43.9402 46.7571 44.1987 46.6847 44.4941 46.6847C44.6646 46.6847 44.8329 46.7131 44.9991 46.7699C45.1653 46.8267 45.3166 46.919 45.4529 47.0469C45.5893 47.1733 45.698 47.3409 45.7789 47.5497C45.8599 47.7585 45.9004 48.0156 45.9004 48.321V48.5341H43.3777V48.0994H45.389C45.389 47.9148 45.3521 47.75 45.2782 47.6051C45.2058 47.4602 45.1021 47.3459 44.9672 47.2621C44.8336 47.1783 44.676 47.1364 44.4941 47.1364C44.2939 47.1364 44.1206 47.1861 43.9743 47.2855C43.8294 47.3835 43.7179 47.5114 43.6397 47.669C43.5616 47.8267 43.5225 47.9957 43.5225 48.1761V48.4659C43.5225 48.7131 43.5652 48.9226 43.6504 49.0945C43.737 49.2649 43.8571 49.3949 44.0105 49.4844C44.1639 49.5724 44.3422 49.6165 44.5453 49.6165C44.6774 49.6165 44.7967 49.598 44.9032 49.5611C45.0112 49.5227 45.1042 49.4659 45.1824 49.3906C45.2605 49.3139 45.3208 49.2187 45.3635 49.1051L45.8493 49.2415C45.7981 49.4062 45.7122 49.5511 45.5914 49.6761C45.4707 49.7997 45.3216 49.8963 45.144 49.9659C44.9664 50.0341 44.7669 50.0682 44.5453 50.0682ZM48.0375 50.0682C47.7221 50.0682 47.4501 49.9986 47.2214 49.8594C46.9941 49.7188 46.8187 49.5227 46.6951 49.2713C46.573 49.0185 46.5119 48.7244 46.5119 48.3892C46.5119 48.054 46.573 47.7585 46.6951 47.5028C46.8187 47.2457 46.9906 47.0455 47.2108 46.902C47.4324 46.7571 47.6909 46.6847 47.9863 46.6847C48.1568 46.6847 48.3251 46.7131 48.4913 46.7699C48.6575 46.8267 48.8088 46.919 48.9451 47.0469C49.0815 47.1733 49.1902 47.3409 49.2711 47.5497C49.3521 47.7585 49.3926 48.0156 49.3926 48.321V48.5341H46.8699V48.0994H48.8812C48.8812 47.9148 48.8443 47.75 48.7704 47.6051C48.698 47.4602 48.5943 47.3459 48.4593 47.2621C48.3258 47.1783 48.1681 47.1364 47.9863 47.1364C47.786 47.1364 47.6127 47.1861 47.4664 47.2855C47.3216 47.3835 47.21 47.5114 47.1319 47.669C47.0538 47.8267 47.0147 47.9957 47.0147 48.1761V48.4659C47.0147 48.7131 47.0574 48.9226 47.1426 49.0945C47.2292 49.2649 47.3493 49.3949 47.5027 49.4844C47.6561 49.5724 47.8343 49.6165 48.0375 49.6165C48.1696 49.6165 48.2889 49.598 48.3954 49.5611C48.5034 49.5227 48.5964 49.4659 48.6745 49.3906C48.7527 49.3139 48.813 49.2187 48.8556 49.1051L49.3414 49.2415C49.2903 49.4062 49.2044 49.5511 49.0836 49.6761C48.9629 49.7997 48.8137 49.8963 48.6362 49.9659C48.4586 50.0341 48.2591 50.0682 48.0375 50.0682ZM52.4757 47.4602L52.024 47.5881C51.9956 47.5128 51.9537 47.4396 51.8983 47.3686C51.8443 47.2962 51.7704 47.2365 51.6767 47.1896C51.5829 47.1428 51.4629 47.1193 51.3166 47.1193C51.1163 47.1193 50.9494 47.1655 50.8159 47.2578C50.6838 47.3487 50.6177 47.4645 50.6177 47.6051C50.6177 47.7301 50.6632 47.8288 50.7541 47.9013C50.845 47.9737 50.987 48.0341 51.1802 48.0824L51.666 48.2017C51.9586 48.2727 52.1767 48.3814 52.3201 48.5277C52.4636 48.6726 52.5353 48.8594 52.5353 49.0881C52.5353 49.2756 52.4814 49.4432 52.3734 49.5909C52.2669 49.7386 52.1177 49.8551 51.926 49.9403C51.7342 50.0256 51.5112 50.0682 51.2569 50.0682C50.9231 50.0682 50.6468 49.9957 50.4281 49.8509C50.2093 49.706 50.0708 49.4943 50.0126 49.2159L50.4899 49.0966C50.5353 49.2727 50.6213 49.4048 50.7477 49.4929C50.8755 49.581 51.0424 49.625 51.2484 49.625C51.4828 49.625 51.6689 49.5753 51.8066 49.4759C51.9458 49.375 52.0154 49.2543 52.0154 49.1136C52.0154 49 51.9757 48.9048 51.8961 48.8281C51.8166 48.75 51.6944 48.6918 51.5297 48.6534L50.9842 48.5256C50.6845 48.4545 50.4643 48.3445 50.3237 48.1953C50.1845 48.0447 50.1149 47.8565 50.1149 47.6307C50.1149 47.446 50.1667 47.2827 50.2704 47.1406C50.3755 46.9986 50.5183 46.8871 50.6987 46.8061C50.8805 46.7251 51.0865 46.6847 51.3166 46.6847C51.6404 46.6847 51.8947 46.7557 52.0794 46.8977C52.2654 47.0398 52.3975 47.2273 52.4757 47.4602ZM53.6587 50.0341C53.5536 50.0341 53.4634 49.9964 53.3881 49.9212C53.3129 49.8459 53.2752 49.7557 53.2752 49.6506C53.2752 49.5455 53.3129 49.4553 53.3881 49.38C53.4634 49.3047 53.5536 49.267 53.6587 49.267C53.7638 49.267 53.854 49.3047 53.9293 49.38C54.0046 49.4553 54.0423 49.5455 54.0423 49.6506C54.0423 49.7202 54.0245 49.7841 53.989 49.8423C53.9549 49.9006 53.9087 49.9474 53.8505 49.983C53.7937 50.017 53.7298 50.0341 53.6587 50.0341Z" fill="#A6A6A6"/>
</svg>
