<svg width="221" height="125" viewBox="0 0 221 125" fill="none" xmlns="http://www.w3.org/2000/svg">
<path d="M38.5045 49L37.6645 46.528H34.2805L33.4405 49H32.4205L35.3485 40.624H36.6325L39.5605 49H38.5045ZM35.9965 41.56H35.9365L34.5205 45.64H37.4125L35.9965 41.56ZM43.156 49.144C42.724 49.144 42.336 49.068 41.992 48.916C41.648 48.764 41.356 48.548 41.116 48.268C40.884 47.988 40.704 47.648 40.576 47.248C40.456 46.848 40.396 46.4 40.396 45.904C40.396 45.408 40.456 44.96 40.576 44.56C40.704 44.16 40.884 43.82 41.116 43.54C41.356 43.26 41.648 43.044 41.992 42.892C42.336 42.74 42.724 42.664 43.156 42.664C43.772 42.664 44.264 42.8 44.632 43.072C45.008 43.336 45.288 43.684 45.472 44.116L44.668 44.524C44.556 44.204 44.372 43.956 44.116 43.78C43.86 43.604 43.54 43.516 43.156 43.516C42.868 43.516 42.616 43.564 42.4 43.66C42.184 43.748 42.004 43.876 41.86 44.044C41.716 44.204 41.608 44.4 41.536 44.632C41.464 44.856 41.428 45.104 41.428 45.376V46.432C41.428 46.976 41.572 47.424 41.86 47.776C42.156 48.12 42.588 48.292 43.156 48.292C43.932 48.292 44.492 47.932 44.836 47.212L45.532 47.68C45.332 48.128 45.032 48.484 44.632 48.748C44.24 49.012 43.748 49.144 43.156 49.144ZM49.1209 49.144C48.6889 49.144 48.3009 49.068 47.9569 48.916C47.6129 48.764 47.3209 48.548 47.0809 48.268C46.8489 47.988 46.6689 47.648 46.5409 47.248C46.4209 46.848 46.3609 46.4 46.3609 45.904C46.3609 45.408 46.4209 44.96 46.5409 44.56C46.6689 44.16 46.8489 43.82 47.0809 43.54C47.3209 43.26 47.6129 43.044 47.9569 42.892C48.3009 42.74 48.6889 42.664 49.1209 42.664C49.7369 42.664 50.2289 42.8 50.5969 43.072C50.9729 43.336 51.2529 43.684 51.4369 44.116L50.6329 44.524C50.5209 44.204 50.3369 43.956 50.0809 43.78C49.8249 43.604 49.5049 43.516 49.1209 43.516C48.8329 43.516 48.5809 43.564 48.3649 43.66C48.1489 43.748 47.9689 43.876 47.8249 44.044C47.6809 44.204 47.5729 44.4 47.5009 44.632C47.4289 44.856 47.3929 45.104 47.3929 45.376V46.432C47.3929 46.976 47.5369 47.424 47.8249 47.776C48.1209 48.12 48.5529 48.292 49.1209 48.292C49.8969 48.292 50.4569 47.932 50.8009 47.212L51.4969 47.68C51.2969 48.128 50.9969 48.484 50.5969 48.748C50.2049 49.012 49.7129 49.144 49.1209 49.144ZM55.1097 49.144C54.6857 49.144 54.3017 49.068 53.9577 48.916C53.6217 48.764 53.3297 48.548 53.0817 48.268C52.8417 47.98 52.6537 47.64 52.5177 47.248C52.3897 46.848 52.3257 46.4 52.3257 45.904C52.3257 45.416 52.3897 44.972 52.5177 44.572C52.6537 44.172 52.8417 43.832 53.0817 43.552C53.3297 43.264 53.6217 43.044 53.9577 42.892C54.3017 42.74 54.6857 42.664 55.1097 42.664C55.5257 42.664 55.8977 42.74 56.2257 42.892C56.5537 43.044 56.8337 43.256 57.0657 43.528C57.2977 43.792 57.4737 44.108 57.5937 44.476C57.7217 44.844 57.7857 45.248 57.7857 45.688V46.144H53.3337V46.432C53.3337 46.696 53.3737 46.944 53.4537 47.176C53.5417 47.4 53.6617 47.596 53.8137 47.764C53.9737 47.932 54.1657 48.064 54.3897 48.16C54.6217 48.256 54.8817 48.304 55.1697 48.304C55.5617 48.304 55.9017 48.212 56.1897 48.028C56.4857 47.844 56.7137 47.58 56.8737 47.236L57.5577 47.728C57.3577 48.152 57.0457 48.496 56.6217 48.76C56.1977 49.016 55.6937 49.144 55.1097 49.144ZM55.1097 43.468C54.8457 43.468 54.6057 43.516 54.3897 43.612C54.1737 43.7 53.9857 43.828 53.8257 43.996C53.6737 44.164 53.5537 44.364 53.4657 44.596C53.3777 44.82 53.3337 45.068 53.3337 45.34V45.424H56.7537V45.292C56.7537 44.74 56.6017 44.3 56.2977 43.972C56.0017 43.636 55.6057 43.468 55.1097 43.468ZM59.3677 42.808H60.3277V43.816H60.3757C60.5357 43.424 60.7677 43.136 61.0717 42.952C61.3837 42.76 61.7557 42.664 62.1877 42.664C62.5717 42.664 62.9197 42.74 63.2317 42.892C63.5437 43.044 63.8077 43.26 64.0237 43.54C64.2477 43.82 64.4157 44.16 64.5277 44.56C64.6477 44.96 64.7077 45.408 64.7077 45.904C64.7077 46.4 64.6477 46.848 64.5277 47.248C64.4157 47.648 64.2477 47.988 64.0237 48.268C63.8077 48.548 63.5437 48.764 63.2317 48.916C62.9197 49.068 62.5717 49.144 62.1877 49.144C61.3477 49.144 60.7437 48.76 60.3757 47.992H60.3277V51.4H59.3677V42.808ZM61.9237 48.28C62.4677 48.28 62.8957 48.112 63.2077 47.776C63.5197 47.432 63.6757 46.984 63.6757 46.432V45.376C63.6757 44.824 63.5197 44.38 63.2077 44.044C62.8957 43.7 62.4677 43.528 61.9237 43.528C61.7077 43.528 61.4997 43.56 61.2997 43.624C61.1077 43.68 60.9397 43.76 60.7957 43.864C60.6517 43.968 60.5357 44.096 60.4477 44.248C60.3677 44.392 60.3277 44.548 60.3277 44.716V47.02C60.3277 47.22 60.3677 47.4 60.4477 47.56C60.5357 47.712 60.6517 47.844 60.7957 47.956C60.9397 48.06 61.1077 48.14 61.2997 48.196C61.4997 48.252 61.7077 48.28 61.9237 48.28ZM67.6263 49C67.2903 49 67.0343 48.908 66.8583 48.724C66.6903 48.532 66.6063 48.284 66.6063 47.98V43.648H65.5863V42.808H66.1623C66.3703 42.808 66.5103 42.768 66.5823 42.688C66.6623 42.6 66.7023 42.452 66.7023 42.244V41.092H67.5663V42.808H68.9223V43.648H67.5663V48.16H68.8263V49H67.6263ZM74.3213 49C73.9853 49 73.7293 48.908 73.5533 48.724C73.3853 48.532 73.3013 48.292 73.3013 48.004V40.12H74.2613V48.16H75.1733V49H74.3213ZM77.0508 41.356C76.8428 41.356 76.6908 41.308 76.5948 41.212C76.5068 41.108 76.4628 40.976 76.4628 40.816V40.66C76.4628 40.5 76.5068 40.372 76.5948 40.276C76.6908 40.172 76.8428 40.12 77.0508 40.12C77.2588 40.12 77.4068 40.172 77.4948 40.276C77.5908 40.372 77.6388 40.5 77.6388 40.66V40.816C77.6388 40.976 77.5908 41.108 77.4948 41.212C77.4068 41.308 77.2588 41.356 77.0508 41.356ZM76.5708 42.808H77.5308V49H76.5708V42.808ZM81.8748 49.144C81.4428 49.144 81.0548 49.068 80.7108 48.916C80.3668 48.764 80.0748 48.548 79.8348 48.268C79.6028 47.988 79.4228 47.648 79.2948 47.248C79.1748 46.848 79.1148 46.4 79.1148 45.904C79.1148 45.408 79.1748 44.96 79.2948 44.56C79.4228 44.16 79.6028 43.82 79.8348 43.54C80.0748 43.26 80.3668 43.044 80.7108 42.892C81.0548 42.74 81.4428 42.664 81.8748 42.664C82.4908 42.664 82.9828 42.8 83.3508 43.072C83.7268 43.336 84.0068 43.684 84.1908 44.116L83.3868 44.524C83.2748 44.204 83.0908 43.956 82.8348 43.78C82.5788 43.604 82.2588 43.516 81.8748 43.516C81.5868 43.516 81.3348 43.564 81.1188 43.66C80.9028 43.748 80.7228 43.876 80.5788 44.044C80.4348 44.204 80.3268 44.4 80.2548 44.632C80.1828 44.856 80.1468 45.104 80.1468 45.376V46.432C80.1468 46.976 80.2908 47.424 80.5788 47.776C80.8748 48.12 81.3068 48.292 81.8748 48.292C82.6508 48.292 83.2108 47.932 83.5548 47.212L84.2508 47.68C84.0508 48.128 83.7508 48.484 83.3508 48.748C82.9588 49.012 82.4668 49.144 81.8748 49.144ZM87.8636 49.144C87.4396 49.144 87.0556 49.068 86.7116 48.916C86.3756 48.764 86.0836 48.548 85.8356 48.268C85.5956 47.98 85.4076 47.64 85.2716 47.248C85.1436 46.848 85.0796 46.4 85.0796 45.904C85.0796 45.416 85.1436 44.972 85.2716 44.572C85.4076 44.172 85.5956 43.832 85.8356 43.552C86.0836 43.264 86.3756 43.044 86.7116 42.892C87.0556 42.74 87.4396 42.664 87.8636 42.664C88.2796 42.664 88.6516 42.74 88.9796 42.892C89.3076 43.044 89.5876 43.256 89.8196 43.528C90.0516 43.792 90.2276 44.108 90.3476 44.476C90.4756 44.844 90.5396 45.248 90.5396 45.688V46.144H86.0876V46.432C86.0876 46.696 86.1276 46.944 86.2076 47.176C86.2956 47.4 86.4156 47.596 86.5676 47.764C86.7276 47.932 86.9196 48.064 87.1436 48.16C87.3756 48.256 87.6356 48.304 87.9236 48.304C88.3156 48.304 88.6556 48.212 88.9436 48.028C89.2396 47.844 89.4676 47.58 89.6276 47.236L90.3116 47.728C90.1116 48.152 89.7996 48.496 89.3756 48.76C88.9516 49.016 88.4476 49.144 87.8636 49.144ZM87.8636 43.468C87.5996 43.468 87.3596 43.516 87.1436 43.612C86.9276 43.7 86.7396 43.828 86.5796 43.996C86.4276 44.164 86.3076 44.364 86.2196 44.596C86.1316 44.82 86.0876 45.068 86.0876 45.34V45.424H89.5076V45.292C89.5076 44.74 89.3556 44.3 89.0516 43.972C88.7556 43.636 88.3596 43.468 87.8636 43.468ZM92.1216 49V42.808H93.0816V43.816H93.1296C93.2816 43.464 93.4936 43.184 93.7656 42.976C94.0456 42.768 94.4176 42.664 94.8816 42.664C95.5216 42.664 96.0256 42.872 96.3936 43.288C96.7696 43.696 96.9576 44.276 96.9576 45.028V49H95.9976V45.196C95.9976 44.084 95.5296 43.528 94.5936 43.528C94.4016 43.528 94.2136 43.552 94.0296 43.6C93.8536 43.648 93.6936 43.72 93.5496 43.816C93.4056 43.912 93.2896 44.036 93.2016 44.188C93.1216 44.332 93.0816 44.504 93.0816 44.704V49H92.1216ZM101.246 49.144C100.814 49.144 100.426 49.068 100.082 48.916C99.7379 48.764 99.4459 48.548 99.2059 48.268C98.9739 47.988 98.7939 47.648 98.6659 47.248C98.5459 46.848 98.4859 46.4 98.4859 45.904C98.4859 45.408 98.5459 44.96 98.6659 44.56C98.7939 44.16 98.9739 43.82 99.2059 43.54C99.4459 43.26 99.7379 43.044 100.082 42.892C100.426 42.74 100.814 42.664 101.246 42.664C101.862 42.664 102.354 42.8 102.722 43.072C103.098 43.336 103.378 43.684 103.562 44.116L102.758 44.524C102.646 44.204 102.462 43.956 102.206 43.78C101.95 43.604 101.63 43.516 101.246 43.516C100.958 43.516 100.706 43.564 100.49 43.66C100.274 43.748 100.094 43.876 99.9499 44.044C99.8059 44.204 99.6979 44.4 99.6259 44.632C99.5539 44.856 99.5179 45.104 99.5179 45.376V46.432C99.5179 46.976 99.6619 47.424 99.9499 47.776C100.246 48.12 100.678 48.292 101.246 48.292C102.022 48.292 102.582 47.932 102.926 47.212L103.622 47.68C103.422 48.128 103.122 48.484 102.722 48.748C102.33 49.012 101.838 49.144 101.246 49.144ZM107.235 49.144C106.811 49.144 106.427 49.068 106.083 48.916C105.747 48.764 105.455 48.548 105.207 48.268C104.967 47.98 104.779 47.64 104.643 47.248C104.515 46.848 104.451 46.4 104.451 45.904C104.451 45.416 104.515 44.972 104.643 44.572C104.779 44.172 104.967 43.832 105.207 43.552C105.455 43.264 105.747 43.044 106.083 42.892C106.427 42.74 106.811 42.664 107.235 42.664C107.651 42.664 108.023 42.74 108.351 42.892C108.679 43.044 108.959 43.256 109.191 43.528C109.423 43.792 109.599 44.108 109.719 44.476C109.847 44.844 109.911 45.248 109.911 45.688V46.144H105.459V46.432C105.459 46.696 105.499 46.944 105.579 47.176C105.667 47.4 105.787 47.596 105.939 47.764C106.099 47.932 106.291 48.064 106.515 48.16C106.747 48.256 107.007 48.304 107.295 48.304C107.687 48.304 108.027 48.212 108.315 48.028C108.611 47.844 108.839 47.58 108.999 47.236L109.683 47.728C109.483 48.152 109.171 48.496 108.747 48.76C108.323 49.016 107.819 49.144 107.235 49.144ZM107.235 43.468C106.971 43.468 106.731 43.516 106.515 43.612C106.299 43.7 106.111 43.828 105.951 43.996C105.799 44.164 105.679 44.364 105.591 44.596C105.503 44.82 105.459 45.068 105.459 45.34V45.424H108.879V45.292C108.879 44.74 108.727 44.3 108.423 43.972C108.127 43.636 107.731 43.468 107.235 43.468ZM118.829 49C118.469 49 118.209 48.904 118.049 48.712C117.897 48.52 117.801 48.28 117.761 47.992H117.701C117.565 48.376 117.341 48.664 117.029 48.856C116.717 49.048 116.345 49.144 115.913 49.144C115.257 49.144 114.745 48.976 114.377 48.64C114.017 48.304 113.837 47.848 113.837 47.272C113.837 46.688 114.049 46.24 114.473 45.928C114.905 45.616 115.573 45.46 116.477 45.46H117.701V44.848C117.701 44.408 117.581 44.072 117.341 43.84C117.101 43.608 116.733 43.492 116.237 43.492C115.861 43.492 115.545 43.576 115.289 43.744C115.041 43.912 114.833 44.136 114.665 44.416L114.089 43.876C114.257 43.54 114.525 43.256 114.893 43.024C115.261 42.784 115.725 42.664 116.285 42.664C117.037 42.664 117.621 42.848 118.037 43.216C118.453 43.584 118.661 44.096 118.661 44.752V48.16H119.369V49H118.829ZM116.069 48.328C116.309 48.328 116.529 48.3 116.729 48.244C116.929 48.188 117.101 48.108 117.245 48.004C117.389 47.9 117.501 47.78 117.581 47.644C117.661 47.508 117.701 47.36 117.701 47.2V46.18H116.429C115.877 46.18 115.473 46.26 115.217 46.42C114.969 46.58 114.845 46.812 114.845 47.116V47.368C114.845 47.672 114.953 47.908 115.169 48.076C115.393 48.244 115.693 48.328 116.069 48.328ZM125.959 49.684C125.959 50.324 125.707 50.792 125.203 51.088C124.707 51.392 123.959 51.544 122.959 51.544C121.991 51.544 121.295 51.412 120.871 51.148C120.447 50.884 120.235 50.508 120.235 50.02C120.235 49.684 120.323 49.42 120.499 49.228C120.675 49.044 120.915 48.908 121.219 48.82V48.688C120.851 48.512 120.667 48.224 120.667 47.824C120.667 47.512 120.767 47.276 120.967 47.116C121.167 46.948 121.423 46.824 121.735 46.744V46.696C121.367 46.52 121.079 46.268 120.871 45.94C120.671 45.612 120.571 45.232 120.571 44.8C120.571 44.488 120.627 44.2 120.739 43.936C120.851 43.672 121.007 43.448 121.207 43.264C121.415 43.072 121.659 42.924 121.939 42.82C122.227 42.716 122.547 42.664 122.899 42.664C123.339 42.664 123.731 42.744 124.075 42.904V42.796C124.075 42.556 124.131 42.36 124.243 42.208C124.355 42.048 124.539 41.968 124.795 41.968H125.719V42.808H124.543V43.204C124.767 43.396 124.939 43.628 125.059 43.9C125.187 44.164 125.251 44.464 125.251 44.8C125.251 45.112 125.195 45.4 125.083 45.664C124.971 45.928 124.811 46.156 124.603 46.348C124.403 46.532 124.159 46.676 123.871 46.78C123.583 46.884 123.263 46.936 122.911 46.936C122.711 46.936 122.511 46.916 122.311 46.876C122.103 46.932 121.915 47.016 121.747 47.128C121.579 47.232 121.495 47.38 121.495 47.572C121.495 47.756 121.583 47.88 121.759 47.944C121.935 48.008 122.163 48.04 122.443 48.04H123.763C124.531 48.04 125.087 48.188 125.431 48.484C125.783 48.772 125.959 49.172 125.959 49.684ZM125.059 49.756C125.059 49.508 124.963 49.308 124.771 49.156C124.587 49.012 124.255 48.94 123.775 48.94H121.711C121.327 49.116 121.135 49.396 121.135 49.78C121.135 50.052 121.235 50.284 121.435 50.476C121.643 50.668 121.991 50.764 122.479 50.764H123.367C123.903 50.764 124.319 50.68 124.615 50.512C124.911 50.344 125.059 50.092 125.059 49.756ZM122.911 46.168C123.319 46.168 123.643 46.072 123.883 45.88C124.123 45.68 124.243 45.376 124.243 44.968V44.632C124.243 44.224 124.123 43.924 123.883 43.732C123.643 43.532 123.319 43.432 122.911 43.432C122.503 43.432 122.179 43.532 121.939 43.732C121.699 43.924 121.579 44.224 121.579 44.632V44.968C121.579 45.376 121.699 45.68 121.939 45.88C122.179 46.072 122.503 46.168 122.911 46.168ZM127.079 49V42.808H128.039V43.948H128.099C128.211 43.652 128.411 43.388 128.699 43.156C128.987 42.924 129.383 42.808 129.887 42.808H130.259V43.768H129.695C129.175 43.768 128.767 43.868 128.471 44.068C128.183 44.26 128.039 44.504 128.039 44.8V49H127.079ZM133.754 49.144C133.33 49.144 132.946 49.068 132.602 48.916C132.266 48.764 131.974 48.548 131.726 48.268C131.486 47.98 131.298 47.64 131.162 47.248C131.034 46.848 130.97 46.4 130.97 45.904C130.97 45.416 131.034 44.972 131.162 44.572C131.298 44.172 131.486 43.832 131.726 43.552C131.974 43.264 132.266 43.044 132.602 42.892C132.946 42.74 133.33 42.664 133.754 42.664C134.17 42.664 134.542 42.74 134.87 42.892C135.198 43.044 135.478 43.256 135.71 43.528C135.942 43.792 136.118 44.108 136.238 44.476C136.366 44.844 136.43 45.248 136.43 45.688V46.144H131.978V46.432C131.978 46.696 132.018 46.944 132.098 47.176C132.186 47.4 132.306 47.596 132.458 47.764C132.618 47.932 132.81 48.064 133.034 48.16C133.266 48.256 133.526 48.304 133.814 48.304C134.206 48.304 134.546 48.212 134.834 48.028C135.13 47.844 135.358 47.58 135.518 47.236L136.202 47.728C136.002 48.152 135.69 48.496 135.266 48.76C134.842 49.016 134.338 49.144 133.754 49.144ZM133.754 43.468C133.49 43.468 133.25 43.516 133.034 43.612C132.818 43.7 132.63 43.828 132.47 43.996C132.318 44.164 132.198 44.364 132.11 44.596C132.022 44.82 131.978 45.068 131.978 45.34V45.424H135.398V45.292C135.398 44.74 135.246 44.3 134.942 43.972C134.646 43.636 134.25 43.468 133.754 43.468ZM140.34 49.144C139.916 49.144 139.532 49.068 139.188 48.916C138.852 48.764 138.56 48.548 138.312 48.268C138.072 47.98 137.884 47.64 137.748 47.248C137.62 46.848 137.556 46.4 137.556 45.904C137.556 45.416 137.62 44.972 137.748 44.572C137.884 44.172 138.072 43.832 138.312 43.552C138.56 43.264 138.852 43.044 139.188 42.892C139.532 42.74 139.916 42.664 140.34 42.664C140.756 42.664 141.128 42.74 141.456 42.892C141.784 43.044 142.064 43.256 142.296 43.528C142.528 43.792 142.704 44.108 142.824 44.476C142.952 44.844 143.016 45.248 143.016 45.688V46.144H138.564V46.432C138.564 46.696 138.604 46.944 138.684 47.176C138.772 47.4 138.892 47.596 139.044 47.764C139.204 47.932 139.396 48.064 139.62 48.16C139.852 48.256 140.112 48.304 140.4 48.304C140.792 48.304 141.132 48.212 141.42 48.028C141.716 47.844 141.944 47.58 142.104 47.236L142.788 47.728C142.588 48.152 142.276 48.496 141.852 48.76C141.428 49.016 140.924 49.144 140.34 49.144ZM140.34 43.468C140.076 43.468 139.836 43.516 139.62 43.612C139.404 43.7 139.216 43.828 139.056 43.996C138.904 44.164 138.784 44.364 138.696 44.596C138.608 44.82 138.564 45.068 138.564 45.34V45.424H141.984V45.292C141.984 44.74 141.832 44.3 141.528 43.972C141.232 43.636 140.836 43.468 140.34 43.468ZM144.598 49V42.808H145.558V43.816H145.606C145.678 43.656 145.758 43.508 145.846 43.372C145.942 43.228 146.054 43.104 146.182 43C146.318 42.896 146.474 42.816 146.65 42.76C146.826 42.696 147.034 42.664 147.274 42.664C147.682 42.664 148.058 42.764 148.402 42.964C148.746 43.156 149.002 43.476 149.17 43.924H149.194C149.306 43.588 149.514 43.296 149.818 43.048C150.13 42.792 150.55 42.664 151.078 42.664C151.71 42.664 152.202 42.872 152.554 43.288C152.914 43.696 153.094 44.276 153.094 45.028V49H152.134V45.196C152.134 44.644 152.026 44.228 151.81 43.948C151.594 43.668 151.25 43.528 150.778 43.528C150.586 43.528 150.402 43.552 150.226 43.6C150.058 43.648 149.906 43.72 149.77 43.816C149.634 43.912 149.526 44.036 149.446 44.188C149.366 44.332 149.326 44.504 149.326 44.704V49H148.366V45.196C148.366 44.644 148.258 44.228 148.042 43.948C147.826 43.668 147.49 43.528 147.034 43.528C146.842 43.528 146.658 43.552 146.482 43.6C146.306 43.648 146.15 43.72 146.014 43.816C145.878 43.912 145.766 44.036 145.678 44.188C145.598 44.332 145.558 44.504 145.558 44.704V49H144.598ZM157.403 49.144C156.979 49.144 156.595 49.068 156.251 48.916C155.915 48.764 155.623 48.548 155.375 48.268C155.135 47.98 154.947 47.64 154.811 47.248C154.683 46.848 154.619 46.4 154.619 45.904C154.619 45.416 154.683 44.972 154.811 44.572C154.947 44.172 155.135 43.832 155.375 43.552C155.623 43.264 155.915 43.044 156.251 42.892C156.595 42.74 156.979 42.664 157.403 42.664C157.819 42.664 158.191 42.74 158.519 42.892C158.847 43.044 159.127 43.256 159.359 43.528C159.591 43.792 159.767 44.108 159.887 44.476C160.015 44.844 160.079 45.248 160.079 45.688V46.144H155.627V46.432C155.627 46.696 155.667 46.944 155.747 47.176C155.835 47.4 155.955 47.596 156.107 47.764C156.267 47.932 156.459 48.064 156.683 48.16C156.915 48.256 157.175 48.304 157.463 48.304C157.855 48.304 158.195 48.212 158.483 48.028C158.779 47.844 159.007 47.58 159.167 47.236L159.851 47.728C159.651 48.152 159.339 48.496 158.915 48.76C158.491 49.016 157.987 49.144 157.403 49.144ZM157.403 43.468C157.139 43.468 156.899 43.516 156.683 43.612C156.467 43.7 156.279 43.828 156.119 43.996C155.967 44.164 155.847 44.364 155.759 44.596C155.671 44.82 155.627 45.068 155.627 45.34V45.424H159.047V45.292C159.047 44.74 158.895 44.3 158.591 43.972C158.295 43.636 157.899 43.468 157.403 43.468ZM161.661 49V42.808H162.621V43.816H162.669C162.821 43.464 163.033 43.184 163.305 42.976C163.585 42.768 163.957 42.664 164.421 42.664C165.061 42.664 165.565 42.872 165.933 43.288C166.309 43.696 166.497 44.276 166.497 45.028V49H165.537V45.196C165.537 44.084 165.069 43.528 164.133 43.528C163.941 43.528 163.753 43.552 163.569 43.6C163.393 43.648 163.233 43.72 163.089 43.816C162.945 43.912 162.829 44.036 162.741 44.188C162.661 44.332 162.621 44.504 162.621 44.704V49H161.661ZM169.849 49C169.513 49 169.257 48.908 169.081 48.724C168.913 48.532 168.829 48.284 168.829 47.98V43.648H167.809V42.808H168.385C168.593 42.808 168.733 42.768 168.805 42.688C168.885 42.6 168.925 42.452 168.925 42.244V41.092H169.789V42.808H171.145V43.648H169.789V48.16H171.049V49H169.849Z" fill="white"/>
<path d="M32.8645 82.6345V81.7945H34.0405V75.0985H32.8645V74.2585H36.2245V75.0985H35.0485V81.7945H36.2245V82.6345H32.8645ZM43.1092 82.7785C42.6772 82.7785 42.2892 82.7025 41.9452 82.5505C41.6012 82.3985 41.3092 82.1825 41.0692 81.9025C40.8372 81.6225 40.6572 81.2825 40.5292 80.8825C40.4092 80.4825 40.3492 80.0345 40.3492 79.5385C40.3492 79.0425 40.4092 78.5945 40.5292 78.1945C40.6572 77.7945 40.8372 77.4545 41.0692 77.1745C41.3092 76.8945 41.6012 76.6785 41.9452 76.5265C42.2892 76.3745 42.6772 76.2985 43.1092 76.2985C43.7252 76.2985 44.2172 76.4345 44.5852 76.7065C44.9612 76.9705 45.2412 77.3185 45.4252 77.7505L44.6212 78.1585C44.5092 77.8385 44.3252 77.5905 44.0692 77.4145C43.8132 77.2385 43.4932 77.1505 43.1092 77.1505C42.8212 77.1505 42.5692 77.1985 42.3532 77.2945C42.1372 77.3825 41.9572 77.5105 41.8132 77.6785C41.6692 77.8385 41.5612 78.0345 41.4892 78.2665C41.4172 78.4905 41.3812 78.7385 41.3812 79.0105V80.0665C41.3812 80.6105 41.5252 81.0585 41.8132 81.4105C42.1092 81.7545 42.5412 81.9265 43.1092 81.9265C43.8852 81.9265 44.4452 81.5665 44.7892 80.8465L45.4852 81.3145C45.2852 81.7625 44.9852 82.1185 44.5852 82.3825C44.1932 82.6465 43.7012 82.7785 43.1092 82.7785ZM49.11 82.7785C48.694 82.7785 48.314 82.7025 47.97 82.5505C47.626 82.3985 47.33 82.1825 47.082 81.9025C46.842 81.6145 46.654 81.2745 46.518 80.8825C46.382 80.4825 46.314 80.0345 46.314 79.5385C46.314 79.0505 46.382 78.6065 46.518 78.2065C46.654 77.8065 46.842 77.4665 47.082 77.1865C47.33 76.8985 47.626 76.6785 47.97 76.5265C48.314 76.3745 48.694 76.2985 49.11 76.2985C49.526 76.2985 49.902 76.3745 50.238 76.5265C50.582 76.6785 50.878 76.8985 51.126 77.1865C51.374 77.4665 51.566 77.8065 51.702 78.2065C51.838 78.6065 51.906 79.0505 51.906 79.5385C51.906 80.0345 51.838 80.4825 51.702 80.8825C51.566 81.2745 51.374 81.6145 51.126 81.9025C50.878 82.1825 50.582 82.3985 50.238 82.5505C49.902 82.7025 49.526 82.7785 49.11 82.7785ZM49.11 81.9265C49.63 81.9265 50.054 81.7665 50.382 81.4465C50.71 81.1265 50.874 80.6385 50.874 79.9825V79.0945C50.874 78.4385 50.71 77.9505 50.382 77.6305C50.054 77.3105 49.63 77.1505 49.11 77.1505C48.59 77.1505 48.166 77.3105 47.838 77.6305C47.51 77.9505 47.346 78.4385 47.346 79.0945V79.9825C47.346 80.6385 47.51 81.1265 47.838 81.4465C48.166 81.7665 48.59 81.9265 49.11 81.9265ZM53.4848 82.6345V76.4425H54.4448V77.4505H54.4928C54.6448 77.0985 54.8568 76.8185 55.1288 76.6105C55.4088 76.4025 55.7808 76.2985 56.2448 76.2985C56.8848 76.2985 57.3888 76.5065 57.7568 76.9225C58.1328 77.3305 58.3208 77.9105 58.3208 78.6625V82.6345H57.3608V78.8305C57.3608 77.7185 56.8928 77.1625 55.9568 77.1625C55.7648 77.1625 55.5768 77.1865 55.3928 77.2345C55.2168 77.2825 55.0568 77.3545 54.9128 77.4505C54.7688 77.5465 54.6528 77.6705 54.5648 77.8225C54.4848 77.9665 54.4448 78.1385 54.4448 78.3385V82.6345H53.4848ZM62.1652 82.7785C61.5892 82.7785 61.1052 82.6705 60.7132 82.4545C60.3292 82.2305 59.9972 81.9345 59.7172 81.5665L60.4012 81.0145C60.6412 81.3185 60.9092 81.5545 61.2052 81.7225C61.5012 81.8825 61.8452 81.9625 62.2372 81.9625C62.6452 81.9625 62.9612 81.8745 63.1852 81.6985C63.4172 81.5225 63.5332 81.2745 63.5332 80.9545C63.5332 80.7145 63.4532 80.5105 63.2932 80.3425C63.1412 80.1665 62.8612 80.0465 62.4532 79.9825L61.9612 79.9105C61.6732 79.8705 61.4092 79.8105 61.1692 79.7305C60.9292 79.6425 60.7172 79.5305 60.5332 79.3945C60.3572 79.2505 60.2172 79.0745 60.1132 78.8665C60.0172 78.6585 59.9692 78.4105 59.9692 78.1225C59.9692 77.8185 60.0252 77.5545 60.1372 77.3305C60.2492 77.0985 60.4012 76.9065 60.5932 76.7545C60.7932 76.6025 61.0292 76.4905 61.3012 76.4185C61.5732 76.3385 61.8652 76.2985 62.1772 76.2985C62.6812 76.2985 63.1012 76.3865 63.4372 76.5625C63.7812 76.7385 64.0812 76.9825 64.3372 77.2945L63.7012 77.8705C63.5652 77.6785 63.3652 77.5065 63.1012 77.3545C62.8372 77.1945 62.5052 77.1145 62.1052 77.1145C61.7052 77.1145 61.4012 77.2025 61.1932 77.3785C60.9932 77.5465 60.8932 77.7785 60.8932 78.0745C60.8932 78.3785 60.9932 78.5985 61.1932 78.7345C61.4012 78.8705 61.6972 78.9705 62.0812 79.0345L62.5612 79.1065C63.2492 79.2105 63.7372 79.4105 64.0252 79.7065C64.3132 79.9945 64.4572 80.3745 64.4572 80.8465C64.4572 81.4465 64.2532 81.9185 63.8452 82.2625C63.4372 82.6065 62.8772 82.7785 62.1652 82.7785ZM68.4808 82.7785C68.0568 82.7785 67.6728 82.7025 67.3288 82.5505C66.9928 82.3985 66.7008 82.1825 66.4528 81.9025C66.2128 81.6145 66.0248 81.2745 65.8888 80.8825C65.7608 80.4825 65.6968 80.0345 65.6968 79.5385C65.6968 79.0505 65.7608 78.6065 65.8888 78.2065C66.0248 77.8065 66.2128 77.4665 66.4528 77.1865C66.7008 76.8985 66.9928 76.6785 67.3288 76.5265C67.6728 76.3745 68.0568 76.2985 68.4808 76.2985C68.8968 76.2985 69.2688 76.3745 69.5968 76.5265C69.9248 76.6785 70.2048 76.8905 70.4368 77.1625C70.6688 77.4265 70.8448 77.7425 70.9648 78.1105C71.0928 78.4785 71.1568 78.8825 71.1568 79.3225V79.7785H66.7048V80.0665C66.7048 80.3305 66.7448 80.5785 66.8248 80.8105C66.9128 81.0345 67.0328 81.2305 67.1848 81.3985C67.3448 81.5665 67.5368 81.6985 67.7608 81.7945C67.9928 81.8905 68.2528 81.9385 68.5408 81.9385C68.9328 81.9385 69.2728 81.8465 69.5608 81.6625C69.8568 81.4785 70.0848 81.2145 70.2448 80.8705L70.9288 81.3625C70.7288 81.7865 70.4168 82.1305 69.9928 82.3945C69.5688 82.6505 69.0648 82.7785 68.4808 82.7785ZM68.4808 77.1025C68.2168 77.1025 67.9768 77.1505 67.7608 77.2465C67.5448 77.3345 67.3568 77.4625 67.1968 77.6305C67.0448 77.7985 66.9248 77.9985 66.8368 78.2305C66.7488 78.4545 66.7048 78.7025 66.7048 78.9745V79.0585H70.1248V78.9265C70.1248 78.3745 69.9728 77.9345 69.6688 77.6065C69.3728 77.2705 68.9768 77.1025 68.4808 77.1025ZM72.7388 82.6345V76.4425H73.6988V77.4505H73.7468C73.8988 77.0985 74.1108 76.8185 74.3828 76.6105C74.6628 76.4025 75.0348 76.2985 75.4988 76.2985C76.1388 76.2985 76.6428 76.5065 77.0108 76.9225C77.3868 77.3305 77.5748 77.9105 77.5748 78.6625V82.6345H76.6148V78.8305C76.6148 77.7185 76.1468 77.1625 75.2108 77.1625C75.0188 77.1625 74.8308 77.1865 74.6468 77.2345C74.4708 77.2825 74.3108 77.3545 74.1668 77.4505C74.0228 77.5465 73.9068 77.6705 73.8188 77.8225C73.7388 77.9665 73.6988 78.1385 73.6988 78.3385V82.6345H72.7388ZM80.9271 82.6345C80.5911 82.6345 80.3351 82.5425 80.1591 82.3585C79.9911 82.1665 79.9071 81.9185 79.9071 81.6145V77.2825H78.8871V76.4425H79.4631C79.6711 76.4425 79.8111 76.4025 79.8831 76.3225C79.9631 76.2345 80.0031 76.0865 80.0031 75.8785V74.7265H80.8671V76.4425H82.2231V77.2825H80.8671V81.7945H82.1271V82.6345H80.9271ZM87.97 82.6345C87.634 82.6345 87.378 82.5425 87.202 82.3585C87.034 82.1665 86.95 81.9185 86.95 81.6145V77.2825H85.93V76.4425H86.506C86.714 76.4425 86.854 76.4025 86.926 76.3225C87.006 76.2345 87.046 76.0865 87.046 75.8785V74.7265H87.91V76.4425H89.266V77.2825H87.91V81.7945H89.17V82.6345H87.97ZM93.1022 82.7785C92.6862 82.7785 92.3062 82.7025 91.9622 82.5505C91.6182 82.3985 91.3222 82.1825 91.0742 81.9025C90.8342 81.6145 90.6462 81.2745 90.5102 80.8825C90.3742 80.4825 90.3062 80.0345 90.3062 79.5385C90.3062 79.0505 90.3742 78.6065 90.5102 78.2065C90.6462 77.8065 90.8342 77.4665 91.0742 77.1865C91.3222 76.8985 91.6182 76.6785 91.9622 76.5265C92.3062 76.3745 92.6862 76.2985 93.1022 76.2985C93.5182 76.2985 93.8942 76.3745 94.2302 76.5265C94.5742 76.6785 94.8702 76.8985 95.1182 77.1865C95.3662 77.4665 95.5582 77.8065 95.6942 78.2065C95.8302 78.6065 95.8982 79.0505 95.8982 79.5385C95.8982 80.0345 95.8302 80.4825 95.6942 80.8825C95.5582 81.2745 95.3662 81.6145 95.1182 81.9025C94.8702 82.1825 94.5742 82.3985 94.2302 82.5505C93.8942 82.7025 93.5182 82.7785 93.1022 82.7785ZM93.1022 81.9265C93.6222 81.9265 94.0462 81.7665 94.3742 81.4465C94.7022 81.1265 94.8662 80.6385 94.8662 79.9825V79.0945C94.8662 78.4385 94.7022 77.9505 94.3742 77.6305C94.0462 77.3105 93.6222 77.1505 93.1022 77.1505C92.5822 77.1505 92.1582 77.3105 91.8302 77.6305C91.5022 77.9505 91.3382 78.4385 91.3382 79.0945V79.9825C91.3382 80.6385 91.5022 81.1265 91.8302 81.4465C92.1582 81.7665 92.5822 81.9265 93.1022 81.9265ZM102.617 82.7785C102.185 82.7785 101.797 82.7025 101.453 82.5505C101.109 82.3985 100.817 82.1825 100.577 81.9025C100.345 81.6225 100.165 81.2825 100.037 80.8825C99.917 80.4825 99.857 80.0345 99.857 79.5385C99.857 79.0425 99.917 78.5945 100.037 78.1945C100.165 77.7945 100.345 77.4545 100.577 77.1745C100.817 76.8945 101.109 76.6785 101.453 76.5265C101.797 76.3745 102.185 76.2985 102.617 76.2985C103.233 76.2985 103.725 76.4345 104.093 76.7065C104.469 76.9705 104.749 77.3185 104.933 77.7505L104.129 78.1585C104.017 77.8385 103.833 77.5905 103.577 77.4145C103.321 77.2385 103.001 77.1505 102.617 77.1505C102.329 77.1505 102.077 77.1985 101.861 77.2945C101.645 77.3825 101.465 77.5105 101.321 77.6785C101.177 77.8385 101.069 78.0345 100.997 78.2665C100.925 78.4905 100.889 78.7385 100.889 79.0105V80.0665C100.889 80.6105 101.033 81.0585 101.321 81.4105C101.617 81.7545 102.049 81.9265 102.617 81.9265C103.393 81.9265 103.953 81.5665 104.297 80.8465L104.993 81.3145C104.793 81.7625 104.493 82.1185 104.093 82.3825C103.701 82.6465 103.209 82.7785 102.617 82.7785ZM108.618 82.7785C108.202 82.7785 107.822 82.7025 107.478 82.5505C107.134 82.3985 106.838 82.1825 106.59 81.9025C106.35 81.6145 106.162 81.2745 106.026 80.8825C105.89 80.4825 105.822 80.0345 105.822 79.5385C105.822 79.0505 105.89 78.6065 106.026 78.2065C106.162 77.8065 106.35 77.4665 106.59 77.1865C106.838 76.8985 107.134 76.6785 107.478 76.5265C107.822 76.3745 108.202 76.2985 108.618 76.2985C109.034 76.2985 109.41 76.3745 109.746 76.5265C110.09 76.6785 110.386 76.8985 110.634 77.1865C110.882 77.4665 111.074 77.8065 111.21 78.2065C111.346 78.6065 111.414 79.0505 111.414 79.5385C111.414 80.0345 111.346 80.4825 111.21 80.8825C111.074 81.2745 110.882 81.6145 110.634 81.9025C110.386 82.1825 110.09 82.3985 109.746 82.5505C109.41 82.7025 109.034 82.7785 108.618 82.7785ZM108.618 81.9265C109.138 81.9265 109.562 81.7665 109.89 81.4465C110.218 81.1265 110.382 80.6385 110.382 79.9825V79.0945C110.382 78.4385 110.218 77.9505 109.89 77.6305C109.562 77.3105 109.138 77.1505 108.618 77.1505C108.098 77.1505 107.674 77.3105 107.346 77.6305C107.018 77.9505 106.854 78.4385 106.854 79.0945V79.9825C106.854 80.6385 107.018 81.1265 107.346 81.4465C107.674 81.7665 108.098 81.9265 108.618 81.9265ZM112.993 82.6345V76.4425H113.953V77.5825H114.013C114.125 77.2865 114.325 77.0225 114.613 76.7905C114.901 76.5585 115.297 76.4425 115.801 76.4425H116.173V77.4025H115.609C115.089 77.4025 114.681 77.5025 114.385 77.7025C114.097 77.8945 113.953 78.1385 113.953 78.4345V82.6345H112.993ZM117.399 76.4425H118.359V77.4505H118.407C118.567 77.0585 118.799 76.7705 119.103 76.5865C119.415 76.3945 119.787 76.2985 120.219 76.2985C120.603 76.2985 120.951 76.3745 121.263 76.5265C121.575 76.6785 121.839 76.8945 122.055 77.1745C122.279 77.4545 122.447 77.7945 122.559 78.1945C122.679 78.5945 122.739 79.0425 122.739 79.5385C122.739 80.0345 122.679 80.4825 122.559 80.8825C122.447 81.2825 122.279 81.6225 122.055 81.9025C121.839 82.1825 121.575 82.3985 121.263 82.5505C120.951 82.7025 120.603 82.7785 120.219 82.7785C119.379 82.7785 118.775 82.3945 118.407 81.6265H118.359V85.0345H117.399V76.4425ZM119.955 81.9145C120.499 81.9145 120.927 81.7465 121.239 81.4105C121.551 81.0665 121.707 80.6185 121.707 80.0665V79.0105C121.707 78.4585 121.551 78.0145 121.239 77.6785C120.927 77.3345 120.499 77.1625 119.955 77.1625C119.739 77.1625 119.531 77.1945 119.331 77.2585C119.139 77.3145 118.971 77.3945 118.827 77.4985C118.683 77.6025 118.567 77.7305 118.479 77.8825C118.399 78.0265 118.359 78.1825 118.359 78.3505V80.6545C118.359 80.8545 118.399 81.0345 118.479 81.1945C118.567 81.3465 118.683 81.4785 118.827 81.5905C118.971 81.6945 119.139 81.7745 119.331 81.8305C119.531 81.8865 119.739 81.9145 119.955 81.9145ZM126.7 82.7785C126.284 82.7785 125.904 82.7025 125.56 82.5505C125.216 82.3985 124.92 82.1825 124.672 81.9025C124.432 81.6145 124.244 81.2745 124.108 80.8825C123.972 80.4825 123.904 80.0345 123.904 79.5385C123.904 79.0505 123.972 78.6065 124.108 78.2065C124.244 77.8065 124.432 77.4665 124.672 77.1865C124.92 76.8985 125.216 76.6785 125.56 76.5265C125.904 76.3745 126.284 76.2985 126.7 76.2985C127.116 76.2985 127.492 76.3745 127.828 76.5265C128.172 76.6785 128.468 76.8985 128.716 77.1865C128.964 77.4665 129.156 77.8065 129.292 78.2065C129.428 78.6065 129.496 79.0505 129.496 79.5385C129.496 80.0345 129.428 80.4825 129.292 80.8825C129.156 81.2745 128.964 81.6145 128.716 81.9025C128.468 82.1825 128.172 82.3985 127.828 82.5505C127.492 82.7025 127.116 82.7785 126.7 82.7785ZM126.7 81.9265C127.22 81.9265 127.644 81.7665 127.972 81.4465C128.3 81.1265 128.464 80.6385 128.464 79.9825V79.0945C128.464 78.4385 128.3 77.9505 127.972 77.6305C127.644 77.3105 127.22 77.1505 126.7 77.1505C126.18 77.1505 125.756 77.3105 125.428 77.6305C125.1 77.9505 124.936 78.4385 124.936 79.0945V79.9825C124.936 80.6385 125.1 81.1265 125.428 81.4465C125.756 81.7665 126.18 81.9265 126.7 81.9265ZM131.075 82.6345V76.4425H132.035V77.5825H132.095C132.207 77.2865 132.407 77.0225 132.695 76.7905C132.983 76.5585 133.379 76.4425 133.883 76.4425H134.255V77.4025H133.691C133.171 77.4025 132.763 77.5025 132.467 77.7025C132.179 77.8945 132.035 78.1385 132.035 78.4345V82.6345H131.075ZM139.934 82.6345C139.574 82.6345 139.314 82.5385 139.154 82.3465C139.002 82.1545 138.906 81.9145 138.866 81.6265H138.806C138.67 82.0105 138.446 82.2985 138.134 82.4905C137.822 82.6825 137.45 82.7785 137.018 82.7785C136.362 82.7785 135.85 82.6105 135.482 82.2745C135.122 81.9385 134.942 81.4825 134.942 80.9065C134.942 80.3225 135.154 79.8745 135.578 79.5625C136.01 79.2505 136.678 79.0945 137.582 79.0945H138.806V78.4825C138.806 78.0425 138.686 77.7065 138.446 77.4745C138.206 77.2425 137.838 77.1265 137.342 77.1265C136.966 77.1265 136.65 77.2105 136.394 77.3785C136.146 77.5465 135.938 77.7705 135.77 78.0505L135.194 77.5105C135.362 77.1745 135.63 76.8905 135.998 76.6585C136.366 76.4185 136.83 76.2985 137.39 76.2985C138.142 76.2985 138.726 76.4825 139.142 76.8505C139.558 77.2185 139.766 77.7305 139.766 78.3865V81.7945H140.474V82.6345H139.934ZM137.174 81.9625C137.414 81.9625 137.634 81.9345 137.834 81.8785C138.034 81.8225 138.206 81.7425 138.35 81.6385C138.494 81.5345 138.606 81.4145 138.686 81.2785C138.766 81.1425 138.806 80.9945 138.806 80.8345V79.8145H137.534C136.982 79.8145 136.578 79.8945 136.322 80.0545C136.074 80.2145 135.95 80.4465 135.95 80.7505V81.0025C135.95 81.3065 136.058 81.5425 136.274 81.7105C136.498 81.8785 136.798 81.9625 137.174 81.9625ZM143.212 82.6345C142.876 82.6345 142.62 82.5425 142.444 82.3585C142.276 82.1665 142.192 81.9185 142.192 81.6145V77.2825H141.172V76.4425H141.748C141.956 76.4425 142.096 76.4025 142.168 76.3225C142.248 76.2345 142.288 76.0865 142.288 75.8785V74.7265H143.152V76.4425H144.508V77.2825H143.152V81.7945H144.412V82.6345H143.212ZM148.332 82.7785C147.908 82.7785 147.524 82.7025 147.18 82.5505C146.844 82.3985 146.552 82.1825 146.304 81.9025C146.064 81.6145 145.876 81.2745 145.74 80.8825C145.612 80.4825 145.548 80.0345 145.548 79.5385C145.548 79.0505 145.612 78.6065 145.74 78.2065C145.876 77.8065 146.064 77.4665 146.304 77.1865C146.552 76.8985 146.844 76.6785 147.18 76.5265C147.524 76.3745 147.908 76.2985 148.332 76.2985C148.748 76.2985 149.12 76.3745 149.448 76.5265C149.776 76.6785 150.056 76.8905 150.288 77.1625C150.52 77.4265 150.696 77.7425 150.816 78.1105C150.944 78.4785 151.008 78.8825 151.008 79.3225V79.7785H146.556V80.0665C146.556 80.3305 146.596 80.5785 146.676 80.8105C146.764 81.0345 146.884 81.2305 147.036 81.3985C147.196 81.5665 147.388 81.6985 147.612 81.7945C147.844 81.8905 148.104 81.9385 148.392 81.9385C148.784 81.9385 149.124 81.8465 149.412 81.6625C149.708 81.4785 149.936 81.2145 150.096 80.8705L150.78 81.3625C150.58 81.7865 150.268 82.1305 149.844 82.3945C149.42 82.6505 148.916 82.7785 148.332 82.7785ZM148.332 77.1025C148.068 77.1025 147.828 77.1505 147.612 77.2465C147.396 77.3345 147.208 77.4625 147.048 77.6305C146.896 77.7985 146.776 77.9985 146.688 78.2305C146.6 78.4545 146.556 78.7025 146.556 78.9745V79.0585H149.976V78.9265C149.976 78.3745 149.824 77.9345 149.52 77.6065C149.224 77.2705 148.828 77.1025 148.332 77.1025ZM157.286 82.7785C156.71 82.7785 156.226 82.6705 155.834 82.4545C155.45 82.2305 155.118 81.9345 154.838 81.5665L155.522 81.0145C155.762 81.3185 156.03 81.5545 156.326 81.7225C156.622 81.8825 156.966 81.9625 157.358 81.9625C157.766 81.9625 158.082 81.8745 158.306 81.6985C158.538 81.5225 158.654 81.2745 158.654 80.9545C158.654 80.7145 158.574 80.5105 158.414 80.3425C158.262 80.1665 157.982 80.0465 157.574 79.9825L157.082 79.9105C156.794 79.8705 156.53 79.8105 156.29 79.7305C156.05 79.6425 155.838 79.5305 155.654 79.3945C155.478 79.2505 155.338 79.0745 155.234 78.8665C155.138 78.6585 155.09 78.4105 155.09 78.1225C155.09 77.8185 155.146 77.5545 155.258 77.3305C155.37 77.0985 155.522 76.9065 155.714 76.7545C155.914 76.6025 156.15 76.4905 156.422 76.4185C156.694 76.3385 156.986 76.2985 157.298 76.2985C157.802 76.2985 158.222 76.3865 158.558 76.5625C158.902 76.7385 159.202 76.9825 159.458 77.2945L158.822 77.8705C158.686 77.6785 158.486 77.5065 158.222 77.3545C157.958 77.1945 157.626 77.1145 157.226 77.1145C156.826 77.1145 156.522 77.2025 156.314 77.3785C156.114 77.5465 156.014 77.7785 156.014 78.0745C156.014 78.3785 156.114 78.5985 156.314 78.7345C156.522 78.8705 156.818 78.9705 157.202 79.0345L157.682 79.1065C158.37 79.2105 158.858 79.4105 159.146 79.7065C159.434 79.9945 159.578 80.3745 159.578 80.8465C159.578 81.4465 159.374 81.9185 158.966 82.2625C158.558 82.6065 157.998 82.7785 157.286 82.7785ZM165.09 81.6265H165.042C164.978 81.7705 164.898 81.9145 164.802 82.0585C164.714 82.1945 164.602 82.3185 164.466 82.4305C164.33 82.5345 164.166 82.6185 163.974 82.6825C163.782 82.7465 163.558 82.7785 163.302 82.7785C162.662 82.7785 162.154 82.5745 161.778 82.1665C161.402 81.7505 161.214 81.1665 161.214 80.4145V76.4425H162.174V80.2465C162.174 81.3585 162.646 81.9145 163.59 81.9145C163.782 81.9145 163.966 81.8905 164.142 81.8425C164.326 81.7945 164.486 81.7225 164.622 81.6265C164.766 81.5305 164.878 81.4105 164.958 81.2665C165.046 81.1145 165.09 80.9345 165.09 80.7265V76.4425H166.05V82.6345H165.09V81.6265ZM168.094 82.6345V76.4425H169.054V77.5825H169.114C169.226 77.2865 169.426 77.0225 169.714 76.7905C170.002 76.5585 170.398 76.4425 170.902 76.4425H171.274V77.4025H170.71C170.19 77.4025 169.782 77.5025 169.486 77.7025C169.198 77.8945 169.054 78.1385 169.054 78.4345V82.6345H168.094ZM173.986 82.6345L171.814 76.4425H172.774L173.854 79.5145L174.526 81.6265H174.586L175.258 79.5145L176.362 76.4425H177.286L175.102 82.6345H173.986ZM180.758 82.7785C180.334 82.7785 179.95 82.7025 179.606 82.5505C179.27 82.3985 178.978 82.1825 178.73 81.9025C178.49 81.6145 178.302 81.2745 178.166 80.8825C178.038 80.4825 177.974 80.0345 177.974 79.5385C177.974 79.0505 178.038 78.6065 178.166 78.2065C178.302 77.8065 178.49 77.4665 178.73 77.1865C178.978 76.8985 179.27 76.6785 179.606 76.5265C179.95 76.3745 180.334 76.2985 180.758 76.2985C181.174 76.2985 181.546 76.3745 181.874 76.5265C182.202 76.6785 182.482 76.8905 182.714 77.1625C182.946 77.4265 183.122 77.7425 183.242 78.1105C183.37 78.4785 183.434 78.8825 183.434 79.3225V79.7785H178.982V80.0665C178.982 80.3305 179.022 80.5785 179.102 80.8105C179.19 81.0345 179.31 81.2305 179.462 81.3985C179.622 81.5665 179.814 81.6985 180.038 81.7945C180.27 81.8905 180.53 81.9385 180.818 81.9385C181.21 81.9385 181.55 81.8465 181.838 81.6625C182.134 81.4785 182.362 81.2145 182.522 80.8705L183.206 81.3625C183.006 81.7865 182.694 82.1305 182.27 82.3945C181.846 82.6505 181.342 82.7785 180.758 82.7785ZM180.758 77.1025C180.494 77.1025 180.254 77.1505 180.038 77.2465C179.822 77.3345 179.634 77.4625 179.474 77.6305C179.322 77.7985 179.202 77.9985 179.114 78.2305C179.026 78.4545 178.982 78.7025 178.982 78.9745V79.0585H182.402V78.9265C182.402 78.3745 182.25 77.9345 181.946 77.6065C181.65 77.2705 181.254 77.1025 180.758 77.1025ZM185.496 74.9905C185.288 74.9905 185.136 74.9425 185.04 74.8465C184.952 74.7425 184.908 74.6105 184.908 74.4505V74.2945C184.908 74.1345 184.952 74.0065 185.04 73.9105C185.136 73.8065 185.288 73.7545 185.496 73.7545C185.704 73.7545 185.852 73.8065 185.94 73.9105C186.036 74.0065 186.084 74.1345 186.084 74.2945V74.4505C186.084 74.6105 186.036 74.7425 185.94 74.8465C185.852 74.9425 185.704 74.9905 185.496 74.9905ZM185.016 76.4425H185.976V82.6345H185.016V76.4425ZM189.036 82.6345C188.7 82.6345 188.444 82.5425 188.268 82.3585C188.1 82.1665 188.016 81.9265 188.016 81.6385V73.7545H188.976V81.7945H189.888V82.6345H189.036ZM192.247 82.6345C191.911 82.6345 191.655 82.5425 191.479 82.3585C191.311 82.1665 191.227 81.9265 191.227 81.6385V73.7545H192.187V81.7945H193.099V82.6345H192.247ZM198.997 82.6345C198.637 82.6345 198.377 82.5385 198.217 82.3465C198.065 82.1545 197.969 81.9145 197.929 81.6265H197.869C197.733 82.0105 197.509 82.2985 197.197 82.4905C196.885 82.6825 196.513 82.7785 196.081 82.7785C195.425 82.7785 194.913 82.6105 194.545 82.2745C194.185 81.9385 194.005 81.4825 194.005 80.9065C194.005 80.3225 194.217 79.8745 194.641 79.5625C195.073 79.2505 195.741 79.0945 196.645 79.0945H197.869V78.4825C197.869 78.0425 197.749 77.7065 197.509 77.4745C197.269 77.2425 196.901 77.1265 196.405 77.1265C196.029 77.1265 195.713 77.2105 195.457 77.3785C195.209 77.5465 195.001 77.7705 194.833 78.0505L194.257 77.5105C194.425 77.1745 194.693 76.8905 195.061 76.6585C195.429 76.4185 195.893 76.2985 196.453 76.2985C197.205 76.2985 197.789 76.4825 198.205 76.8505C198.621 77.2185 198.829 77.7305 198.829 78.3865V81.7945H199.537V82.6345H198.997ZM196.237 81.9625C196.477 81.9625 196.697 81.9345 196.897 81.8785C197.097 81.8225 197.269 81.7425 197.413 81.6385C197.557 81.5345 197.669 81.4145 197.749 81.2785C197.829 81.1425 197.869 80.9945 197.869 80.8345V79.8145H196.597C196.045 79.8145 195.641 79.8945 195.385 80.0545C195.137 80.2145 195.013 80.4465 195.013 80.7505V81.0025C195.013 81.3065 195.121 81.5425 195.337 81.7105C195.561 81.8785 195.861 81.9625 196.237 81.9625ZM200.907 82.6345V76.4425H201.867V77.4505H201.915C202.067 77.0985 202.279 76.8185 202.551 76.6105C202.831 76.4025 203.203 76.2985 203.667 76.2985C204.307 76.2985 204.811 76.5065 205.179 76.9225C205.555 77.3305 205.743 77.9105 205.743 78.6625V82.6345H204.783V78.8305C204.783 77.7185 204.315 77.1625 203.379 77.1625C203.187 77.1625 202.999 77.1865 202.815 77.2345C202.639 77.2825 202.479 77.3545 202.335 77.4505C202.191 77.5465 202.075 77.6705 201.987 77.8225C201.907 77.9665 201.867 78.1385 201.867 78.3385V82.6345H200.907ZM210.031 82.7785C209.599 82.7785 209.211 82.7025 208.867 82.5505C208.523 82.3985 208.231 82.1825 207.991 81.9025C207.759 81.6225 207.579 81.2825 207.451 80.8825C207.331 80.4825 207.271 80.0345 207.271 79.5385C207.271 79.0425 207.331 78.5945 207.451 78.1945C207.579 77.7945 207.759 77.4545 207.991 77.1745C208.231 76.8945 208.523 76.6785 208.867 76.5265C209.211 76.3745 209.599 76.2985 210.031 76.2985C210.647 76.2985 211.139 76.4345 211.507 76.7065C211.883 76.9705 212.163 77.3185 212.347 77.7505L211.543 78.1585C211.431 77.8385 211.247 77.5905 210.991 77.4145C210.735 77.2385 210.415 77.1505 210.031 77.1505C209.743 77.1505 209.491 77.1985 209.275 77.2945C209.059 77.3825 208.879 77.5105 208.735 77.6785C208.591 77.8385 208.483 78.0345 208.411 78.2665C208.339 78.4905 208.303 78.7385 208.303 79.0105V80.0665C208.303 80.6105 208.447 81.0585 208.735 81.4105C209.031 81.7545 209.463 81.9265 210.031 81.9265C210.807 81.9265 211.367 81.5665 211.711 80.8465L212.407 81.3145C212.207 81.7625 211.907 82.1185 211.507 82.3825C211.115 82.6465 210.623 82.7785 210.031 82.7785ZM216.02 82.7785C215.596 82.7785 215.212 82.7025 214.868 82.5505C214.532 82.3985 214.24 82.1825 213.992 81.9025C213.752 81.6145 213.564 81.2745 213.428 80.8825C213.3 80.4825 213.236 80.0345 213.236 79.5385C213.236 79.0505 213.3 78.6065 213.428 78.2065C213.564 77.8065 213.752 77.4665 213.992 77.1865C214.24 76.8985 214.532 76.6785 214.868 76.5265C215.212 76.3745 215.596 76.2985 216.02 76.2985C216.436 76.2985 216.808 76.3745 217.136 76.5265C217.464 76.6785 217.744 76.8905 217.976 77.1625C218.208 77.4265 218.384 77.7425 218.504 78.1105C218.632 78.4785 218.696 78.8825 218.696 79.3225V79.7785H214.244V80.0665C214.244 80.3305 214.284 80.5785 214.364 80.8105C214.452 81.0345 214.572 81.2305 214.724 81.3985C214.884 81.5665 215.076 81.6985 215.3 81.7945C215.532 81.8905 215.792 81.9385 216.08 81.9385C216.472 81.9385 216.812 81.8465 217.1 81.6625C217.396 81.4785 217.624 81.2145 217.784 80.8705L218.468 81.3625C218.268 81.7865 217.956 82.1305 217.532 82.3945C217.108 82.6505 216.604 82.7785 216.02 82.7785ZM216.02 77.1025C215.756 77.1025 215.516 77.1505 215.3 77.2465C215.084 77.3345 214.896 77.4625 214.736 77.6305C214.584 77.7985 214.464 77.9985 214.376 78.2305C214.288 78.4545 214.244 78.7025 214.244 78.9745V79.0585H217.664V78.9265C217.664 78.3745 217.512 77.9345 217.208 77.6065C216.912 77.2705 216.516 77.1025 216.02 77.1025Z" fill="white"/>
<rect x="1" y="37" width="18.0909" height="18.3846" rx="3" stroke="white" stroke-width="2"/>
<rect x="1" y="69.6155" width="18.0909" height="18.3846" rx="3" stroke="white" stroke-width="2"/>
<path d="M12.2801 42.9309L8.96676 46.5895L7.80656 45.3082C7.69807 45.1883 7.56548 45.0898 7.4148 45.0171C7.26563 44.9443 7.1014 44.9001 6.93264 44.8858C6.76388 44.8715 6.59362 44.8886 6.4324 44.9357C6.26967 44.9814 6.11899 45.057 5.98941 45.1569C5.85983 45.2568 5.75134 45.3795 5.67299 45.5165C5.59464 45.6549 5.54642 45.8062 5.53136 45.9617C5.51478 46.1172 5.53286 46.2728 5.58409 46.4226C5.63382 46.571 5.71518 46.7094 5.82367 46.8293L7.97532 49.2065C8.09586 49.3407 8.24804 49.4477 8.41981 49.5219C8.59007 49.5961 8.77691 49.6346 8.96676 49.6346C9.15511 49.6346 9.34195 49.5961 9.51372 49.5233C9.68549 49.4491 9.83616 49.3407 9.95821 49.208L14.263 44.4534C14.3715 44.3336 14.4544 44.1952 14.5056 44.0453C14.5568 43.8969 14.5764 43.74 14.5614 43.5844C14.5463 43.4275 14.4981 43.2762 14.4197 43.1378C14.3399 42.9994 14.2329 42.8767 14.1018 42.7754C13.9722 42.6755 13.8215 42.5998 13.6588 42.5542C13.4961 42.5071 13.3258 42.49 13.1571 42.5057C12.9868 42.5199 12.8226 42.5642 12.6719 42.6369C12.5227 42.7097 12.3886 42.8096 12.2801 42.9309Z" fill="white"/>
</svg>
