<svg width="220" height="84" viewBox="0 0 220 84" fill="none" xmlns="http://www.w3.org/2000/svg">
<path d="M4 1H216C217.657 1 219 2.34314 219 4V80C219 81.6569 217.657 83 216 83H4C2.34315 83 1 81.6569 1 80V4L1.00391 3.8457C1.08421 2.26055 2.39489 1 4 1Z" stroke="#3B3B3B" stroke-width="2"/>
<line x1="9" y1="41.5" x2="88" y2="41.5" stroke="white"/>
<line x1="134" y1="41.5" x2="213" y2="41.5" stroke="white"/>
<path d="M94.36 34.16H95.64V39.088H95.704C95.9173 38.5653 96.2267 38.1813 96.632 37.936C97.048 37.68 97.544 37.552 98.12 37.552C98.632 37.552 99.096 37.6533 99.512 37.856C99.928 38.0587 100.28 38.3467 100.568 38.72C100.867 39.0933 101.091 39.5467 101.24 40.08C101.4 40.6133 101.48 41.2107 101.48 41.872C101.48 42.5333 101.4 43.1307 101.24 43.664C101.091 44.1973 100.867 44.6507 100.568 45.024C100.28 45.3973 99.928 45.6853 99.512 45.888C99.096 46.0907 98.632 46.192 98.12 46.192C97 46.192 96.1947 45.68 95.704 44.656H95.64V46H94.36V34.16ZM97.768 45.04C98.4933 45.04 99.064 44.816 99.48 44.368C99.896 43.9093 100.104 43.312 100.104 42.576V41.168C100.104 40.432 99.896 39.84 99.48 39.392C99.064 38.9333 98.4933 38.704 97.768 38.704C97.48 38.704 97.2027 38.7467 96.936 38.832C96.68 38.9067 96.456 39.0133 96.264 39.152C96.072 39.2907 95.9173 39.4613 95.8 39.664C95.6933 39.856 95.64 40.064 95.64 40.288V43.36C95.64 43.6267 95.6933 43.8667 95.8 44.08C95.9173 44.2827 96.072 44.4587 96.264 44.608C96.456 44.7467 96.68 44.8533 96.936 44.928C97.2027 45.0027 97.48 45.04 97.768 45.04ZM103.641 46V37.744H104.921V39.264H105.001C105.151 38.8693 105.417 38.5173 105.801 38.208C106.185 37.8987 106.713 37.744 107.385 37.744H107.881V39.024H107.129C106.436 39.024 105.892 39.1573 105.497 39.424C105.113 39.68 104.921 40.0053 104.921 40.4V46H103.641ZM110.156 35.808C109.879 35.808 109.676 35.744 109.548 35.616C109.431 35.4773 109.372 35.3013 109.372 35.088V34.88C109.372 34.6667 109.431 34.496 109.548 34.368C109.676 34.2293 109.879 34.16 110.156 34.16C110.434 34.16 110.631 34.2293 110.748 34.368C110.876 34.496 110.94 34.6667 110.94 34.88V35.088C110.94 35.3013 110.876 35.4773 110.748 35.616C110.631 35.744 110.434 35.808 110.156 35.808ZM109.516 37.744H110.796V46H109.516V37.744ZM116.588 46.192C116.012 46.192 115.495 46.0907 115.036 45.888C114.578 45.6853 114.188 45.3973 113.868 45.024C113.559 44.6507 113.319 44.1973 113.148 43.664C112.988 43.1307 112.908 42.5333 112.908 41.872C112.908 41.2107 112.988 40.6133 113.148 40.08C113.319 39.5467 113.559 39.0933 113.868 38.72C114.188 38.3467 114.578 38.0587 115.036 37.856C115.495 37.6533 116.012 37.552 116.588 37.552C117.41 37.552 118.066 37.7333 118.556 38.096C119.058 38.448 119.431 38.912 119.676 39.488L118.604 40.032C118.455 39.6053 118.21 39.2747 117.868 39.04C117.527 38.8053 117.1 38.688 116.588 38.688C116.204 38.688 115.868 38.752 115.58 38.88C115.292 38.9973 115.052 39.168 114.86 39.392C114.668 39.6053 114.524 39.8667 114.428 40.176C114.332 40.4747 114.284 40.8053 114.284 41.168V42.576C114.284 43.3013 114.476 43.8987 114.86 44.368C115.255 44.8267 115.831 45.056 116.588 45.056C117.623 45.056 118.37 44.576 118.828 43.616L119.756 44.24C119.49 44.8373 119.09 45.312 118.556 45.664C118.034 46.016 117.378 46.192 116.588 46.192ZM121.563 34.16H122.843V41.664H122.907L124.171 40.256L126.507 37.744H128.059L125.003 41.008L128.363 46H126.811L124.075 41.792L122.843 43.056V46H121.563V34.16Z" fill="white"/>
</svg>
