<svg width="174" height="56" viewBox="0 0 174 56" fill="none" xmlns="http://www.w3.org/2000/svg">
<path d="M6.17614 53.1591C5.46023 53.1591 4.84375 52.9901 4.3267 52.652C3.80966 52.3139 3.41193 51.8482 3.13352 51.255C2.85511 50.6617 2.71591 49.9839 2.71591 49.2216C2.71591 48.446 2.85843 47.7616 3.14347 47.1683C3.43182 46.5717 3.83286 46.1061 4.34659 45.7713C4.86364 45.4332 5.46686 45.2642 6.15625 45.2642C6.69318 45.2642 7.17708 45.3636 7.60795 45.5625C8.03883 45.7614 8.39181 46.0398 8.6669 46.3977C8.942 46.7557 9.11269 47.1733 9.17898 47.6506H8.00568C7.91619 47.3026 7.71733 46.9943 7.40909 46.7259C7.10417 46.4541 6.69318 46.3182 6.17614 46.3182C5.71875 46.3182 5.31771 46.4375 4.97301 46.6761C4.63163 46.9115 4.36482 47.2446 4.17259 47.6754C3.98366 48.103 3.8892 48.6051 3.8892 49.1818C3.8892 49.7718 3.98201 50.2855 4.16761 50.723C4.35653 51.1605 4.62169 51.5002 4.96307 51.7422C5.30777 51.9841 5.71212 52.1051 6.17614 52.1051C6.48106 52.1051 6.75781 52.0521 7.00639 51.946C7.25497 51.84 7.46544 51.6875 7.63778 51.4886C7.81013 51.2898 7.93277 51.0511 8.00568 50.7727H9.17898C9.11269 51.2235 8.94863 51.6295 8.68679 51.9908C8.42827 52.3487 8.08523 52.6338 7.65767 52.8459C7.23343 53.0547 6.73958 53.1591 6.17614 53.1591ZM10.8942 55.8636V45.3636H12.0277V46.5767H12.1669C12.2531 46.4441 12.3724 46.2751 12.5249 46.0696C12.6806 45.8608 12.9027 45.6752 13.1911 45.5128C13.4827 45.3471 13.8771 45.2642 14.3743 45.2642C15.0173 45.2642 15.584 45.425 16.0746 45.7464C16.5651 46.0679 16.9479 46.5237 17.223 47.1136C17.4981 47.7036 17.6357 48.3996 17.6357 49.2017C17.6357 50.0104 17.4981 50.7114 17.223 51.3047C16.9479 51.8946 16.5668 52.352 16.0795 52.6768C15.5923 52.9983 15.0305 53.1591 14.3942 53.1591C13.9036 53.1591 13.5109 53.0779 13.2159 52.9155C12.9209 52.7498 12.6939 52.5625 12.5348 52.3537C12.3757 52.1416 12.2531 51.9659 12.1669 51.8267H12.0675V55.8636H10.8942ZM12.0476 49.1818C12.0476 49.7585 12.1321 50.2673 12.3011 50.7081C12.4702 51.1456 12.7171 51.4886 13.0419 51.7372C13.3667 51.9825 13.7644 52.1051 14.2351 52.1051C14.7256 52.1051 15.1349 51.9759 15.4631 51.7173C15.7945 51.4555 16.0431 51.1042 16.2088 50.6634C16.3778 50.2192 16.4624 49.7254 16.4624 49.1818C16.4624 48.6449 16.3795 48.161 16.2138 47.7301C16.0514 47.2959 15.8045 46.9529 15.473 46.701C15.1449 46.4458 14.7322 46.3182 14.2351 46.3182C13.7578 46.3182 13.3568 46.4392 13.032 46.6811C12.7071 46.9197 12.4619 47.2545 12.2962 47.6854C12.1304 48.1129 12.0476 48.6117 12.0476 49.1818ZM24.2379 49.8778V45.3636H25.4112V53H24.2379V51.7074H24.1584C23.9794 52.0952 23.701 52.425 23.3232 52.6967C22.9453 52.9652 22.468 53.0994 21.8913 53.0994C21.4141 53.0994 20.9898 52.995 20.6186 52.7862C20.2474 52.5741 19.9557 52.2559 19.7436 51.8317C19.5315 51.4041 19.4254 50.8655 19.4254 50.2159V45.3636H20.5987V50.1364C20.5987 50.6932 20.7545 51.1373 21.0661 51.4688C21.3809 51.8002 21.782 51.9659 22.2692 51.9659C22.5608 51.9659 22.8575 51.8913 23.1591 51.7422C23.464 51.593 23.7192 51.3643 23.9247 51.0561C24.1335 50.7479 24.2379 50.3551 24.2379 49.8778ZM32.671 42.8182V53H31.4977V42.8182H32.671ZM37.9222 53.1591C37.2328 53.1591 36.628 52.995 36.1076 52.6669C35.5906 52.3388 35.1862 51.8797 34.8945 51.2898C34.6062 50.6998 34.462 50.0104 34.462 49.2216C34.462 48.4261 34.6062 47.7318 34.8945 47.1385C35.1862 46.5452 35.5906 46.0845 36.1076 45.7564C36.628 45.4283 37.2328 45.2642 37.9222 45.2642C38.6116 45.2642 39.2148 45.4283 39.7319 45.7564C40.2522 46.0845 40.6566 46.5452 40.945 47.1385C41.2366 47.7318 41.3825 48.4261 41.3825 49.2216C41.3825 50.0104 41.2366 50.6998 40.945 51.2898C40.6566 51.8797 40.2522 52.3388 39.7319 52.6669C39.2148 52.995 38.6116 53.1591 37.9222 53.1591ZM37.9222 52.1051C38.4459 52.1051 38.8768 51.9709 39.2148 51.7024C39.5529 51.4339 39.8031 51.081 39.9656 50.6435C40.128 50.206 40.2092 49.732 40.2092 49.2216C40.2092 48.7112 40.128 48.2356 39.9656 47.7947C39.8031 47.3539 39.5529 46.9976 39.2148 46.7259C38.8768 46.4541 38.4459 46.3182 37.9222 46.3182C37.3986 46.3182 36.9677 46.4541 36.6296 46.7259C36.2915 46.9976 36.0413 47.3539 35.8789 47.7947C35.7165 48.2356 35.6353 48.7112 35.6353 49.2216C35.6353 49.732 35.7165 50.206 35.8789 50.6435C36.0413 51.081 36.2915 51.4339 36.6296 51.7024C36.9677 51.9709 37.3986 52.1051 37.9222 52.1051ZM45.4206 53.179C44.9367 53.179 44.4976 53.0878 44.1032 52.9055C43.7087 52.7199 43.3955 52.4531 43.1635 52.1051C42.9315 51.7538 42.8155 51.3295 42.8155 50.8324C42.8155 50.3949 42.9017 50.0402 43.074 49.7685C43.2464 49.4934 43.4767 49.2779 43.7651 49.1222C44.0534 48.9664 44.3716 48.8504 44.7196 48.7741C45.071 48.6946 45.4239 48.6316 45.7786 48.5852C46.2426 48.5256 46.6188 48.4808 46.9071 48.451C47.1988 48.4179 47.4109 48.3632 47.5435 48.2869C47.6794 48.2107 47.7473 48.0781 47.7473 47.8892V47.8494C47.7473 47.3589 47.6131 46.9777 47.3446 46.706C47.0795 46.4342 46.6768 46.2983 46.1365 46.2983C45.5764 46.2983 45.1373 46.4209 44.8191 46.6662C44.5009 46.9115 44.2772 47.1733 44.1479 47.4517L43.0343 47.054C43.2331 46.59 43.4983 46.2287 43.8297 45.9702C44.1645 45.7083 44.5291 45.526 44.9235 45.4233C45.3212 45.3172 45.7123 45.2642 46.0968 45.2642C46.342 45.2642 46.6238 45.294 46.9419 45.3537C47.2634 45.41 47.5733 45.5277 47.8716 45.7067C48.1732 45.8857 48.4235 46.1558 48.6223 46.517C48.8212 46.8783 48.9206 47.3622 48.9206 47.9688V53H47.7473V51.9659H47.6877C47.6081 52.1316 47.4756 52.3089 47.29 52.4979C47.1043 52.6868 46.8574 52.8475 46.5492 52.9801C46.2409 53.1127 45.8648 53.179 45.4206 53.179ZM45.5996 52.125C46.0636 52.125 46.4547 52.0339 46.7729 51.8516C47.0944 51.6693 47.3364 51.4339 47.4988 51.1456C47.6645 50.8572 47.7473 50.554 47.7473 50.2358V49.1619C47.6976 49.2216 47.5882 49.2763 47.4192 49.326C47.2535 49.3724 47.0613 49.4138 46.8425 49.4503C46.6271 49.4834 46.4166 49.5133 46.2111 49.5398C46.0089 49.563 45.8449 49.5829 45.7189 49.5994C45.414 49.6392 45.129 49.7038 44.8638 49.7933C44.602 49.8795 44.3899 50.0104 44.2275 50.1861C44.0684 50.3584 43.9888 50.5937 43.9888 50.892C43.9888 51.2997 44.1396 51.608 44.4412 51.8168C44.7462 52.0223 45.1323 52.125 45.5996 52.125ZM53.9457 53.1591C53.3093 53.1591 52.7475 52.9983 52.2603 52.6768C51.7731 52.352 51.3919 51.8946 51.1168 51.3047C50.8417 50.7114 50.7042 50.0104 50.7042 49.2017C50.7042 48.3996 50.8417 47.7036 51.1168 47.1136C51.3919 46.5237 51.7747 46.0679 52.2653 45.7464C52.7558 45.425 53.3226 45.2642 53.9656 45.2642C54.4627 45.2642 54.8555 45.3471 55.1438 45.5128C55.4355 45.6752 55.6576 45.8608 55.81 46.0696C55.9658 46.2751 56.0868 46.4441 56.1729 46.5767H56.2724V42.8182H57.4457V53H56.3121V51.8267H56.1729C56.0868 51.9659 55.9641 52.1416 55.805 52.3537C55.646 52.5625 55.4189 52.7498 55.1239 52.9155C54.829 53.0779 54.4362 53.1591 53.9457 53.1591ZM54.1048 52.1051C54.5754 52.1051 54.9731 51.9825 55.2979 51.7372C55.6228 51.4886 55.8697 51.1456 56.0387 50.7081C56.2077 50.2673 56.2923 49.7585 56.2923 49.1818C56.2923 48.6117 56.2094 48.1129 56.0437 47.6854C55.878 47.2545 55.6327 46.9197 55.3079 46.6811C54.9831 46.4392 54.582 46.3182 54.1048 46.3182C53.6076 46.3182 53.1933 46.4458 52.8619 46.701C52.5337 46.9529 52.2868 47.2959 52.1211 47.7301C51.9587 48.161 51.8775 48.6449 51.8775 49.1818C51.8775 49.7254 51.9603 50.2192 52.1261 50.6634C52.2951 51.1042 52.5437 51.4555 52.8718 51.7173C53.2032 51.9759 53.6142 52.1051 54.1048 52.1051Z" fill="#F3F3F3"/>
<path d="M110.074 53V45.3636H111.207V46.5568H111.307C111.466 46.1491 111.723 45.8326 112.077 45.6072C112.432 45.3786 112.858 45.2642 113.355 45.2642C113.859 45.2642 114.278 45.3786 114.613 45.6072C114.951 45.8326 115.214 46.1491 115.403 46.5568H115.483C115.679 46.1624 115.972 45.8492 116.363 45.6172C116.754 45.3819 117.223 45.2642 117.77 45.2642C118.453 45.2642 119.011 45.478 119.445 45.9055C119.879 46.3298 120.097 46.991 120.097 47.8892V53H118.923V47.8892C118.923 47.3258 118.769 46.9231 118.461 46.6811C118.153 46.4392 117.79 46.3182 117.372 46.3182C116.835 46.3182 116.419 46.4806 116.124 46.8054C115.829 47.1269 115.682 47.5346 115.682 48.0284V53H114.489V47.7699C114.489 47.3357 114.348 46.986 114.066 46.7209C113.784 46.4524 113.421 46.3182 112.977 46.3182C112.672 46.3182 112.387 46.3994 112.122 46.5618C111.86 46.7242 111.648 46.9496 111.486 47.2379C111.327 47.523 111.247 47.8527 111.247 48.2273V53H110.074ZM125.444 53.1591C124.708 53.1591 124.073 52.9967 123.539 52.6719C123.009 52.3438 122.6 51.8864 122.311 51.2997C122.026 50.7098 121.884 50.0237 121.884 49.2415C121.884 48.4593 122.026 47.7699 122.311 47.1733C122.6 46.5734 123.001 46.1061 123.515 45.7713C124.032 45.4332 124.635 45.2642 125.324 45.2642C125.722 45.2642 126.115 45.3305 126.502 45.4631C126.89 45.5956 127.243 45.8111 127.561 46.1094C127.88 46.4044 128.133 46.7955 128.322 47.2827C128.511 47.7699 128.605 48.3698 128.605 49.0824V49.5795H122.719V48.5653H127.412C127.412 48.1345 127.326 47.75 127.154 47.4119C126.985 47.0739 126.743 46.8071 126.428 46.6115C126.116 46.416 125.748 46.3182 125.324 46.3182C124.857 46.3182 124.453 46.4342 124.111 46.6662C123.773 46.8949 123.513 47.1932 123.331 47.5611C123.148 47.929 123.057 48.3234 123.057 48.7443V49.4205C123.057 49.9972 123.157 50.486 123.355 50.8871C123.558 51.2848 123.838 51.5881 124.196 51.7969C124.554 52.0024 124.97 52.1051 125.444 52.1051C125.752 52.1051 126.03 52.062 126.279 51.9759C126.531 51.8864 126.748 51.7538 126.93 51.5781C127.112 51.3991 127.253 51.1771 127.353 50.9119L128.486 51.2301C128.367 51.6146 128.166 51.9527 127.885 52.2443C127.603 52.5327 127.255 52.758 126.841 52.9205C126.426 53.0795 125.961 53.1591 125.444 53.1591ZM130.39 53V45.3636H131.524V46.5568H131.623C131.782 46.1491 132.039 45.8326 132.394 45.6072C132.748 45.3786 133.174 45.2642 133.672 45.2642C134.175 45.2642 134.595 45.3786 134.929 45.6072C135.267 45.8326 135.531 46.1491 135.72 46.5568H135.799C135.995 46.1624 136.288 45.8492 136.679 45.6172C137.07 45.3819 137.539 45.2642 138.086 45.2642C138.769 45.2642 139.328 45.478 139.762 45.9055C140.196 46.3298 140.413 46.991 140.413 47.8892V53H139.24V47.8892C139.24 47.3258 139.086 46.9231 138.777 46.6811C138.469 46.4392 138.106 46.3182 137.689 46.3182C137.152 46.3182 136.736 46.4806 136.441 46.8054C136.146 47.1269 135.998 47.5346 135.998 48.0284V53H134.805V47.7699C134.805 47.3357 134.664 46.986 134.382 46.7209C134.101 46.4524 133.738 46.3182 133.294 46.3182C132.989 46.3182 132.704 46.3994 132.439 46.5618C132.177 46.7242 131.965 46.9496 131.802 47.2379C131.643 47.523 131.564 47.8527 131.564 48.2273V53H130.39ZM147.669 42.8182V53H146.496V42.8182H147.669ZM152.92 53.1591C152.231 53.1591 151.626 52.995 151.106 52.6669C150.589 52.3388 150.184 51.8797 149.893 51.2898C149.604 50.6998 149.46 50.0104 149.46 49.2216C149.46 48.4261 149.604 47.7318 149.893 47.1385C150.184 46.5452 150.589 46.0845 151.106 45.7564C151.626 45.4283 152.231 45.2642 152.92 45.2642C153.61 45.2642 154.213 45.4283 154.73 45.7564C155.25 46.0845 155.655 46.5452 155.943 47.1385C156.235 47.7318 156.381 48.4261 156.381 49.2216C156.381 50.0104 156.235 50.6998 155.943 51.2898C155.655 51.8797 155.25 52.3388 154.73 52.6669C154.213 52.995 153.61 53.1591 152.92 53.1591ZM152.92 52.1051C153.444 52.1051 153.875 51.9709 154.213 51.7024C154.551 51.4339 154.801 51.081 154.964 50.6435C155.126 50.206 155.207 49.732 155.207 49.2216C155.207 48.7112 155.126 48.2356 154.964 47.7947C154.801 47.3539 154.551 46.9976 154.213 46.7259C153.875 46.4541 153.444 46.3182 152.92 46.3182C152.397 46.3182 151.966 46.4541 151.628 46.7259C151.29 46.9976 151.039 47.3539 150.877 47.7947C150.715 48.2356 150.633 48.7112 150.633 49.2216C150.633 49.732 150.715 50.206 150.877 50.6435C151.039 51.081 151.29 51.4339 151.628 51.7024C151.966 51.9709 152.397 52.1051 152.92 52.1051ZM160.419 53.179C159.935 53.179 159.496 53.0878 159.101 52.9055C158.707 52.7199 158.394 52.4531 158.162 52.1051C157.93 51.7538 157.814 51.3295 157.814 50.8324C157.814 50.3949 157.9 50.0402 158.072 49.7685C158.244 49.4934 158.475 49.2779 158.763 49.1222C159.051 48.9664 159.37 48.8504 159.718 48.7741C160.069 48.6946 160.422 48.6316 160.777 48.5852C161.241 48.5256 161.617 48.4808 161.905 48.451C162.197 48.4179 162.409 48.3632 162.542 48.2869C162.677 48.2107 162.745 48.0781 162.745 47.8892V47.8494C162.745 47.3589 162.611 46.9777 162.343 46.706C162.078 46.4342 161.675 46.2983 161.135 46.2983C160.574 46.2983 160.135 46.4209 159.817 46.6662C159.499 46.9115 159.275 47.1733 159.146 47.4517L158.032 47.054C158.231 46.59 158.496 46.2287 158.828 45.9702C159.163 45.7083 159.527 45.526 159.922 45.4233C160.319 45.3172 160.71 45.2642 161.095 45.2642C161.34 45.2642 161.622 45.294 161.94 45.3537C162.261 45.41 162.571 45.5277 162.87 45.7067C163.171 45.8857 163.422 46.1558 163.62 46.517C163.819 46.8783 163.919 47.3622 163.919 47.9688V53H162.745V51.9659H162.686C162.606 52.1316 162.474 52.3089 162.288 52.4979C162.102 52.6868 161.855 52.8475 161.547 52.9801C161.239 53.1127 160.863 53.179 160.419 53.179ZM160.598 52.125C161.062 52.125 161.453 52.0339 161.771 51.8516C162.092 51.6693 162.334 51.4339 162.497 51.1456C162.663 50.8572 162.745 50.554 162.745 50.2358V49.1619C162.696 49.2216 162.586 49.2763 162.417 49.326C162.252 49.3724 162.059 49.4138 161.841 49.4503C161.625 49.4834 161.415 49.5133 161.209 49.5398C161.007 49.563 160.843 49.5829 160.717 49.5994C160.412 49.6392 160.127 49.7038 159.862 49.7933C159.6 49.8795 159.388 50.0104 159.225 50.1861C159.066 50.3584 158.987 50.5937 158.987 50.892C158.987 51.2997 159.138 51.608 159.439 51.8168C159.744 52.0223 160.13 52.125 160.598 52.125ZM168.944 53.1591C168.307 53.1591 167.746 52.9983 167.258 52.6768C166.771 52.352 166.39 51.8946 166.115 51.3047C165.84 50.7114 165.702 50.0104 165.702 49.2017C165.702 48.3996 165.84 47.7036 166.115 47.1136C166.39 46.5237 166.773 46.0679 167.263 45.7464C167.754 45.425 168.321 45.2642 168.964 45.2642C169.461 45.2642 169.854 45.3471 170.142 45.5128C170.434 45.6752 170.656 45.8608 170.808 46.0696C170.964 46.2751 171.085 46.4441 171.171 46.5767H171.27V42.8182H172.444V53H171.31V51.8267H171.171C171.085 51.9659 170.962 52.1416 170.803 52.3537C170.644 52.5625 170.417 52.7498 170.122 52.9155C169.827 53.0779 169.434 53.1591 168.944 53.1591ZM169.103 52.1051C169.573 52.1051 169.971 51.9825 170.296 51.7372C170.621 51.4886 170.868 51.1456 171.037 50.7081C171.206 50.2673 171.29 49.7585 171.29 49.1818C171.29 48.6117 171.207 48.1129 171.042 47.6854C170.876 47.2545 170.631 46.9197 170.306 46.6811C169.981 46.4392 169.58 46.3182 169.103 46.3182C168.606 46.3182 168.191 46.4458 167.86 46.701C167.532 46.9529 167.285 47.2959 167.119 47.7301C166.957 48.161 166.876 48.6449 166.876 49.1818C166.876 49.7254 166.958 50.2192 167.124 50.6634C167.293 51.1042 167.542 51.4555 167.87 51.7173C168.201 51.9759 168.612 52.1051 169.103 52.1051Z" fill="#F3F3F3"/>
<path d="M22.255 21.8182V32H20.1023V23.8615H20.0426L17.7109 25.3232V23.4141L20.2315 21.8182H22.255ZM24.5208 30.2102V28.5149L28.7715 21.8182H30.2331V24.1648H29.3681L26.6884 28.4055V28.4851H32.7289V30.2102H24.5208ZM29.4078 32V29.6932L29.4476 28.9425V21.8182H31.4661V32H29.4078ZM39.7363 30.0909V29.554C39.7363 29.1463 39.8225 28.7718 39.9949 28.4304C40.1705 28.0857 40.4241 27.8106 40.7555 27.6051C41.0903 27.3963 41.4979 27.2919 41.9785 27.2919C42.4657 27.2919 42.8751 27.3946 43.2065 27.6001C43.5413 27.8056 43.7931 28.0807 43.9622 28.4254C44.1345 28.7668 44.2207 29.143 44.2207 29.554V30.0909C44.2207 30.4986 44.1345 30.8748 43.9622 31.2195C43.7898 31.5608 43.5363 31.8343 43.2015 32.0398C42.8668 32.2486 42.4591 32.353 41.9785 32.353C41.4913 32.353 41.082 32.2486 40.7505 32.0398C40.4191 31.8343 40.1672 31.5608 39.9949 31.2195C39.8225 30.8748 39.7363 30.4986 39.7363 30.0909ZM41.1831 29.554V30.0909C41.1831 30.3262 41.2394 30.5483 41.3521 30.7571C41.4681 30.9659 41.6769 31.0703 41.9785 31.0703C42.2801 31.0703 42.4856 30.9676 42.595 30.7621C42.7077 30.5566 42.764 30.3329 42.764 30.0909V29.554C42.764 29.312 42.711 29.0866 42.6049 28.8778C42.4989 28.669 42.2901 28.5646 41.9785 28.5646C41.6802 28.5646 41.4731 28.669 41.3571 28.8778C41.2411 29.0866 41.1831 29.312 41.1831 29.554ZM34.5112 24.2642V23.7273C34.5112 23.3163 34.599 22.9401 34.7747 22.5987C34.9503 22.254 35.2039 21.9789 35.5353 21.7734C35.8701 21.5679 36.2744 21.4652 36.7484 21.4652C37.2389 21.4652 37.6499 21.5679 37.9814 21.7734C38.3128 21.9789 38.5647 22.254 38.737 22.5987C38.9094 22.9401 38.9956 23.3163 38.9956 23.7273V24.2642C38.9956 24.6752 38.9077 25.0514 38.7321 25.3928C38.5597 25.7341 38.3062 26.0076 37.9714 26.2131C37.64 26.4152 37.2323 26.5163 36.7484 26.5163C36.2645 26.5163 35.8552 26.4136 35.5204 26.2081C35.189 25.9993 34.9371 25.7259 34.7647 25.3878C34.5957 25.0464 34.5112 24.6719 34.5112 24.2642ZM35.9679 23.7273V24.2642C35.9679 24.5062 36.0242 24.7299 36.1369 24.9354C36.2529 25.1409 36.4567 25.2436 36.7484 25.2436C37.0533 25.2436 37.2605 25.1409 37.3699 24.9354C37.4825 24.7299 37.5389 24.5062 37.5389 24.2642V23.7273C37.5389 23.4853 37.4859 23.2599 37.3798 23.0511C37.2737 22.8423 37.0633 22.7379 36.7484 22.7379C36.4534 22.7379 36.2496 22.844 36.1369 23.0561C36.0242 23.2682 35.9679 23.492 35.9679 23.7273ZM35.1674 32L42.1674 21.8182H43.47L36.47 32H35.1674Z" fill="#F3F3F3"/>
<path d="M3.75391 32C3.75391 -3.99999 59.7539 -4 59.7539 32" stroke="#212121" stroke-width="6" stroke-linecap="round"/>
<path d="M13.9893 14.4019C9.81146 18.2576 7.00013 23.8942 7 31.52C7 33.1769 5.65685 34.52 4 34.52C2.34315 34.52 1 33.1769 1 31.52C1.00014 21.7713 4.85759 14.2638 10.7686 9.23877C10.8221 9.19324 10.8768 9.1491 10.9307 9.104L13.9893 14.4019Z" fill="#FFBF00"/>
<circle cx="13" cy="11" r="5" fill="#FFBF00"/>
<path d="M132.544 32.1392C131.841 32.1392 131.215 32.0099 130.665 31.7514C130.118 31.4929 129.684 31.1366 129.362 30.6825C129.041 30.2285 128.873 29.7081 128.86 29.1214H130.948C130.971 29.5159 131.137 29.8357 131.445 30.081C131.754 30.3262 132.12 30.4489 132.544 30.4489C132.882 30.4489 133.18 30.3743 133.439 30.2251C133.701 30.0727 133.905 29.8622 134.05 29.5938C134.2 29.322 134.274 29.0104 134.274 28.6591C134.274 28.3011 134.198 27.9863 134.045 27.7145C133.896 27.4427 133.689 27.2306 133.424 27.0781C133.159 26.9257 132.856 26.8478 132.514 26.8445C132.216 26.8445 131.926 26.9058 131.644 27.0284C131.366 27.151 131.149 27.3184 130.993 27.5305L129.079 27.1875L129.561 21.8182H135.786V23.5781H131.336L131.072 26.1286H131.132C131.311 25.8767 131.581 25.6679 131.942 25.5021C132.304 25.3364 132.708 25.2536 133.156 25.2536C133.769 25.2536 134.316 25.3977 134.796 25.6861C135.277 25.9744 135.656 26.3705 135.935 26.8743C136.213 27.3748 136.351 27.9515 136.347 28.6044C136.351 29.2905 136.192 29.9003 135.87 30.4339C135.552 30.9643 135.106 31.3819 134.533 31.6868C133.963 31.9884 133.3 32.1392 132.544 32.1392ZM137.695 30.2102V28.5149L141.945 21.8182H143.407V24.1648H142.542L139.862 28.4055V28.4851H145.903V30.2102H137.695ZM142.582 32V29.6932L142.621 28.9425V21.8182H144.64V32H142.582ZM152.91 30.0909V29.554C152.91 29.1463 152.996 28.7718 153.169 28.4304C153.344 28.0857 153.598 27.8106 153.929 27.6051C154.264 27.3963 154.672 27.2919 155.152 27.2919C155.64 27.2919 156.049 27.3946 156.38 27.6001C156.715 27.8056 156.967 28.0807 157.136 28.4254C157.308 28.7668 157.395 29.143 157.395 29.554V30.0909C157.395 30.4986 157.308 30.8748 157.136 31.2195C156.964 31.5608 156.71 31.8343 156.375 32.0398C156.041 32.2486 155.633 32.353 155.152 32.353C154.665 32.353 154.256 32.2486 153.924 32.0398C153.593 31.8343 153.341 31.5608 153.169 31.2195C152.996 30.8748 152.91 30.4986 152.91 30.0909ZM154.357 29.554V30.0909C154.357 30.3262 154.413 30.5483 154.526 30.7571C154.642 30.9659 154.851 31.0703 155.152 31.0703C155.454 31.0703 155.659 30.9676 155.769 30.7621C155.882 30.5566 155.938 30.3329 155.938 30.0909V29.554C155.938 29.312 155.885 29.0866 155.779 28.8778C155.673 28.669 155.464 28.5646 155.152 28.5646C154.854 28.5646 154.647 28.669 154.531 28.8778C154.415 29.0866 154.357 29.312 154.357 29.554ZM147.685 24.2642V23.7273C147.685 23.3163 147.773 22.9401 147.949 22.5987C148.124 22.254 148.378 21.9789 148.709 21.7734C149.044 21.5679 149.448 21.4652 149.922 21.4652C150.413 21.4652 150.824 21.5679 151.155 21.7734C151.487 21.9789 151.739 22.254 151.911 22.5987C152.083 22.9401 152.169 23.3163 152.169 23.7273V24.2642C152.169 24.6752 152.082 25.0514 151.906 25.3928C151.734 25.7341 151.48 26.0076 151.145 26.2131C150.814 26.4152 150.406 26.5163 149.922 26.5163C149.438 26.5163 149.029 26.4136 148.694 26.2081C148.363 25.9993 148.111 25.7259 147.939 25.3878C147.77 25.0464 147.685 24.6719 147.685 24.2642ZM149.142 23.7273V24.2642C149.142 24.5062 149.198 24.7299 149.311 24.9354C149.427 25.1409 149.631 25.2436 149.922 25.2436C150.227 25.2436 150.434 25.1409 150.544 24.9354C150.656 24.7299 150.713 24.5062 150.713 24.2642V23.7273C150.713 23.4853 150.66 23.2599 150.554 23.0511C150.448 22.8423 150.237 22.7379 149.922 22.7379C149.627 22.7379 149.423 22.844 149.311 23.0561C149.198 23.2682 149.142 23.492 149.142 23.7273ZM148.341 32L155.341 21.8182H156.644L149.644 32H148.341Z" fill="#F3F3F3"/>
<path d="M114.754 32C114.754 -3.99999 170.754 -4 170.754 32" stroke="#212121" stroke-width="6" stroke-linecap="round"/>
<path d="M143 2C146.28 2 149.58 2.45517 152.744 3.37402L144.65 8.0459C144.102 8.01535 143.551 8 143 8C136.61 8 130.333 10.0579 125.702 14.0273C121.134 17.9427 118 23.853 118 32C118 33.6569 116.657 35 115 35C113.343 35 112 33.6569 112 32C112 22.1471 115.866 14.5573 121.798 9.47266C127.667 4.44212 135.39 2 143 2Z" fill="#593634"/>
<circle cx="148" cy="5" r="5" fill="#593634"/>
</svg>
