<svg width="217" height="46" viewBox="0 0 217 46" fill="none" xmlns="http://www.w3.org/2000/svg">
<g clip-path="url(#clip0_2130_380)">
<mask id="mask0_2130_380" style="mask-type:luminance" maskUnits="userSpaceOnUse" x="0" y="15" width="217" height="31">
<path d="M0 21.8205C0 18.5635 2.68382 15.9231 5.99447 15.9231H211.006C214.316 15.9231 217 18.5635 217 21.8205V40.1026C217 43.3596 214.316 46 211.006 46H5.99447C2.68382 46 0 43.3596 0 40.1026V21.8205Z" fill="white"/>
</mask>
<g mask="url(#mask0_2130_380)">
<path d="M5.99415 15.9231V17.1026H211.005V15.9231V14.7437H5.99415V15.9231ZM217 21.8206H215.801V40.1026H217H218.199V21.8206H217ZM211.005 46.0001V44.8206H5.99415V46.0001V47.1796H211.005V46.0001ZM-0.000323772 40.1026H1.19857V21.8206H-0.000323772H-1.19922V40.1026H-0.000323772ZM5.99415 46.0001V44.8206C3.34562 44.8206 1.19857 42.7083 1.19857 40.1026H-0.000323772H-1.19922C-1.19922 44.0111 2.02136 47.1796 5.99415 47.1796V46.0001ZM217 40.1026H215.801C215.801 42.7083 213.654 44.8206 211.005 44.8206V46.0001V47.1796C214.978 47.1796 218.199 44.0111 218.199 40.1026H217ZM211.005 15.9231V17.1026C213.654 17.1026 215.801 19.2149 215.801 21.8206H217H218.199C218.199 17.9121 214.978 14.7437 211.005 14.7437V15.9231ZM5.99415 15.9231V14.7437C2.02136 14.7437 -1.19922 17.9121 -1.19922 21.8206H-0.000323772H1.19857C1.19857 19.2149 3.34562 17.1026 5.99415 17.1026V15.9231Z" fill="#FFFAFA"/>
</g>
<path d="M9.79261 34V27.4545H12.081C12.5369 27.4545 12.913 27.5334 13.2092 27.6911C13.5053 27.8466 13.7259 28.0565 13.8707 28.3207C14.0156 28.5827 14.0881 28.8736 14.0881 29.1932C14.0881 29.4744 14.038 29.7067 13.9379 29.8899C13.8398 30.0732 13.7099 30.218 13.5479 30.3246C13.3881 30.4311 13.2145 30.5099 13.027 30.5611V30.625C13.2273 30.6378 13.4286 30.7081 13.631 30.8359C13.8335 30.9638 14.0028 31.147 14.1392 31.3857C14.2756 31.6243 14.3438 31.9162 14.3438 32.2614C14.3438 32.5895 14.2692 32.8846 14.12 33.1467C13.9709 33.4087 13.7354 33.6165 13.4137 33.7699C13.092 33.9233 12.6733 34 12.1577 34H9.79261ZM10.5852 33.2969H12.1577C12.6754 33.2969 13.043 33.1967 13.2603 32.9964C13.4798 32.794 13.5895 32.549 13.5895 32.2614C13.5895 32.0398 13.533 31.8352 13.4201 31.6477C13.3072 31.4581 13.1463 31.3068 12.9375 31.1939C12.7287 31.0788 12.4815 31.0213 12.196 31.0213H10.5852V33.2969ZM10.5852 30.331H12.0554C12.294 30.331 12.5092 30.2841 12.701 30.1903C12.8949 30.0966 13.0483 29.9645 13.1612 29.794C13.2763 29.6236 13.3338 29.4233 13.3338 29.1932C13.3338 28.9055 13.2337 28.6616 13.0334 28.4613C12.8331 28.2589 12.5156 28.1577 12.081 28.1577H10.5852V30.331ZM15.5439 34V29.0909H16.2725V29.8324H16.3237C16.4132 29.5895 16.5751 29.3924 16.8095 29.2411C17.0439 29.0898 17.3081 29.0142 17.6021 29.0142C17.6575 29.0142 17.7267 29.0153 17.8098 29.0174C17.8929 29.0195 17.9558 29.0227 17.9984 29.027V29.794C17.9728 29.7876 17.9142 29.7781 17.8226 29.7653C17.7331 29.7504 17.6383 29.7429 17.5382 29.7429C17.2995 29.7429 17.0865 29.793 16.899 29.8931C16.7136 29.9911 16.5666 30.1275 16.4579 30.3022C16.3514 30.4748 16.2981 30.6719 16.2981 30.8935V34H15.5439ZM18.8925 34V29.0909H19.6468V34H18.8925ZM19.276 28.2727C19.129 28.2727 19.0022 28.2227 18.8957 28.1225C18.7913 28.0224 18.7391 27.902 18.7391 27.7614C18.7391 27.6207 18.7913 27.5004 18.8957 27.4002C19.0022 27.3001 19.129 27.25 19.276 27.25C19.423 27.25 19.5487 27.3001 19.6531 27.4002C19.7597 27.5004 19.8129 27.6207 19.8129 27.7614C19.8129 27.902 19.7597 28.0224 19.6531 28.1225C19.5487 28.2227 19.423 28.2727 19.276 28.2727ZM23.0225 34.1023C22.5623 34.1023 22.166 33.9936 21.8336 33.7763C21.5012 33.5589 21.2456 33.2596 21.0666 32.8782C20.8876 32.4968 20.7981 32.0611 20.7981 31.571C20.7981 31.0724 20.8897 30.6325 21.073 30.2511C21.2583 29.8675 21.5162 29.5682 21.8464 29.353C22.1788 29.1357 22.5666 29.027 23.0098 29.027C23.3549 29.027 23.666 29.0909 23.943 29.2188C24.22 29.3466 24.4469 29.5256 24.6238 29.7557C24.8006 29.9858 24.9103 30.2543 24.9529 30.5611H24.1987C24.1412 30.3374 24.0133 30.1392 23.8152 29.9666C23.6191 29.7919 23.3549 29.7045 23.0225 29.7045C22.7285 29.7045 22.4707 29.7812 22.2491 29.9347C22.0297 30.0859 21.8581 30.3001 21.7346 30.5771C21.6131 30.8519 21.5524 31.1747 21.5524 31.5455C21.5524 31.9247 21.612 32.255 21.7314 32.5362C21.8528 32.8175 22.0233 33.0359 22.2427 33.1914C22.4643 33.3469 22.7243 33.4247 23.0225 33.4247C23.2186 33.4247 23.3965 33.3906 23.5563 33.3224C23.7161 33.2543 23.8514 33.1562 23.9622 33.0284C24.073 32.9006 24.1518 32.7472 24.1987 32.5682H24.9529C24.9103 32.858 24.8049 33.119 24.6365 33.3512C24.4703 33.5813 24.2498 33.7646 23.975 33.9009C23.7022 34.0352 23.3848 34.1023 23.0225 34.1023ZM26.7587 32.2102L26.7459 31.277H26.8993L29.0471 29.0909H29.9803L27.6919 31.4048H27.628L26.7587 32.2102ZM26.0556 34V27.4545H26.8098V34H26.0556ZM29.1749 34L27.2573 31.571L27.7942 31.0469L30.1337 34H29.1749ZM35.3488 27.4545H36.1414V31.7884C36.1414 32.2358 36.036 32.6353 35.825 32.9869C35.6162 33.3363 35.3211 33.6122 34.9397 33.8146C34.5583 34.0149 34.1109 34.1151 33.5974 34.1151C33.0839 34.1151 32.6365 34.0149 32.2551 33.8146C31.8737 33.6122 31.5775 33.3363 31.3666 32.9869C31.1578 32.6353 31.0534 32.2358 31.0534 31.7884V27.4545H31.846V31.7244C31.846 32.044 31.9163 32.3285 32.0569 32.5778C32.1975 32.8249 32.3978 33.0199 32.6578 33.1626C32.9198 33.3033 33.233 33.3736 33.5974 33.3736C33.9617 33.3736 34.2749 33.3033 34.537 33.1626C34.7991 33.0199 34.9994 32.8249 35.1379 32.5778C35.2785 32.3285 35.3488 32.044 35.3488 31.7244V27.4545ZM38.5169 27.4545V34H37.7243V27.4545H38.5169Z" fill="#696969"/>
<path d="M5.12429 1.72727H6.66193V6.45028C6.66193 6.98059 6.53527 7.4446 6.28196 7.84233C6.03101 8.24006 5.67945 8.55019 5.22727 8.77273C4.77509 8.9929 4.24834 9.10298 3.64702 9.10298C3.04332 9.10298 2.51539 8.9929 2.06321 8.77273C1.61103 8.55019 1.25947 8.24006 1.00852 7.84233C0.757576 7.4446 0.632102 6.98059 0.632102 6.45028V1.72727H2.16974V6.31889C2.16974 6.59588 2.23011 6.84209 2.35085 7.05753C2.47396 7.27296 2.64678 7.44223 2.86932 7.56534C3.09186 7.68845 3.35109 7.75 3.64702 7.75C3.94531 7.75 4.20455 7.68845 4.42472 7.56534C4.64725 7.44223 4.81889 7.27296 4.93963 7.05753C5.06274 6.84209 5.12429 6.59588 5.12429 6.31889V1.72727ZM12.437 5.10085L11.052 5.18608C11.0283 5.06771 10.9775 4.96117 10.8993 4.86648C10.8212 4.76941 10.7182 4.69247 10.5904 4.63565C10.4649 4.57647 10.3146 4.54688 10.1394 4.54688C9.90501 4.54688 9.70733 4.59659 9.54634 4.69602C9.38536 4.79309 9.30487 4.9233 9.30487 5.08665C9.30487 5.21686 9.35695 5.32694 9.46112 5.4169C9.56528 5.50687 9.74402 5.57907 9.99734 5.63352L10.9846 5.83239C11.5149 5.94129 11.9102 6.11648 12.1706 6.35795C12.431 6.59943 12.5613 6.91667 12.5613 7.30966C12.5613 7.66714 12.4559 7.98082 12.2452 8.25071C12.0369 8.5206 11.7504 8.7313 11.3858 8.88281C11.0236 9.03196 10.6058 9.10653 10.1323 9.10653C9.41022 9.10653 8.83493 8.9562 8.40643 8.65554C7.98029 8.35251 7.73053 7.94058 7.65714 7.41974L9.14506 7.34162C9.19005 7.56179 9.29895 7.72988 9.47177 7.84588C9.64459 7.95952 9.86594 8.01634 10.1358 8.01634C10.401 8.01634 10.6141 7.96544 10.775 7.86364C10.9384 7.75947 11.0212 7.62571 11.0236 7.46236C11.0212 7.32505 10.9632 7.21259 10.8496 7.125C10.736 7.03504 10.5608 6.96638 10.324 6.91903L9.37944 6.73082C8.84677 6.62429 8.45022 6.43963 8.18981 6.17685C7.93176 5.91406 7.80273 5.57907 7.80273 5.17188C7.80273 4.8215 7.89743 4.51965 8.08683 4.26634C8.27859 4.01302 8.54729 3.81771 8.89293 3.6804C9.24094 3.54309 9.64814 3.47443 10.1145 3.47443C10.8034 3.47443 11.3456 3.62003 11.7409 3.91122C12.1387 4.20241 12.3707 4.59896 12.437 5.10085ZM15.9996 9.10653C15.4386 9.10653 14.9556 8.9929 14.5508 8.76562C14.1483 8.53598 13.8382 8.21165 13.6204 7.79261C13.4026 7.37121 13.2937 6.87287 13.2937 6.29759C13.2937 5.73651 13.4026 5.24408 13.6204 4.82031C13.8382 4.39654 14.1448 4.06629 14.5401 3.82955C14.9379 3.5928 15.4042 3.47443 15.9393 3.47443C16.2991 3.47443 16.6341 3.53243 16.9442 3.64844C17.2567 3.76207 17.529 3.93371 17.761 4.16335C17.9954 4.39299 18.1777 4.68182 18.3079 5.02983C18.4381 5.37547 18.5032 5.7803 18.5032 6.24432V6.6598H13.8974V5.7223H17.0792C17.0792 5.5045 17.0318 5.31155 16.9371 5.14347C16.8424 4.97538 16.7111 4.84399 16.543 4.74929C16.3772 4.65223 16.1843 4.60369 15.9641 4.60369C15.7345 4.60369 15.5309 4.65696 15.3533 4.76349C15.1781 4.86766 15.0408 5.00852 14.9414 5.18608C14.842 5.36127 14.7911 5.55658 14.7887 5.77202V6.66335C14.7887 6.93324 14.8384 7.16643 14.9379 7.36293C15.0397 7.55942 15.1829 7.71094 15.3675 7.81747C15.5522 7.92401 15.7712 7.97727 16.0245 7.97727C16.1926 7.97727 16.3465 7.9536 16.4862 7.90625C16.6258 7.8589 16.7454 7.78788 16.8448 7.69318C16.9442 7.59848 17.02 7.48248 17.0721 7.34517L18.4712 7.4375C18.4002 7.77367 18.2546 8.06723 18.0344 8.31818C17.8166 8.56676 17.5349 8.76089 17.1893 8.90057C16.846 9.03788 16.4495 9.10653 15.9996 9.10653ZM19.4904 9V3.54545H20.957V4.49716H21.0138C21.1133 4.15862 21.2802 3.90294 21.5146 3.73011C21.7489 3.55492 22.0188 3.46733 22.3242 3.46733C22.4 3.46733 22.4817 3.47206 22.5692 3.48153C22.6568 3.491 22.7338 3.50402 22.8001 3.5206V4.86293C22.729 4.84162 22.6308 4.82268 22.5053 4.80611C22.3799 4.78954 22.265 4.78125 22.1609 4.78125C21.9383 4.78125 21.7395 4.82978 21.5643 4.92685C21.3915 5.02154 21.2541 5.15412 21.1523 5.32457C21.0529 5.49503 21.0032 5.69152 21.0032 5.91406V9H19.4904ZM25.095 5.84659V9H23.5822V3.54545H25.024V4.50781H25.0879C25.2086 4.19058 25.411 3.93963 25.6951 3.75497C25.9792 3.56795 26.3237 3.47443 26.7285 3.47443C27.1073 3.47443 27.4376 3.55729 27.7193 3.72301C28.001 3.88873 28.22 4.12547 28.3762 4.43324C28.5325 4.73864 28.6106 5.10322 28.6106 5.52699V9H27.0978V5.79688C27.1002 5.46307 27.015 5.20265 26.8422 5.01562C26.6693 4.82623 26.4314 4.73153 26.1284 4.73153C25.9248 4.73153 25.7449 4.77533 25.5886 4.86293C25.4347 4.95052 25.314 5.07836 25.2264 5.24645C25.1412 5.41217 25.0974 5.61222 25.095 5.84659ZM31.3583 9.10298C31.0103 9.10298 30.7002 9.04261 30.4279 8.92188C30.1557 8.79877 29.9402 8.61766 29.7816 8.37855C29.6254 8.13707 29.5472 7.83641 29.5472 7.47656C29.5472 7.17353 29.6029 6.91903 29.7141 6.71307C29.8254 6.5071 29.9769 6.34138 30.1687 6.21591C30.3604 6.09044 30.5782 5.99574 30.8221 5.93182C31.0683 5.8679 31.3263 5.82292 31.5962 5.79688C31.9135 5.76373 32.1692 5.73295 32.3633 5.70455C32.5574 5.67377 32.6983 5.62879 32.7859 5.5696C32.8735 5.51042 32.9173 5.42282 32.9173 5.30682V5.28551C32.9173 5.06061 32.8462 4.8866 32.7042 4.76349C32.5645 4.64039 32.3656 4.57884 32.1076 4.57884C31.8353 4.57884 31.6187 4.6392 31.4577 4.75994C31.2968 4.87831 31.1902 5.02746 31.1381 5.20739L29.739 5.09375C29.81 4.76231 29.9497 4.47585 30.158 4.23438C30.3664 3.99053 30.6351 3.8035 30.9641 3.6733C31.2956 3.54072 31.6791 3.47443 32.1147 3.47443C32.4177 3.47443 32.7077 3.50994 32.9847 3.58097C33.2641 3.65199 33.5115 3.76207 33.7269 3.91122C33.9447 4.06037 34.1164 4.25213 34.2418 4.48651C34.3673 4.71851 34.43 4.99669 34.43 5.32102V9H32.9954V8.24361H32.9528C32.8652 8.41406 32.748 8.56439 32.6012 8.6946C32.4544 8.82244 32.2781 8.92306 32.0721 8.99645C31.8661 9.06747 31.6282 9.10298 31.3583 9.10298ZM31.7915 8.05895C32.0141 8.05895 32.2106 8.01515 32.381 7.92756C32.5515 7.83759 32.6853 7.71686 32.7823 7.56534C32.8794 7.41383 32.9279 7.24219 32.9279 7.05043V6.47159C32.8806 6.50237 32.8155 6.53078 32.7326 6.55682C32.6521 6.58049 32.561 6.60298 32.4592 6.62429C32.3574 6.64323 32.2556 6.66098 32.1538 6.67756C32.052 6.69176 31.9596 6.70478 31.8768 6.71662C31.6992 6.74266 31.5442 6.78409 31.4116 6.84091C31.279 6.89773 31.176 6.97467 31.1026 7.07173C31.0292 7.16643 30.9925 7.2848 30.9925 7.42685C30.9925 7.63281 31.0671 7.79025 31.2163 7.89915C31.3678 8.00568 31.5595 8.05895 31.7915 8.05895ZM35.6037 9V3.54545H37.0455V4.50781H37.1094C37.223 4.18821 37.4124 3.93608 37.6776 3.75142C37.9427 3.56676 38.2599 3.47443 38.6293 3.47443C39.0033 3.47443 39.3217 3.56795 39.5845 3.75497C39.8473 3.93963 40.0225 4.19058 40.1101 4.50781H40.1669C40.2782 4.19531 40.4794 3.94555 40.7706 3.75852C41.0642 3.56913 41.411 3.47443 41.8111 3.47443C42.3201 3.47443 42.7332 3.6366 43.0504 3.96094C43.37 4.28291 43.5298 4.73982 43.5298 5.33168V9H42.0206V5.62997C42.0206 5.32694 41.9401 5.09967 41.7791 4.94815C41.6181 4.79664 41.4169 4.72088 41.1754 4.72088C40.9008 4.72088 40.6866 4.80848 40.5327 4.98366C40.3788 5.15649 40.3018 5.38494 40.3018 5.66903V9H38.8352V5.59801C38.8352 5.33049 38.7583 5.11742 38.6044 4.95881C38.4529 4.80019 38.2528 4.72088 38.0043 4.72088C37.8362 4.72088 37.6847 4.76349 37.5497 4.84872C37.4171 4.93158 37.3118 5.04877 37.2337 5.20028C37.1555 5.34943 37.1165 5.52462 37.1165 5.72585V9H35.6037ZM47.2106 9.10653C46.6495 9.10653 46.1665 8.9929 45.7617 8.76562C45.3593 8.53598 45.0491 8.21165 44.8313 7.79261C44.6135 7.37121 44.5046 6.87287 44.5046 6.29759C44.5046 5.73651 44.6135 5.24408 44.8313 4.82031C45.0491 4.39654 45.3557 4.06629 45.7511 3.82955C46.1488 3.5928 46.6152 3.47443 47.1502 3.47443C47.5101 3.47443 47.8451 3.53243 48.1552 3.64844C48.4677 3.76207 48.7399 3.93371 48.9719 4.16335C49.2063 4.39299 49.3886 4.68182 49.5188 5.02983C49.649 5.37547 49.7141 5.7803 49.7141 6.24432V6.6598H45.1083V5.7223H48.2901C48.2901 5.5045 48.2428 5.31155 48.1481 5.14347C48.0534 4.97538 47.922 4.84399 47.7539 4.74929C47.5882 4.65223 47.3952 4.60369 47.1751 4.60369C46.9454 4.60369 46.7418 4.65696 46.5643 4.76349C46.3891 4.86766 46.2518 5.00852 46.1523 5.18608C46.0529 5.36127 46.002 5.55658 45.9996 5.77202V6.66335C45.9996 6.93324 46.0494 7.16643 46.1488 7.36293C46.2506 7.55942 46.3938 7.71094 46.5785 7.81747C46.7631 7.92401 46.9821 7.97727 47.2354 7.97727C47.4035 7.97727 47.5574 7.9536 47.6971 7.90625C47.8368 7.8589 47.9563 7.78788 48.0558 7.69318C48.1552 7.59848 48.2309 7.48248 48.283 7.34517L49.6822 7.4375C49.6112 7.77367 49.4656 8.06723 49.2454 8.31818C49.0276 8.56676 48.7459 8.76089 48.4002 8.90057C48.0569 9.03788 47.6604 9.10653 47.2106 9.10653Z" fill="#FFFCFC"/>
</g>
<defs>
<clipPath id="clip0_2130_380">
<rect width="217" height="46" fill="white"/>
</clipPath>
</defs>
</svg>
