<svg width="220" height="84" viewBox="0 0 220 84" fill="none" xmlns="http://www.w3.org/2000/svg">
<rect x="19" y="19" width="182" height="46" rx="3" fill="#593634"/>
<path d="M4 1H216C217.657 1 219 2.34314 219 4V80C219 81.6569 217.657 83 216 83H4C2.34315 83 1 81.6569 1 80V4L1.00391 3.8457C1.08421 2.26055 2.39489 1 4 1Z" stroke="#3B3B3B" stroke-width="2"/>
<path d="M109.5 80C109.5 80.2761 109.724 80.5 110 80.5C110.276 80.5 110.5 80.2761 110.5 80H110H109.5ZM110.354 66.6464C110.158 66.4512 109.842 66.4512 109.646 66.6464L106.464 69.8284C106.269 70.0237 106.269 70.3403 106.464 70.5355C106.66 70.7308 106.976 70.7308 107.172 70.5355L110 67.7071L112.828 70.5355C113.024 70.7308 113.34 70.7308 113.536 70.5355C113.731 70.3403 113.731 70.0237 113.536 69.8284L110.354 66.6464ZM110 80H110.5V78.9167H110H109.5V80H110ZM110 77.8333H110.5V75.6667H110H109.5V77.8333H110ZM110 74.5833H110.5V72.4167H110H109.5V74.5833H110ZM110 71.3333H110.5V69.1667H110H109.5V71.3333H110ZM110 68.0833H110.5V67H110H109.5V68.0833H110Z" fill="white"/>
<path d="M110.511 4C110.511 3.72386 110.287 3.5 110.011 3.5C109.735 3.5 109.511 3.72386 109.511 4H110.011H110.511ZM109.657 17.3536C109.852 17.5488 110.169 17.5488 110.364 17.3536L113.546 14.1716C113.742 13.9763 113.742 13.6597 113.546 13.4645C113.351 13.2692 113.034 13.2692 112.839 13.4645L110.011 16.2929L107.182 13.4645C106.987 13.2692 106.67 13.2692 106.475 13.4645C106.28 13.6597 106.28 13.9763 106.475 14.1716L109.657 17.3536ZM110.011 4H109.511V5.08333H110.011H110.511V4H110.011ZM110.011 6.16667H109.511V8.33333H110.011H110.511V6.16667H110.011ZM110.011 9.41667H109.511V11.5833H110.011H110.511V9.41667H110.011ZM110.011 12.6667H109.511V14.8333H110.011H110.511V12.6667H110.011ZM110.011 15.9167H109.511V17H110.011H110.511V15.9167H110.011Z" fill="white"/>
<path d="M4 41.5C3.72386 41.5 3.5 41.7239 3.5 42C3.5 42.2761 3.72386 42.5 4 42.5V42V41.5ZM17.3536 42.3536C17.5488 42.1583 17.5488 41.8417 17.3536 41.6464L14.1716 38.4645C13.9763 38.2692 13.6597 38.2692 13.4645 38.4645C13.2692 38.6597 13.2692 38.9763 13.4645 39.1716L16.2929 42L13.4645 44.8284C13.2692 45.0237 13.2692 45.3403 13.4645 45.5355C13.6597 45.7308 13.9763 45.7308 14.1716 45.5355L17.3536 42.3536ZM4 42V42.5H5.08333V42V41.5H4V42ZM6.16667 42V42.5H8.33333V42V41.5H6.16667V42ZM9.41667 42V42.5H11.5833V42V41.5H9.41667V42ZM12.6667 42V42.5H14.8333V42V41.5H12.6667V42ZM15.9167 42V42.5H17V42V41.5H15.9167V42Z" fill="white"/>
<path d="M216 42.5C216.276 42.5 216.5 42.2761 216.5 42C216.5 41.7239 216.276 41.5 216 41.5V42V42.5ZM202.646 41.6464C202.451 41.8417 202.451 42.1583 202.646 42.3536L205.828 45.5355C206.024 45.7308 206.34 45.7308 206.536 45.5355C206.731 45.3403 206.731 45.0237 206.536 44.8284L203.707 42L206.536 39.1716C206.731 38.9763 206.731 38.6597 206.536 38.4645C206.34 38.2692 206.024 38.2692 205.828 38.4645L202.646 41.6464ZM216 42V41.5H214.917V42V42.5H216V42ZM213.833 42V41.5H211.667V42V42.5H213.833V42ZM210.583 42V41.5H208.417V42V42.5H210.583V42ZM207.333 42V41.5H205.167V42V42.5H207.333V42ZM204.083 42V41.5H203V42V42.5H204.083V42Z" fill="white"/>
</svg>
