<svg width="217" height="46" viewBox="0 0 217 46" fill="none" xmlns="http://www.w3.org/2000/svg">
<mask id="mask0_2130_391" style="mask-type:luminance" maskUnits="userSpaceOnUse" x="0" y="13" width="217" height="31">
<path d="M0 19.8054C0 16.5567 2.68382 13.9231 5.99447 13.9231H211.006C214.316 13.9231 217 16.5567 217 19.8054V38.0407C217 41.2894 214.316 43.9231 211.006 43.9231H5.99447C2.68382 43.9231 0 41.2894 0 38.0407V19.8054Z" fill="white"/>
</mask>
<g mask="url(#mask0_2130_391)">
<path d="M5.99415 13.9231V15.0995H211.005V13.9231V12.7466H5.99415V13.9231ZM217 19.8054H215.801V38.0407H217H218.199V19.8054H217ZM211.005 43.9231V42.7466H5.99415V43.9231V45.0995H211.005V43.9231ZM-0.000323772 38.0407H1.19857V19.8054H-0.000323772H-1.19922V38.0407H-0.000323772ZM5.99415 43.9231V42.7466C3.34562 42.7466 1.19857 40.6397 1.19857 38.0407H-0.000323772H-1.19922C-1.19922 41.9392 2.02136 45.0995 5.99415 45.0995V43.9231ZM217 38.0407H215.801C215.801 40.6397 213.654 42.7466 211.005 42.7466V43.9231V45.0995C214.978 45.0995 218.199 41.9392 218.199 38.0407H217ZM211.005 13.9231V15.0995C213.654 15.0995 215.801 17.2064 215.801 19.8054H217H218.199C218.199 15.9069 214.978 12.7466 211.005 12.7466V13.9231ZM5.99415 13.9231V12.7466C2.02136 12.7466 -1.19922 15.9069 -1.19922 19.8054H-0.000323772H1.19857C1.19857 17.2064 3.34562 15.0995 5.99415 15.0995V13.9231Z" fill="#FFFAFA"/>
</g>
<path d="M0 6.8992V0H3.0052C3.58293 0 4.07512 0.0996133 4.48176 0.299427C4.88841 0.497462 5.19835 0.772575 5.41159 1.12477C5.62731 1.47518 5.73517 1.87955 5.73517 2.33788C5.73517 2.79621 5.62607 3.19998 5.40787 3.5504C5.18967 3.90081 4.87353 4.17356 4.45945 4.36922C4.04785 4.56429 3.54946 4.66212 2.96429 4.66212H1.04885V3.49348H2.70394C3.01388 3.49348 3.26927 3.44486 3.47011 3.34821C3.67344 3.24979 3.82469 3.11401 3.92387 2.94088C4.02553 2.76537 4.07636 2.56437 4.07636 2.33788C4.07636 2.10842 4.02553 1.90861 3.92387 1.73785C3.82469 1.56531 3.67344 1.43131 3.47011 1.33703C3.26679 1.24039 3.00892 1.19236 2.6965 1.19236H1.61046V6.8992H0ZM8.22707 6.99704C7.86259 6.99704 7.53778 6.93952 7.25264 6.82509C6.9675 6.70829 6.74186 6.53634 6.57572 6.30984C6.41207 6.08038 6.33025 5.79519 6.33025 5.45367C6.33025 5.16669 6.38851 4.92479 6.50509 4.72972C6.62161 4.53405 6.78028 4.37693 6.98111 4.25775C7.18201 4.13917 7.41007 4.04905 7.6655 3.98857C7.92334 3.92809 8.19362 3.8854 8.47628 3.8605C8.80855 3.82907 9.07635 3.80002 9.27967 3.77274C9.48299 3.74369 9.63053 3.701 9.72224 3.64467C9.81402 3.58894 9.8599 3.50593 9.8599 3.39565V3.37549C9.8599 3.16204 9.78548 2.99721 9.63675 2.8804C9.49045 2.7636 9.28216 2.7049 9.01187 2.7049C8.72673 2.7049 8.49985 2.76241 8.33122 2.87685C8.16266 2.98891 8.05105 3.13061 7.99653 3.30137L6.53108 3.19346C6.60551 2.87922 6.75181 2.60707 6.96999 2.3782C7.18816 2.14696 7.46957 1.96968 7.81429 1.84576C8.16142 1.72006 8.56308 1.65721 9.01933 1.65721C9.33668 1.65721 9.64042 1.69101 9.93053 1.7586C10.2231 1.8256 10.4822 1.92995 10.7079 2.07166C10.936 2.21337 11.1157 2.3948 11.2472 2.61714C11.3786 2.83771 11.4443 3.10156 11.4443 3.40928V6.8992H9.94173V6.18177H9.89708C9.80531 6.34305 9.68257 6.48594 9.52887 6.60927C9.37511 6.73082 9.19038 6.82628 8.97469 6.89565C8.75893 6.96324 8.5098 6.99704 8.22707 6.99704ZM8.68084 6.00627C8.91394 6.00627 9.11975 5.96476 9.29826 5.88175C9.47677 5.79637 9.61692 5.68194 9.71858 5.53846C9.82023 5.39438 9.87103 5.23132 9.87103 5.04989V4.50085C9.82148 4.5299 9.75327 4.55658 9.66647 4.58149C9.58216 4.60402 9.48672 4.62536 9.38008 4.64552C9.27345 4.66331 9.16688 4.6805 9.06025 4.69592C8.95361 4.70955 8.85693 4.72201 8.77013 4.73327C8.58416 4.75758 8.42175 4.79731 8.28291 4.85067C8.14407 4.90462 8.03619 4.97756 7.95934 5.07005C7.88243 5.15958 7.844 5.27224 7.844 5.40683C7.844 5.6019 7.9221 5.75131 8.07835 5.85507C8.23702 5.95587 8.43786 6.00627 8.68084 6.00627ZM17.4268 3.19999L15.9763 3.28122C15.9515 3.16856 15.8982 3.06776 15.8163 2.97764C15.7345 2.88574 15.6266 2.81281 15.4928 2.75885C15.3613 2.70252 15.2039 2.67466 15.0204 2.67466C14.7749 2.67466 14.5679 2.72209 14.3993 2.81636C14.2307 2.90827 14.1464 3.03159 14.1464 3.18694C14.1464 3.31027 14.2009 3.41462 14.3101 3.5C14.4191 3.58538 14.6063 3.65416 14.8716 3.70574L15.9056 3.89429C16.461 3.99746 16.8751 4.16348 17.1479 4.39294C17.4206 4.62181 17.557 4.92301 17.557 5.29536C17.557 5.63451 17.4466 5.93216 17.226 6.1883C17.0078 6.44444 16.7077 6.64425 16.3259 6.78773C15.9465 6.92944 15.5089 7 15.013 7C14.2567 7 13.6542 6.8577 13.2054 6.57251C12.7591 6.28494 12.4975 5.89421 12.4206 5.40031L13.979 5.32619C14.0261 5.5349 14.1402 5.69439 14.3212 5.80408C14.5022 5.91199 14.734 5.96595 15.0167 5.96595C15.2944 5.96595 15.5176 5.91792 15.6861 5.82128C15.8573 5.72226 15.9441 5.59538 15.9465 5.44063C15.9441 5.31018 15.8833 5.20346 15.7643 5.12045C15.6452 5.03507 15.4618 4.96985 15.2138 4.92478L14.2245 4.74632C13.6666 4.64552 13.2512 4.47002 12.9785 4.22099C12.7083 3.97137 12.5731 3.65416 12.5731 3.26758C12.5731 2.93495 12.6723 2.64857 12.8707 2.40844C13.0715 2.16831 13.3529 1.98272 13.715 1.85287C14.0794 1.72243 14.5059 1.65721 14.9944 1.65721C15.7159 1.65721 16.2837 1.79536 16.6978 2.07166C17.1144 2.34796 17.3574 2.72387 17.4268 3.19999ZM23.308 3.19999L21.8574 3.28122C21.8326 3.16856 21.7793 3.06776 21.6975 2.97764C21.6157 2.88574 21.5078 2.81281 21.3739 2.75885C21.2425 2.70252 21.0851 2.67466 20.9016 2.67466C20.6561 2.67466 20.4491 2.72209 20.2804 2.81636C20.1118 2.90827 20.0275 3.03159 20.0275 3.18694C20.0275 3.31027 20.0821 3.41462 20.1912 3.5C20.3003 3.58538 20.4875 3.65416 20.7528 3.70574L21.7867 3.89429C22.3422 3.99746 22.7563 4.16348 23.029 4.39294C23.3017 4.62181 23.4382 4.92301 23.4382 5.29536C23.4382 5.63451 23.3278 5.93216 23.1071 6.1883C22.8889 6.44444 22.5889 6.64425 22.2071 6.78773C21.8276 6.92944 21.3901 7 20.8941 7C20.1379 7 19.5353 6.8577 19.0865 6.57251C18.6402 6.28494 18.3786 5.89421 18.3018 5.40031L19.8602 5.32619C19.9073 5.5349 20.0214 5.69439 20.2023 5.80408C20.3833 5.91199 20.6152 5.96595 20.8979 5.96595C21.1755 5.96595 21.3987 5.91792 21.5673 5.82128C21.7384 5.72226 21.8252 5.59538 21.8276 5.44063C21.8252 5.31018 21.7644 5.20346 21.6454 5.12045C21.5264 5.03507 21.3429 4.96985 21.095 4.92478L20.1057 4.74632C19.5478 4.64552 19.1324 4.47002 18.8596 4.22099C18.5894 3.97137 18.4542 3.65416 18.4542 3.26758C18.4542 2.93495 18.5534 2.64857 18.7518 2.40844C18.9527 2.16831 19.2341 1.98272 19.5961 1.85287C19.9606 1.72243 20.3871 1.65721 20.8755 1.65721C21.5971 1.65721 22.1649 1.79536 22.579 2.07166C22.9955 2.34796 23.2385 2.72387 23.308 3.19999ZM25.5628 6.8992L24.0081 1.7248H25.6112L26.4963 5.20109H26.5484L27.4708 1.7248H29.0441L29.9813 5.18092H30.0297L30.9 1.7248H32.4993L30.9484 6.8992H29.2709L28.2891 3.64467H28.2184L27.2365 6.8992H25.5628ZM35.7825 7C35.2047 7 34.7052 6.88913 34.2836 6.66678C33.8646 6.44207 33.541 6.13019 33.3129 5.72997C33.0848 5.32797 32.9707 4.86193 32.9707 4.33187C32.9707 3.79765 33.0848 3.33043 33.3129 2.9308C33.541 2.5288 33.8646 2.21633 34.2836 1.99399C34.7052 1.76927 35.2047 1.65721 35.7825 1.65721C36.3602 1.65721 36.8587 1.76927 37.2777 1.99399C37.6992 2.21633 38.024 2.5288 38.2521 2.9308C38.4802 3.33043 38.5943 3.79765 38.5943 4.33187C38.5943 4.86193 38.4802 5.32797 38.2521 5.72997C38.024 6.13019 37.6992 6.44207 37.2777 6.66678C36.8587 6.88913 36.3602 7 35.7825 7ZM35.79 5.88828C36.0528 5.88828 36.2722 5.82128 36.4483 5.68669C36.6243 5.54913 36.757 5.36295 36.8462 5.12697C36.938 4.89158 36.9838 4.62299 36.9838 4.32179C36.9838 4.02118 36.938 3.75258 36.8462 3.5166C36.757 3.28121 36.6243 3.09444 36.4483 2.95748C36.2722 2.82051 36.0528 2.75233 35.79 2.75233C35.5246 2.75233 35.3015 2.82051 35.1205 2.95748C34.9419 3.09444 34.8068 3.28121 34.715 3.5166C34.6258 3.75258 34.5812 4.02118 34.5812 4.32179C34.5812 4.62299 34.6258 4.89158 34.715 5.12697C34.8068 5.36295 34.9419 5.54913 35.1205 5.68669C35.3015 5.82128 35.5246 5.88828 35.79 5.88828ZM39.6245 6.8992V1.7248H41.1606V2.62722H41.2201C41.3243 2.30645 41.4991 2.06395 41.7446 1.89971C41.99 1.7337 42.2727 1.65069 42.5925 1.65069C42.6719 1.65069 42.7574 1.65484 42.8492 1.66373C42.9409 1.67322 43.0215 1.68508 43.0909 1.70109V2.97467C43.0166 2.95451 42.9137 2.93614 42.7822 2.92072C42.6508 2.90471 42.5305 2.897 42.4215 2.897C42.1884 2.897 41.9801 2.94325 41.7966 3.03515C41.6156 3.12468 41.4718 3.25098 41.3652 3.41225C41.261 3.57412 41.209 3.76029 41.209 3.97137V6.8992H39.6245ZM45.7493 6.9834C45.3154 6.9834 44.9224 6.8826 44.5703 6.68042C44.2207 6.47586 43.943 6.17584 43.7372 5.78096C43.5338 5.38311 43.4322 4.89573 43.4322 4.31882C43.4322 3.7259 43.5376 3.23259 43.7484 2.83949C43.9591 2.44461 44.2393 2.14933 44.5889 1.95367C44.941 1.75622 45.3265 1.65721 45.7456 1.65721C46.0654 1.65721 46.332 1.70642 46.5453 1.80544C46.7609 1.90208 46.9345 2.02363 47.0659 2.16949C47.1999 2.31298 47.3015 2.45468 47.3709 2.59402H47.4193V0H49V6.8992H47.4379V6.0703H47.3709C47.2965 6.21438 47.1911 6.35668 47.0548 6.49839C46.9209 6.63773 46.7461 6.75334 46.5304 6.84525C46.3171 6.93715 46.0568 6.9834 45.7493 6.9834ZM46.2514 5.84144C46.5068 5.84144 46.7225 5.77859 46.8985 5.65289C47.0771 5.52482 47.2135 5.34635 47.3077 5.11689C47.4044 4.88803 47.4527 4.61943 47.4527 4.31171C47.4527 4.00398 47.4057 3.73717 47.3114 3.51008C47.2172 3.28358 47.0809 3.10808 46.9023 2.98476C46.7238 2.86084 46.5068 2.79917 46.2514 2.79917C45.9911 2.79917 45.7717 2.8632 45.5931 2.99127C45.4146 3.11935 45.2795 3.29663 45.1877 3.52372C45.096 3.75021 45.0501 4.01347 45.0501 4.31171C45.0501 4.61291 45.096 4.87913 45.1877 5.11037C45.282 5.33924 45.4171 5.51889 45.5931 5.64933C45.7717 5.7774 45.9911 5.84144 46.2514 5.84144Z" fill="white"/>
<path d="M11.6821 31L11.7418 29.4721L10.3572 30.2917L10 29.708L11.4589 28.9997L10 28.2914L10.3572 27.7083L11.7418 28.5279L11.6821 27H12.3968L12.3372 28.5279L13.7217 27.7083L14.0789 28.2914L12.6201 28.9997L14.0789 29.708L13.7217 30.2917L12.3372 29.4721L12.3968 31H11.6821ZM16.9223 31L16.9819 29.4721L15.5974 30.2917L15.2401 29.708L16.699 28.9997L15.2401 28.2914L15.5974 27.7083L16.9819 28.5279L16.9223 27H17.6369L17.5773 28.5279L18.9618 27.7083L19.3191 28.2914L17.8602 28.9997L19.3191 29.708L18.9618 30.2917L17.5773 29.4721L17.6369 31H16.9223ZM22.1624 31L22.222 29.4721L20.8375 30.2917L20.4803 29.708L21.9391 28.9997L20.4803 28.2914L20.8375 27.7083L22.222 28.5279L22.1624 27H22.877L22.8174 28.5279L24.2019 27.7083L24.5592 28.2914L23.1003 28.9997L24.5592 29.708L24.2019 30.2917L22.8174 29.4721L22.877 31H22.1624ZM27.4026 31L27.4622 29.4721L26.0777 30.2917L25.7204 29.708L27.1793 28.9997L25.7204 28.2914L26.0777 27.7083L27.4622 28.5279L27.4026 27H28.1172L28.0576 28.5279L29.4421 27.7083L29.7993 28.2914L28.3405 28.9997L29.7993 29.708L29.4421 30.2917L28.0576 29.4721L28.1172 31H27.4026ZM32.6427 31L32.7023 29.4721L31.3178 30.2917L30.9605 29.708L32.4194 28.9997L30.9605 28.2914L31.3178 27.7083L32.7023 28.5279L32.6427 27H33.3573L33.2977 28.5279L34.6822 27.7083L35.0395 28.2914L33.5806 28.9997L35.0395 29.708L34.6822 30.2917L33.2977 29.4721L33.3573 31H32.6427ZM37.8828 31L37.9424 29.4721L36.5579 30.2917L36.2007 29.708L37.6595 28.9997L36.2007 28.2914L36.5579 27.7083L37.9424 28.5279L37.8828 27H38.5974L38.5378 28.5279L39.9223 27.7083L40.2796 28.2914L38.8207 28.9997L40.2796 29.708L39.9223 30.2917L38.5378 29.4721L38.5974 31H37.8828ZM43.123 31L43.1826 29.4721L41.7981 30.2917L41.4408 29.708L42.8997 28.9997L41.4408 28.2914L41.7981 27.7083L43.1826 28.5279L43.123 27H43.8376L43.778 28.5279L45.1625 27.7083L45.5197 28.2914L44.0609 28.9997L45.5197 29.708L45.1625 30.2917L43.778 29.4721L43.8376 31H43.123ZM48.3631 31L48.4227 29.4721L47.0382 30.2917L46.6809 29.708L48.1398 28.9997L46.6809 28.2914L47.0382 27.7083L48.4227 28.5279L48.3631 27H49.0777L49.0181 28.5279L50.4026 27.7083L50.7599 28.2914L49.301 28.9997L50.7599 29.708L50.4026 30.2917L49.0181 29.4721L49.0777 31H48.3631ZM53.6032 31L53.6628 29.4721L52.2783 30.2917L51.9211 29.708L53.3799 28.9997L51.9211 28.2914L52.2783 27.7083L53.6628 28.5279L53.6032 27H54.3179L54.2582 28.5279L55.6428 27.7083L56 28.2914L54.5411 28.9997L56 29.708L55.6428 30.2917L54.2582 29.4721L54.3179 31H53.6032Z" fill="#696969"/>
</svg>
