<svg width="217" height="77" viewBox="0 0 217 77" fill="none" xmlns="http://www.w3.org/2000/svg">
<path d="M3 0.5H214C215.381 0.500001 216.5 1.61929 216.5 3V27C216.5 28.3807 215.381 29.5 214 29.5H3C1.61929 29.5 0.5 28.3807 0.5 27V3C0.5 1.61929 1.61929 0.5 3 0.5Z" stroke="#FFFAFA"/>
<path d="M3 37.5H214C215.381 37.5 216.5 38.6193 216.5 40V74C216.5 75.3807 215.381 76.5 214 76.5H3C1.61929 76.5 0.5 75.3807 0.5 74V40C0.5 38.6193 1.61929 37.5 3 37.5Z" stroke="#FFFAFA"/>
<path d="M11.9815 18L10.1918 11.4545H10.9972L12.3651 16.7855H12.429L13.8224 11.4545H14.7173L16.1108 16.7855H16.1747L17.5426 11.4545H18.348L16.5582 18H15.7401L14.2955 12.7841H14.2443L12.7997 18H11.9815ZM19.2333 18V13.0909H19.9876V18H19.2333ZM19.6168 12.2727C19.4698 12.2727 19.343 12.2227 19.2365 12.1225C19.1321 12.0224 19.0799 11.902 19.0799 11.7614C19.0799 11.6207 19.1321 11.5004 19.2365 11.4002C19.343 11.3001 19.4698 11.25 19.6168 11.25C19.7638 11.25 19.8896 11.3001 19.994 11.4002C20.1005 11.5004 20.1538 11.6207 20.1538 11.7614C20.1538 11.902 20.1005 12.0224 19.994 12.1225C19.8896 12.2227 19.7638 12.2727 19.6168 12.2727ZM22.1233 15.0469V18H21.3691V13.0909H22.0977V13.858H22.1617C22.2767 13.6087 22.4514 13.4084 22.6858 13.2571C22.9202 13.1037 23.2227 13.027 23.5935 13.027C23.9259 13.027 24.2167 13.0952 24.466 13.2315C24.7153 13.3658 24.9092 13.5703 25.0477 13.8452C25.1862 14.1179 25.2554 14.4631 25.2554 14.8807V18H24.5012V14.9318C24.5012 14.5462 24.401 14.2457 24.2007 14.0305C24.0004 13.8132 23.7256 13.7045 23.3762 13.7045C23.1354 13.7045 22.9202 13.7567 22.7306 13.8612C22.5431 13.9656 22.395 14.1179 22.2863 14.3182C22.1776 14.5185 22.1233 14.7614 22.1233 15.0469ZM28.4874 18.1023C28.0783 18.1023 27.7172 17.9989 27.4039 17.7923C27.0907 17.5835 26.8457 17.2894 26.6689 16.9102C26.492 16.5288 26.4036 16.0781 26.4036 15.5582C26.4036 15.0426 26.492 14.5952 26.6689 14.2159C26.8457 13.8366 27.0918 13.5437 27.4071 13.337C27.7225 13.1303 28.0868 13.027 28.5002 13.027C28.8198 13.027 29.0723 13.0803 29.2576 13.1868C29.4451 13.2912 29.5879 13.4105 29.6859 13.5447C29.786 13.6768 29.8638 13.7855 29.9192 13.8707H29.9831V11.4545H30.7374V18H30.0087V17.2457H29.9192C29.8638 17.3352 29.785 17.4482 29.6827 17.5845C29.5804 17.7187 29.4345 17.8391 29.2449 17.9457C29.0552 18.0501 28.8027 18.1023 28.4874 18.1023ZM28.5897 17.4247C28.8922 17.4247 29.1479 17.3459 29.3567 17.1882C29.5655 17.0284 29.7243 16.8079 29.8329 16.5266C29.9416 16.2433 29.9959 15.9162 29.9959 15.5455C29.9959 15.179 29.9426 14.8583 29.8361 14.5835C29.7296 14.3065 29.5719 14.0913 29.3631 13.9379C29.1543 13.7823 28.8965 13.7045 28.5897 13.7045C28.2701 13.7045 28.0037 13.7866 27.7907 13.9506C27.5797 14.1126 27.421 14.3331 27.3145 14.6122C27.21 14.8892 27.1578 15.2003 27.1578 15.5455C27.1578 15.8949 27.2111 16.2124 27.3176 16.4979C27.4263 16.7812 27.5861 17.0071 27.7971 17.1754C28.0101 17.3416 28.2743 17.4247 28.5897 17.4247ZM34.2179 18.1023C33.7747 18.1023 33.3858 17.9968 33.0513 17.7859C32.7189 17.5749 32.459 17.2798 32.2715 16.9006C32.0861 16.5213 31.9934 16.0781 31.9934 15.571C31.9934 15.0597 32.0861 14.6133 32.2715 14.2319C32.459 13.8505 32.7189 13.5543 33.0513 13.3434C33.3858 13.1325 33.7747 13.027 34.2179 13.027C34.661 13.027 35.0488 13.1325 35.3812 13.3434C35.7157 13.5543 35.9757 13.8505 36.161 14.2319C36.3485 14.6133 36.4423 15.0597 36.4423 15.571C36.4423 16.0781 36.3485 16.5213 36.161 16.9006C35.9757 17.2798 35.7157 17.5749 35.3812 17.7859C35.0488 17.9968 34.661 18.1023 34.2179 18.1023ZM34.2179 17.4247C34.5545 17.4247 34.8315 17.3384 35.0488 17.1658C35.2662 16.9933 35.427 16.7663 35.5314 16.4851C35.6358 16.2038 35.688 15.8991 35.688 15.571C35.688 15.2429 35.6358 14.9371 35.5314 14.6538C35.427 14.3704 35.2662 14.1413 35.0488 13.9666C34.8315 13.7919 34.5545 13.7045 34.2179 13.7045C33.8812 13.7045 33.6042 13.7919 33.3869 13.9666C33.1696 14.1413 33.0087 14.3704 32.9043 14.6538C32.7999 14.9371 32.7477 15.2429 32.7477 15.571C32.7477 15.8991 32.7999 16.2038 32.9043 16.4851C33.0087 16.7663 33.1696 16.9933 33.3869 17.1658C33.6042 17.3384 33.8812 17.4247 34.2179 17.4247ZM38.5389 18L37.0431 13.0909H37.8358L38.8968 16.8494H38.948L39.9963 13.0909H40.8017L41.8372 16.8366H41.8883L42.9494 13.0909H43.742L42.2463 18H41.5048L40.4309 14.2287H40.3542L39.2804 18H38.5389ZM48.2164 14.1903L47.5389 14.3821C47.4963 14.2692 47.4334 14.1594 47.3503 14.0529C47.2694 13.9442 47.1586 13.8548 47.0179 13.7844C46.8773 13.7141 46.6973 13.679 46.4778 13.679C46.1774 13.679 45.927 13.7482 45.7267 13.8867C45.5286 14.0231 45.4295 14.1967 45.4295 14.4077C45.4295 14.5952 45.4977 14.7433 45.6341 14.8519C45.7704 14.9606 45.9835 15.0511 46.2733 15.1236L47.002 15.3026C47.4409 15.4091 47.7679 15.5721 47.9831 15.7915C48.1983 16.0089 48.3059 16.2891 48.3059 16.6321C48.3059 16.9134 48.225 17.1648 48.063 17.3864C47.9032 17.608 47.6795 17.7827 47.3919 17.9105C47.1042 18.0384 46.7697 18.1023 46.3883 18.1023C45.8876 18.1023 45.4732 17.9936 45.1451 17.7763C44.8169 17.5589 44.6092 17.2415 44.5218 16.8239L45.2377 16.6449C45.3059 16.9091 45.4348 17.1072 45.6245 17.2393C45.8162 17.3714 46.0666 17.4375 46.3755 17.4375C46.7271 17.4375 47.0062 17.3629 47.2129 17.2138C47.4217 17.0625 47.5261 16.8814 47.5261 16.6705C47.5261 16.5 47.4664 16.3572 47.3471 16.2422C47.2278 16.125 47.0446 16.0376 46.7974 15.9801L45.9792 15.7884C45.5297 15.6818 45.1994 15.5167 44.9885 15.293C44.7797 15.0671 44.6752 14.7848 44.6752 14.446C44.6752 14.169 44.753 13.924 44.9086 13.7109C45.0662 13.4979 45.2804 13.3306 45.551 13.2092C45.8237 13.0877 46.1326 13.027 46.4778 13.027C46.9636 13.027 47.345 13.1335 47.622 13.3466C47.9011 13.5597 48.0993 13.8409 48.2164 14.1903Z" fill="#FFFCFC"/>
<path d="M10.7926 51V44.4545H11.5852V50.2969H14.6278V51H10.7926ZM15.7528 51V46.0909H16.5071V51H15.7528ZM16.1364 45.2727C15.9893 45.2727 15.8626 45.2227 15.756 45.1225C15.6516 45.0224 15.5994 44.902 15.5994 44.7614C15.5994 44.6207 15.6516 44.5004 15.756 44.4002C15.8626 44.3001 15.9893 44.25 16.1364 44.25C16.2834 44.25 16.4091 44.3001 16.5135 44.4002C16.62 44.5004 16.6733 44.6207 16.6733 44.7614C16.6733 44.902 16.62 45.0224 16.5135 45.1225C16.4091 45.2227 16.2834 45.2727 16.1364 45.2727ZM18.6428 48.0469V51H17.8886V46.0909H18.6173V46.858H18.6812C18.7963 46.6087 18.971 46.4084 19.2053 46.2571C19.4397 46.1037 19.7423 46.027 20.113 46.027C20.4454 46.027 20.7362 46.0952 20.9855 46.2315C21.2348 46.3658 21.4287 46.5703 21.5672 46.8452C21.7057 47.1179 21.7749 47.4631 21.7749 47.8807V51H21.0207V47.9318C21.0207 47.5462 20.9205 47.2457 20.7203 47.0305C20.52 46.8132 20.2451 46.7045 19.8957 46.7045C19.6549 46.7045 19.4397 46.7567 19.2501 46.8612C19.0626 46.9656 18.9145 47.1179 18.8058 47.3182C18.6972 47.5185 18.6428 47.7614 18.6428 48.0469ZM26.247 48.9929V46.0909H27.0012V51H26.247V50.169H26.1958C26.0808 50.4183 25.9018 50.6303 25.6589 50.805C25.416 50.9776 25.1092 51.0639 24.7385 51.0639C24.4316 51.0639 24.1589 50.9968 23.9203 50.8626C23.6816 50.7262 23.4941 50.5217 23.3578 50.2489C23.2214 49.9741 23.1532 49.6278 23.1532 49.2102V46.0909H23.9075V49.1591C23.9075 49.517 24.0076 49.8026 24.2079 50.0156C24.4103 50.2287 24.6681 50.3352 24.9814 50.3352C25.1689 50.3352 25.3596 50.2873 25.5534 50.1914C25.7495 50.0955 25.9135 49.9485 26.0456 49.7504C26.1799 49.5522 26.247 49.2997 26.247 48.9929ZM28.9452 46.0909L30.1214 48.098L31.2975 46.0909H32.1668L30.5816 48.5455L32.1668 51H31.2975L30.1214 49.0952L28.9452 51H28.0759L29.6356 48.5455L28.0759 46.0909H28.9452Z" fill="#FFFCFC"/>
<path d="M10.7926 62.4545H11.7386L13.9631 67.8878H14.0398L16.2642 62.4545H17.2102V69H16.4688V64.027H16.4048L14.3594 69H13.6435L11.598 64.027H11.5341V69H10.7926V62.4545ZM20.1418 69.1151C19.8307 69.1151 19.5484 69.0565 19.2948 68.9393C19.0413 68.82 18.8399 68.6484 18.6908 68.4247C18.5416 68.1989 18.4671 67.9261 18.4671 67.6065C18.4671 67.3253 18.5225 67.0973 18.6333 66.9226C18.7441 66.7457 18.8921 66.6072 19.0775 66.5071C19.2629 66.407 19.4674 66.3324 19.6911 66.2834C19.917 66.2322 20.1439 66.1918 20.3719 66.1619C20.6702 66.1236 20.912 66.0948 21.0974 66.0756C21.2849 66.0543 21.4213 66.0192 21.5065 65.9702C21.5938 65.9212 21.6375 65.8359 21.6375 65.7145V65.6889C21.6375 65.3736 21.5512 65.1286 21.3786 64.9538C21.2082 64.7791 20.9493 64.6918 20.602 64.6918C20.2419 64.6918 19.9596 64.7706 19.7551 64.9283C19.5505 65.0859 19.4067 65.2543 19.3236 65.4332L18.6077 65.1776C18.7355 64.8793 18.906 64.647 19.1191 64.4808C19.3343 64.3125 19.5686 64.1953 19.8222 64.1293C20.0779 64.0611 20.3293 64.027 20.5764 64.027C20.7341 64.027 20.9152 64.0462 21.1198 64.0845C21.3264 64.1207 21.5257 64.1964 21.7174 64.3114C21.9113 64.4265 22.0722 64.6001 22.2 64.8324C22.3279 65.0646 22.3918 65.3757 22.3918 65.7656V69H21.6375V68.3352H21.5992C21.548 68.4418 21.4628 68.5558 21.3435 68.6772C21.2242 68.7987 21.0654 68.902 20.8673 68.9872C20.6691 69.0724 20.4273 69.1151 20.1418 69.1151ZM20.2568 68.4375C20.5551 68.4375 20.8066 68.3789 21.0111 68.2617C21.2178 68.1445 21.3733 67.9933 21.4777 67.8079C21.5843 67.6225 21.6375 67.4276 21.6375 67.223V66.5327C21.6056 66.571 21.5352 66.6062 21.4266 66.6381C21.32 66.668 21.1965 66.6946 21.0558 66.718C20.9173 66.7393 20.782 66.7585 20.6499 66.7756C20.52 66.7905 20.4145 66.8033 20.3335 66.8139C20.1375 66.8395 19.9543 66.881 19.7838 66.9386C19.6155 66.994 19.4791 67.0781 19.3747 67.1911C19.2725 67.3018 19.2213 67.4531 19.2213 67.6449C19.2213 67.907 19.3183 68.1051 19.5122 68.2393C19.7082 68.3714 19.9564 68.4375 20.2568 68.4375ZM25.7628 69.1023C25.3026 69.1023 24.9063 68.9936 24.5739 68.7763C24.2415 68.5589 23.9858 68.2596 23.8068 67.8782C23.6278 67.4968 23.5384 67.0611 23.5384 66.571C23.5384 66.0724 23.63 65.6325 23.8132 65.2511C23.9986 64.8675 24.2564 64.5682 24.5866 64.353C24.919 64.1357 25.3068 64.027 25.75 64.027C26.0952 64.027 26.4062 64.0909 26.6832 64.2188C26.9602 64.3466 27.1871 64.5256 27.364 64.7557C27.5408 64.9858 27.6506 65.2543 27.6932 65.5611H26.9389C26.8814 65.3374 26.7536 65.1392 26.5554 64.9666C26.3594 64.7919 26.0952 64.7045 25.7628 64.7045C25.4688 64.7045 25.2109 64.7812 24.9893 64.9347C24.7699 65.0859 24.5984 65.3001 24.4748 65.5771C24.3533 65.8519 24.2926 66.1747 24.2926 66.5455C24.2926 66.9247 24.3523 67.255 24.4716 67.5362C24.593 67.8175 24.7635 68.0359 24.983 68.1914C25.2045 68.3469 25.4645 68.4247 25.7628 68.4247C25.9588 68.4247 26.1367 68.3906 26.2965 68.3224C26.4563 68.2543 26.5916 68.1562 26.7024 68.0284C26.8132 67.9006 26.892 67.7472 26.9389 67.5682H27.6932C27.6506 67.858 27.5451 68.119 27.3768 68.3512C27.2106 68.5813 26.9901 68.7646 26.7152 68.9009C26.4425 69.0352 26.125 69.1023 25.7628 69.1023ZM34.4208 65.7273C34.4208 66.4176 34.2962 67.0142 34.0469 67.517C33.7976 68.0199 33.4556 68.4077 33.021 68.6804C32.5863 68.9531 32.0898 69.0895 31.5316 69.0895C30.9734 69.0895 30.4769 68.9531 30.0423 68.6804C29.6076 68.4077 29.2656 68.0199 29.0163 67.517C28.767 67.0142 28.6424 66.4176 28.6424 65.7273C28.6424 65.0369 28.767 64.4403 29.0163 63.9375C29.2656 63.4347 29.6076 63.0469 30.0423 62.7741C30.4769 62.5014 30.9734 62.3651 31.5316 62.3651C32.0898 62.3651 32.5863 62.5014 33.021 62.7741C33.4556 63.0469 33.7976 63.4347 34.0469 63.9375C34.2962 64.4403 34.4208 65.0369 34.4208 65.7273ZM33.6538 65.7273C33.6538 65.1605 33.5589 64.6822 33.3693 64.2923C33.1818 63.9023 32.9272 63.6072 32.6055 63.407C32.2859 63.2067 31.9279 63.1065 31.5316 63.1065C31.1353 63.1065 30.7763 63.2067 30.4545 63.407C30.1349 63.6072 29.8803 63.9023 29.6907 64.2923C29.5032 64.6822 29.4094 65.1605 29.4094 65.7273C29.4094 66.294 29.5032 66.7724 29.6907 67.1623C29.8803 67.5522 30.1349 67.8473 30.4545 68.0476C30.7763 68.2479 31.1353 68.348 31.5316 68.348C31.9279 68.348 32.2859 68.2479 32.6055 68.0476C32.9272 67.8473 33.1818 67.5522 33.3693 67.1623C33.5589 66.7724 33.6538 66.294 33.6538 65.7273ZM39.3331 64.0909C39.2947 63.767 39.1392 63.5156 38.8665 63.3366C38.5938 63.1577 38.2592 63.0682 37.8629 63.0682C37.5732 63.0682 37.3196 63.1151 37.1023 63.2088C36.8871 63.3026 36.7188 63.4315 36.5973 63.5955C36.478 63.7596 36.4183 63.946 36.4183 64.1548C36.4183 64.3295 36.4599 64.4798 36.543 64.6055C36.6282 64.729 36.7369 64.8324 36.869 64.9155C37.0011 64.9964 37.1396 65.0636 37.2844 65.1168C37.4293 65.168 37.5625 65.2095 37.6839 65.2415L38.3487 65.4205C38.5192 65.4652 38.7088 65.527 38.9176 65.6058C39.1286 65.6847 39.3299 65.7923 39.5217 65.9286C39.7156 66.0629 39.8754 66.2354 40.0011 66.4464C40.1268 66.6573 40.1896 66.9162 40.1896 67.223C40.1896 67.5767 40.0969 67.8963 39.9116 68.1818C39.7283 68.4673 39.4599 68.6942 39.1062 68.8626C38.7546 69.0309 38.3274 69.1151 37.8246 69.1151C37.3558 69.1151 36.9499 69.0394 36.6069 68.8881C36.266 68.7369 35.9975 68.5259 35.8015 68.2553C35.6076 67.9847 35.4979 67.6705 35.4723 67.3125H36.2905C36.3118 67.5597 36.3949 67.7642 36.5398 67.9261C36.6868 68.0859 36.8722 68.2053 37.0959 68.2841C37.3217 68.3608 37.5646 68.3991 37.8246 68.3991C38.1271 68.3991 38.3988 68.3501 38.6396 68.2521C38.8803 68.152 39.071 68.0135 39.2116 67.8366C39.3523 67.6577 39.4226 67.4489 39.4226 67.2102C39.4226 66.9929 39.3619 66.8161 39.2404 66.6797C39.119 66.5433 38.9592 66.4325 38.761 66.3473C38.5629 66.2621 38.3487 66.1875 38.1186 66.1236L37.3132 65.8935C36.8018 65.7464 36.397 65.5366 36.0987 65.2638C35.8004 64.9911 35.6513 64.6342 35.6513 64.1932C35.6513 63.8267 35.7504 63.5071 35.9485 63.2344C36.1488 62.9595 36.4173 62.7464 36.7539 62.5952C37.0927 62.4418 37.4709 62.3651 37.8885 62.3651C38.3104 62.3651 38.6854 62.4407 39.0135 62.592C39.3416 62.7411 39.6016 62.9457 39.7933 63.2056C39.9872 63.4656 40.0895 63.7607 40.1001 64.0909H39.3331Z" fill="#FFFCFC"/>
<path d="M201 14L203 16L205 14" stroke="white" stroke-linecap="round"/>
</svg>
