<svg width="220" height="84" viewBox="0 0 220 84" fill="none" xmlns="http://www.w3.org/2000/svg">
<rect x="24" y="19" width="46" height="46" rx="3" fill="#593634"/>
<rect x="150" y="19" width="46" height="46" rx="3" fill="#593634"/>
<path d="M4 1H216C217.657 1 219 2.34314 219 4V80C219 81.6569 217.657 83 216 83H4C2.34315 83 1 81.6569 1 80V4L1.00391 3.8457C1.08421 2.26055 2.39489 1 4 1Z" stroke="#3B3B3B" stroke-width="2"/>
<path d="M71.6464 41.6464C71.4512 41.8417 71.4512 42.1583 71.6464 42.3536L74.8284 45.5355C75.0237 45.7308 75.3403 45.7308 75.5355 45.5355C75.7308 45.3403 75.7308 45.0237 75.5355 44.8284L72.7071 42L75.5355 39.1716C75.7308 38.9763 75.7308 38.6597 75.5355 38.4645C75.3403 38.2692 75.0237 38.2692 74.8284 38.4645L71.6464 41.6464ZM148.354 42.3536C148.549 42.1583 148.549 41.8417 148.354 41.6464L145.172 38.4645C144.976 38.2692 144.66 38.2692 144.464 38.4645C144.269 38.6597 144.269 38.9763 144.464 39.1716L147.293 42L144.464 44.8284C144.269 45.0237 144.269 45.3403 144.464 45.5355C144.66 45.7308 144.976 45.7308 145.172 45.5355L148.354 42.3536ZM72 42V42.5H73.0133V42V41.5H72V42ZM74.0267 42V42.5H76.0533V42V41.5H74.0267V42ZM77.0667 42V42.5H79.0933V42V41.5H77.0667V42ZM80.1067 42V42.5H82.1333V42V41.5H80.1067V42ZM83.1467 42V42.5H85.1733V42V41.5H83.1467V42ZM86.1867 42V42.5L88.2133 42.5V42V41.5L86.1867 41.5V42ZM89.2267 42V42.5H91.2533V42V41.5H89.2267V42ZM92.2667 42V42.5H94.2933V42V41.5H92.2667V42ZM95.3067 42V42.5H97.3333V42V41.5H95.3067V42ZM98.3467 42V42.5H100.373V42V41.5H98.3467V42ZM101.387 42V42.5H103.413V42V41.5H101.387V42ZM104.427 42V42.5H106.453V42V41.5H104.427V42ZM107.467 42V42.5H109.493V42V41.5H107.467V42ZM110.507 42V42.5H112.533V42V41.5H110.507V42ZM113.547 42V42.5L115.573 42.5V42V41.5L113.547 41.5V42ZM116.587 42V42.5H118.613V42V41.5H116.587V42ZM119.627 42V42.5H121.653V42V41.5H119.627V42ZM122.667 42V42.5H124.693V42V41.5H122.667V42ZM125.707 42V42.5H127.733V42V41.5H125.707V42ZM128.747 42V42.5H130.773V42V41.5H128.747V42ZM131.787 42V42.5H133.813V42V41.5H131.787V42ZM134.827 42V42.5H136.853V42V41.5H134.827V42ZM137.867 42V42.5H139.893V42V41.5H137.867V42ZM140.907 42V42.5H142.933V42V41.5H140.907V42ZM143.947 42V42.5L145.973 42.5V42V41.5L143.947 41.5V42ZM146.987 42V42.5H148V42V41.5H146.987V42Z" fill="white"/>
</svg>
