<svg width="217" height="82" viewBox="0 0 217 82" fill="none" xmlns="http://www.w3.org/2000/svg">
<path d="M0.632102 10V2.72727H3.54403C4.07907 2.72727 4.52533 2.80658 4.88281 2.9652C5.24029 3.12382 5.509 3.34399 5.68892 3.62571C5.86884 3.90507 5.95881 4.22704 5.95881 4.59162C5.95881 4.87571 5.90199 5.12547 5.78835 5.34091C5.67472 5.55398 5.51847 5.72917 5.3196 5.86648C5.12311 6.00142 4.8982 6.0973 4.64489 6.15412V6.22514C4.92188 6.23698 5.18111 6.3151 5.42259 6.45952C5.66643 6.60393 5.86411 6.80634 6.01562 7.06676C6.16714 7.32481 6.2429 7.63258 6.2429 7.99006C6.2429 8.37595 6.14702 8.72041 5.95526 9.02344C5.76586 9.3241 5.48532 9.56203 5.11364 9.73722C4.74195 9.91241 4.28385 10 3.73935 10H0.632102ZM2.16974 8.7429H3.4233C3.8518 8.7429 4.1643 8.66122 4.3608 8.49787C4.55729 8.33215 4.65554 8.11198 4.65554 7.83736C4.65554 7.63613 4.60701 7.45857 4.50994 7.30469C4.41288 7.1508 4.27438 7.03007 4.09446 6.94247C3.9169 6.85488 3.70502 6.81108 3.45881 6.81108H2.16974V8.7429ZM2.16974 5.7706H3.30966C3.52036 5.7706 3.70739 5.7339 3.87074 5.66051C4.03646 5.58475 4.16667 5.47822 4.26136 5.34091C4.35843 5.2036 4.40696 5.03906 4.40696 4.8473C4.40696 4.58452 4.31345 4.37263 4.12642 4.21165C3.94176 4.05066 3.67898 3.97017 3.33807 3.97017H2.16974V5.7706ZM7.21502 10V4.54545H8.72781V10H7.21502ZM7.97496 3.84233C7.75006 3.84233 7.55711 3.76776 7.39613 3.61861C7.23751 3.46709 7.1582 3.28598 7.1582 3.07528C7.1582 2.86695 7.23751 2.68821 7.39613 2.53906C7.55711 2.38755 7.75006 2.31179 7.97496 2.31179C8.19987 2.31179 8.39163 2.38755 8.55025 2.53906C8.71123 2.68821 8.79173 2.86695 8.79173 3.07528C8.79173 3.28598 8.71123 3.46709 8.55025 3.61861C8.39163 3.76776 8.19987 3.84233 7.97496 3.84233ZM12.4041 10.1065C11.8525 10.1065 11.3755 9.98935 10.973 9.75497C10.5729 9.51823 10.264 9.18916 10.0462 8.76776C9.82836 8.34399 9.71946 7.85275 9.71946 7.29403C9.71946 6.73059 9.82836 6.23816 10.0462 5.81676C10.264 5.39299 10.5729 5.06392 10.973 4.82955C11.3755 4.5928 11.8525 4.47443 12.4041 4.47443C12.9557 4.47443 13.4316 4.5928 13.8317 4.82955C14.2341 5.06392 14.5443 5.39299 14.7621 5.81676C14.9799 6.23816 15.0888 6.73059 15.0888 7.29403C15.0888 7.85275 14.9799 8.34399 14.7621 8.76776C14.5443 9.18916 14.2341 9.51823 13.8317 9.75497C13.4316 9.98935 12.9557 10.1065 12.4041 10.1065ZM12.4112 8.93466C12.6622 8.93466 12.8717 8.86364 13.0398 8.72159C13.2079 8.57718 13.3345 8.38068 13.4197 8.1321C13.5073 7.88352 13.5511 7.60062 13.5511 7.28338C13.5511 6.96615 13.5073 6.68324 13.4197 6.43466C13.3345 6.18608 13.2079 5.98958 13.0398 5.84517C12.8717 5.70076 12.6622 5.62855 12.4112 5.62855C12.1579 5.62855 11.9448 5.70076 11.772 5.84517C11.6016 5.98958 11.4725 6.18608 11.3849 6.43466C11.2997 6.68324 11.2571 6.96615 11.2571 7.28338C11.2571 7.60062 11.2997 7.88352 11.3849 8.1321C11.4725 8.38068 11.6016 8.57718 11.772 8.72159C11.9448 8.86364 12.1579 8.93466 12.4112 8.93466Z" fill="#FFFCFC"/>
<path d="M5 17.5H212C214.485 17.5 216.5 19.5147 216.5 22V77C216.5 79.4853 214.485 81.5 212 81.5H5C2.51472 81.5 0.5 79.4853 0.5 77V22C0.5 19.5147 2.51472 17.5 5 17.5Z" stroke="#FFFAFA"/>
<path d="M10.4347 27.1577V26.4545H15.3438V27.1577H13.2855V33H12.4929V27.1577H10.4347ZM17.8111 33.1023C17.3381 33.1023 16.93 32.9979 16.587 32.7891C16.2461 32.5781 15.983 32.2841 15.7976 31.907C15.6143 31.5277 15.5227 31.0866 15.5227 30.5838C15.5227 30.081 15.6143 29.6378 15.7976 29.2543C15.983 28.8686 16.2408 28.5682 16.571 28.353C16.9034 28.1357 17.2912 28.027 17.7344 28.027C17.9901 28.027 18.2425 28.0696 18.4918 28.1548C18.7411 28.2401 18.968 28.3786 19.1726 28.5703C19.3771 28.7599 19.5401 29.0114 19.6616 29.3246C19.783 29.6378 19.8438 30.0234 19.8438 30.4815V30.8011H16.0597V30.1491H19.0767C19.0767 29.8722 19.0213 29.625 18.9105 29.4077C18.8018 29.1903 18.6463 29.0188 18.4439 28.8931C18.2436 28.7674 18.0071 28.7045 17.7344 28.7045C17.4339 28.7045 17.174 28.7791 16.9545 28.9283C16.7372 29.0753 16.57 29.267 16.4528 29.5036C16.3356 29.7401 16.277 29.9936 16.277 30.2642V30.6989C16.277 31.0696 16.3409 31.3839 16.4688 31.6417C16.5987 31.8974 16.7788 32.0923 17.0089 32.2266C17.239 32.3587 17.5064 32.4247 17.8111 32.4247C18.0092 32.4247 18.1882 32.397 18.348 32.3416C18.5099 32.2841 18.6495 32.1989 18.7667 32.0859C18.8839 31.9709 18.9744 31.8281 19.0384 31.6577L19.767 31.8622C19.6903 32.1094 19.5614 32.3267 19.3803 32.5142C19.1992 32.6996 18.9755 32.8445 18.7092 32.9489C18.4428 33.0511 18.1435 33.1023 17.8111 33.1023ZM21.7454 26.4545V33H20.9911V26.4545H21.7454ZM23.8811 26.4545V33H23.1269V26.4545H23.8811ZM30.8876 30.9929V28.0909H31.6419V33H30.8876V32.169H30.8365C30.7214 32.4183 30.5424 32.6303 30.2995 32.805C30.0566 32.9776 29.7498 33.0639 29.3791 33.0639C29.0723 33.0639 28.7995 32.9968 28.5609 32.8626C28.3223 32.7262 28.1348 32.5217 27.9984 32.2489C27.862 31.9741 27.7939 31.6278 27.7939 31.2102V28.0909H28.5481V31.1591C28.5481 31.517 28.6483 31.8026 28.8485 32.0156C29.051 32.2287 29.3088 32.3352 29.622 32.3352C29.8095 32.3352 30.0002 32.2873 30.1941 32.1914C30.3901 32.0955 30.5542 31.9485 30.6863 31.7504C30.8205 31.5522 30.8876 31.2997 30.8876 30.9929ZM36.5006 29.1903L35.8231 29.3821C35.7805 29.2692 35.7176 29.1594 35.6345 29.0529C35.5535 28.9442 35.4427 28.8548 35.3021 28.7844C35.1615 28.7141 34.9814 28.679 34.762 28.679C34.4616 28.679 34.2112 28.7482 34.0109 28.8867C33.8128 29.0231 33.7137 29.1967 33.7137 29.4077C33.7137 29.5952 33.7819 29.7433 33.9182 29.8519C34.0546 29.9606 34.2677 30.0511 34.5574 30.1236L35.2861 30.3026C35.7251 30.4091 36.0521 30.5721 36.2673 30.7915C36.4825 31.0089 36.5901 31.2891 36.5901 31.6321C36.5901 31.9134 36.5091 32.1648 36.3472 32.3864C36.1874 32.608 35.9637 32.7827 35.676 32.9105C35.3884 33.0384 35.0539 33.1023 34.6725 33.1023C34.1718 33.1023 33.7574 32.9936 33.4292 32.7763C33.1011 32.5589 32.8934 32.2415 32.806 31.8239L33.5219 31.6449C33.5901 31.9091 33.719 32.1072 33.9086 32.2393C34.1004 32.3714 34.3508 32.4375 34.6597 32.4375C35.0113 32.4375 35.2904 32.3629 35.4971 32.2138C35.7059 32.0625 35.8103 31.8814 35.8103 31.6705C35.8103 31.5 35.7506 31.3572 35.6313 31.2422C35.512 31.125 35.3287 31.0376 35.0816 30.9801L34.2634 30.7884C33.8138 30.6818 33.4836 30.5167 33.2726 30.293C33.0638 30.0671 32.9594 29.7848 32.9594 29.446C32.9594 29.169 33.0372 28.924 33.1927 28.7109C33.3504 28.4979 33.5645 28.3306 33.8351 28.2092C34.1079 28.0877 34.4168 28.027 34.762 28.027C35.2478 28.027 35.6292 28.1335 35.9062 28.3466C36.1853 28.5597 36.3834 28.8409 36.5006 29.1903ZM41.7013 33.1151C41.3903 33.1151 41.108 33.0565 40.8544 32.9393C40.6009 32.82 40.3995 32.6484 40.2504 32.4247C40.1012 32.1989 40.0266 31.9261 40.0266 31.6065C40.0266 31.3253 40.082 31.0973 40.1928 30.9226C40.3036 30.7457 40.4517 30.6072 40.6371 30.5071C40.8224 30.407 41.027 30.3324 41.2507 30.2834C41.4766 30.2322 41.7035 30.1918 41.9315 30.1619C42.2298 30.1236 42.4716 30.0948 42.657 30.0756C42.8445 30.0543 42.9808 30.0192 43.0661 29.9702C43.1534 29.9212 43.1971 29.8359 43.1971 29.7145V29.6889C43.1971 29.3736 43.1108 29.1286 42.9382 28.9538C42.7678 28.7791 42.5089 28.6918 42.1616 28.6918C41.8015 28.6918 41.5192 28.7706 41.3146 28.9283C41.1101 29.0859 40.9663 29.2543 40.8832 29.4332L40.1673 29.1776C40.2951 28.8793 40.4656 28.647 40.6786 28.4808C40.8938 28.3125 41.1282 28.1953 41.3817 28.1293C41.6374 28.0611 41.8888 28.027 42.136 28.027C42.2937 28.027 42.4748 28.0462 42.6793 28.0845C42.886 28.1207 43.0852 28.1964 43.277 28.3114C43.4709 28.4265 43.6317 28.6001 43.7596 28.8324C43.8874 29.0646 43.9513 29.3757 43.9513 29.7656V33H43.1971V32.3352H43.1587C43.1076 32.4418 43.0224 32.5558 42.9031 32.6772C42.7837 32.7987 42.625 32.902 42.4268 32.9872C42.2287 33.0724 41.9869 33.1151 41.7013 33.1151ZM41.8164 32.4375C42.1147 32.4375 42.3661 32.3789 42.5707 32.2617C42.7773 32.1445 42.9329 31.9933 43.0373 31.8079C43.1438 31.6225 43.1971 31.4276 43.1971 31.223V30.5327C43.1651 30.571 43.0948 30.6062 42.9862 30.6381C42.8796 30.668 42.756 30.6946 42.6154 30.718C42.4769 30.7393 42.3416 30.7585 42.2095 30.7756C42.0795 30.7905 41.9741 30.8033 41.8931 30.8139C41.6971 30.8395 41.5138 30.881 41.3434 30.9386C41.1751 30.994 41.0387 31.0781 40.9343 31.1911C40.832 31.3018 40.7809 31.4531 40.7809 31.6449C40.7809 31.907 40.8778 32.1051 41.0717 32.2393C41.2678 32.3714 41.516 32.4375 41.8164 32.4375ZM48.6135 26.4545V33H47.8593V26.4545H48.6135ZM49.995 33V28.0909H50.7493V33H49.995ZM50.3786 27.2727C50.2315 27.2727 50.1048 27.2227 49.9982 27.1225C49.8938 27.0224 49.8416 26.902 49.8416 26.7614C49.8416 26.6207 49.8938 26.5004 49.9982 26.4002C50.1048 26.3001 50.2315 26.25 50.3786 26.25C50.5256 26.25 50.6513 26.3001 50.7557 26.4002C50.8622 26.5004 50.9155 26.6207 50.9155 26.7614C50.9155 26.902 50.8622 27.0224 50.7557 27.1225C50.6513 27.2227 50.5256 27.2727 50.3786 27.2727ZM54.2657 28.0909V28.7301H51.7217V28.0909H54.2657ZM52.4632 26.9148H53.2174V31.5938C53.2174 31.8068 53.2483 31.9666 53.3101 32.0732C53.374 32.1776 53.455 32.2479 53.553 32.2841C53.6531 32.3182 53.7586 32.3352 53.8694 32.3352C53.9525 32.3352 54.0207 32.331 54.074 32.3224C54.1272 32.3118 54.1698 32.3033 54.2018 32.2969L54.3552 32.9744C54.3041 32.9936 54.2327 33.0128 54.1411 33.032C54.0494 33.0533 53.9333 33.0639 53.7927 33.0639C53.5796 33.0639 53.3708 33.0181 53.1663 32.9265C52.9639 32.8349 52.7955 32.6953 52.6613 32.5078C52.5292 32.3203 52.4632 32.0838 52.4632 31.7983V26.9148ZM57.5352 28.0909V28.7301H54.9912V28.0909H57.5352ZM55.7327 26.9148H56.4869V31.5938C56.4869 31.8068 56.5178 31.9666 56.5796 32.0732C56.6436 32.1776 56.7245 32.2479 56.8225 32.2841C56.9227 32.3182 57.0281 32.3352 57.1389 32.3352C57.222 32.3352 57.2902 32.331 57.3435 32.3224C57.3968 32.3118 57.4394 32.3033 57.4713 32.2969L57.6247 32.9744C57.5736 32.9936 57.5022 33.0128 57.4106 33.032C57.319 33.0533 57.2029 33.0639 57.0622 33.0639C56.8492 33.0639 56.6404 33.0181 56.4358 32.9265C56.2334 32.8349 56.0651 32.6953 55.9308 32.5078C55.7987 32.3203 55.7327 32.0838 55.7327 31.7983V26.9148ZM59.5296 26.4545V33H58.7753V26.4545H59.5296ZM62.9693 33.1023C62.4963 33.1023 62.0882 32.9979 61.7452 32.7891C61.4043 32.5781 61.1412 32.2841 60.9558 31.907C60.7725 31.5277 60.6809 31.0866 60.6809 30.5838C60.6809 30.081 60.7725 29.6378 60.9558 29.2543C61.1412 28.8686 61.399 28.5682 61.7292 28.353C62.0616 28.1357 62.4494 28.027 62.8926 28.027C63.1483 28.027 63.4007 28.0696 63.65 28.1548C63.8993 28.2401 64.1262 28.3786 64.3308 28.5703C64.5353 28.7599 64.6983 29.0114 64.8198 29.3246C64.9412 29.6378 65.002 30.0234 65.002 30.4815V30.8011H61.2179V30.1491H64.2349C64.2349 29.8722 64.1795 29.625 64.0687 29.4077C63.96 29.1903 63.8045 29.0188 63.6021 28.8931C63.4018 28.7674 63.1653 28.7045 62.8926 28.7045C62.5922 28.7045 62.3322 28.7791 62.1127 28.9283C61.8954 29.0753 61.7282 29.267 61.611 29.5036C61.4938 29.7401 61.4352 29.9936 61.4352 30.2642V30.6989C61.4352 31.0696 61.4991 31.3839 61.627 31.6417C61.7569 31.8974 61.937 32.0923 62.1671 32.2266C62.3972 32.3587 62.6646 32.4247 62.9693 32.4247C63.1674 32.4247 63.3464 32.397 63.5062 32.3416C63.6681 32.2841 63.8077 32.1989 63.9249 32.0859C64.0421 31.9709 64.1326 31.8281 64.1966 31.6577L64.9252 31.8622C64.8485 32.1094 64.7196 32.3267 64.5385 32.5142C64.3574 32.6996 64.1337 32.8445 63.8674 32.9489C63.601 33.0511 63.3017 33.1023 62.9693 33.1023ZM68.7828 33V26.4545H69.5371V28.8707H69.601C69.6564 28.7855 69.7331 28.6768 69.8311 28.5447C69.9313 28.4105 70.074 28.2912 70.2594 28.1868C70.4469 28.0803 70.7005 28.027 71.0201 28.027C71.4334 28.027 71.7978 28.1303 72.1131 28.337C72.4284 28.5437 72.6745 28.8366 72.8514 29.2159C73.0282 29.5952 73.1167 30.0426 73.1167 30.5582C73.1167 31.0781 73.0282 31.5288 72.8514 31.9102C72.6745 32.2894 72.4295 32.5835 72.1163 32.7923C71.8031 32.9989 71.4419 33.1023 71.0328 33.1023C70.7175 33.1023 70.465 33.0501 70.2754 32.9457C70.0858 32.8391 69.9398 32.7187 69.8375 32.5845C69.7353 32.4482 69.6564 32.3352 69.601 32.2457H69.5115V33H68.7828ZM69.5243 30.5455C69.5243 30.9162 69.5787 31.2433 69.6873 31.5266C69.796 31.8079 69.9547 32.0284 70.1635 32.1882C70.3723 32.3459 70.628 32.4247 70.9306 32.4247C71.2459 32.4247 71.5091 32.3416 71.72 32.1754C71.9331 32.0071 72.0929 31.7812 72.1994 31.4979C72.3081 31.2124 72.3624 30.8949 72.3624 30.5455C72.3624 30.2003 72.3091 29.8892 72.2026 29.6122C72.0982 29.3331 71.9395 29.1126 71.7264 28.9506C71.5154 28.7866 71.2502 28.7045 70.9306 28.7045C70.6238 28.7045 70.3659 28.7823 70.1571 28.9379C69.9483 29.0913 69.7907 29.3065 69.6841 29.5835C69.5776 29.8583 69.5243 30.179 69.5243 30.5455ZM74.2704 33V28.0909H75.0247V33H74.2704ZM74.6539 27.2727C74.5069 27.2727 74.3801 27.2227 74.2736 27.1225C74.1692 27.0224 74.117 26.902 74.117 26.7614C74.117 26.6207 74.1692 26.5004 74.2736 26.4002C74.3801 26.3001 74.5069 26.25 74.6539 26.25C74.801 26.25 74.9267 26.3001 75.0311 26.4002C75.1376 26.5004 75.1909 26.6207 75.1909 26.7614C75.1909 26.902 75.1376 27.0224 75.0311 27.1225C74.9267 27.2227 74.801 27.2727 74.6539 27.2727ZM78.5411 28.0909V28.7301H75.9971V28.0909H78.5411ZM76.7385 26.9148H77.4928V31.5938C77.4928 31.8068 77.5237 31.9666 77.5855 32.0732C77.6494 32.1776 77.7304 32.2479 77.8284 32.2841C77.9285 32.3182 78.034 32.3352 78.1448 32.3352C78.2279 32.3352 78.2961 32.331 78.3493 32.3224C78.4026 32.3118 78.4452 32.3033 78.4772 32.2969L78.6306 32.9744C78.5795 32.9936 78.5081 33.0128 78.4165 33.032C78.3248 33.0533 78.2087 33.0639 78.0681 33.0639C77.855 33.0639 77.6462 33.0181 77.4417 32.9265C77.2393 32.8349 77.0709 32.6953 76.9367 32.5078C76.8046 32.3203 76.7385 32.0838 76.7385 31.7983V26.9148ZM83.6515 33.1151C83.3405 33.1151 83.0581 33.0565 82.8046 32.9393C82.551 32.82 82.3497 32.6484 82.2006 32.4247C82.0514 32.1989 81.9768 31.9261 81.9768 31.6065C81.9768 31.3253 82.0322 31.0973 82.143 30.9226C82.2538 30.7457 82.4019 30.6072 82.5873 30.5071C82.7726 30.407 82.9772 30.3324 83.2009 30.2834C83.4268 30.2322 83.6537 30.1918 83.8817 30.1619C84.18 30.1236 84.4218 30.0948 84.6072 30.0756C84.7947 30.0543 84.931 30.0192 85.0162 29.9702C85.1036 29.9212 85.1473 29.8359 85.1473 29.7145V29.6889C85.1473 29.3736 85.061 29.1286 84.8884 28.9538C84.718 28.7791 84.4591 28.6918 84.1118 28.6918C83.7517 28.6918 83.4694 28.7706 83.2648 28.9283C83.0603 29.0859 82.9165 29.2543 82.8334 29.4332L82.1175 29.1776C82.2453 28.8793 82.4157 28.647 82.6288 28.4808C82.844 28.3125 83.0784 28.1953 83.3319 28.1293C83.5876 28.0611 83.839 28.027 84.0862 28.027C84.2439 28.027 84.425 28.0462 84.6295 28.0845C84.8362 28.1207 85.0354 28.1964 85.2272 28.3114C85.4211 28.4265 85.5819 28.6001 85.7098 28.8324C85.8376 29.0646 85.9015 29.3757 85.9015 29.7656V33H85.1473V32.3352H85.1089C85.0578 32.4418 84.9726 32.5558 84.8532 32.6772C84.7339 32.7987 84.5752 32.902 84.377 32.9872C84.1789 33.0724 83.9371 33.1151 83.6515 33.1151ZM83.7666 32.4375C84.0649 32.4375 84.3163 32.3789 84.5209 32.2617C84.7275 32.1445 84.8831 31.9933 84.9875 31.8079C85.094 31.6225 85.1473 31.4276 85.1473 31.223V30.5327C85.1153 30.571 85.045 30.6062 84.9363 30.6381C84.8298 30.668 84.7062 30.6946 84.5656 30.718C84.4271 30.7393 84.2918 30.7585 84.1597 30.7756C84.0297 30.7905 83.9243 30.8033 83.8433 30.8139C83.6473 30.8395 83.464 30.881 83.2936 30.9386C83.1253 30.994 82.9889 31.0781 82.8845 31.1911C82.7822 31.3018 82.7311 31.4531 82.7311 31.6449C82.7311 31.907 82.828 32.1051 83.0219 32.2393C83.218 32.3714 83.4662 32.4375 83.7666 32.4375ZM87.3805 33V26.4545H88.1348V28.8707H88.1987C88.2541 28.7855 88.3308 28.6768 88.4288 28.5447C88.5289 28.4105 88.6717 28.2912 88.8571 28.1868C89.0446 28.0803 89.2981 28.027 89.6177 28.027C90.0311 28.027 90.3954 28.1303 90.7108 28.337C91.0261 28.5437 91.2722 28.8366 91.449 29.2159C91.6259 29.5952 91.7143 30.0426 91.7143 30.5582C91.7143 31.0781 91.6259 31.5288 91.449 31.9102C91.2722 32.2894 91.0272 32.5835 90.714 32.7923C90.4007 32.9989 90.0396 33.1023 89.6305 33.1023C89.3152 33.1023 89.0627 33.0501 88.873 32.9457C88.6834 32.8391 88.5375 32.7187 88.4352 32.5845C88.3329 32.4482 88.2541 32.3352 88.1987 32.2457H88.1092V33H87.3805ZM88.122 30.5455C88.122 30.9162 88.1763 31.2433 88.285 31.5266C88.3936 31.8079 88.5524 32.0284 88.7612 32.1882C88.97 32.3459 89.2257 32.4247 89.5282 32.4247C89.8436 32.4247 90.1067 32.3416 90.3176 32.1754C90.5307 32.0071 90.6905 31.7812 90.7971 31.4979C90.9057 31.2124 90.96 30.8949 90.96 30.5455C90.96 30.2003 90.9068 29.8892 90.8002 29.6122C90.6958 29.3331 90.5371 29.1126 90.324 28.9506C90.1131 28.7866 89.8478 28.7045 89.5282 28.7045C89.2214 28.7045 88.9636 28.7823 88.7548 28.9379C88.546 29.0913 88.3883 29.3065 88.2818 29.5835C88.1752 29.8583 88.122 30.179 88.122 30.5455ZM94.8624 33.1023C94.4192 33.1023 94.0304 32.9968 93.6958 32.7859C93.3635 32.5749 93.1035 32.2798 92.916 31.9006C92.7306 31.5213 92.638 31.0781 92.638 30.571C92.638 30.0597 92.7306 29.6133 92.916 29.2319C93.1035 28.8505 93.3635 28.5543 93.6958 28.3434C94.0304 28.1325 94.4192 28.027 94.8624 28.027C95.3056 28.027 95.6934 28.1325 96.0257 28.3434C96.3603 28.5543 96.6202 28.8505 96.8056 29.2319C96.9931 29.6133 97.0868 30.0597 97.0868 30.571C97.0868 31.0781 96.9931 31.5213 96.8056 31.9006C96.6202 32.2798 96.3603 32.5749 96.0257 32.7859C95.6934 32.9968 95.3056 33.1023 94.8624 33.1023ZM94.8624 32.4247C95.199 32.4247 95.476 32.3384 95.6934 32.1658C95.9107 31.9933 96.0716 31.7663 96.176 31.4851C96.2804 31.2038 96.3326 30.8991 96.3326 30.571C96.3326 30.2429 96.2804 29.9371 96.176 29.6538C96.0716 29.3704 95.9107 29.1413 95.6934 28.9666C95.476 28.7919 95.199 28.7045 94.8624 28.7045C94.5257 28.7045 94.2488 28.7919 94.0314 28.9666C93.8141 29.1413 93.6532 29.3704 93.5488 29.6538C93.4444 29.9371 93.3922 30.2429 93.3922 30.571C93.3922 30.8991 93.4444 31.2038 93.5488 31.4851C93.6532 31.7663 93.8141 31.9933 94.0314 32.1658C94.2488 32.3384 94.5257 32.4247 94.8624 32.4247ZM101.332 30.9929V28.0909H102.086V33H101.332V32.169H101.281C101.166 32.4183 100.987 32.6303 100.744 32.805C100.501 32.9776 100.194 33.0639 99.8234 33.0639C99.5166 33.0639 99.2439 32.9968 99.0052 32.8626C98.7666 32.7262 98.5791 32.5217 98.4427 32.2489C98.3064 31.9741 98.2382 31.6278 98.2382 31.2102V28.0909H98.9925V31.1591C98.9925 31.517 99.0926 31.8026 99.2929 32.0156C99.4953 32.2287 99.7531 32.3352 100.066 32.3352C100.254 32.3352 100.445 32.2873 100.638 32.1914C100.834 32.0955 100.998 31.9485 101.131 31.7504C101.265 31.5522 101.332 31.2997 101.332 30.9929ZM105.603 28.0909V28.7301H103.059V28.0909H105.603ZM103.8 26.9148H104.554V31.5938C104.554 31.8068 104.585 31.9666 104.647 32.0732C104.711 32.1776 104.792 32.2479 104.89 32.2841C104.99 32.3182 105.096 32.3352 105.206 32.3352C105.289 32.3352 105.358 32.331 105.411 32.3224C105.464 32.3118 105.507 32.3033 105.539 32.2969L105.692 32.9744C105.641 32.9936 105.57 33.0128 105.478 33.032C105.386 33.0533 105.27 33.0639 105.13 33.0639C104.917 33.0639 104.708 33.0181 104.503 32.9265C104.301 32.8349 104.132 32.6953 103.998 32.5078C103.866 32.3203 103.8 32.0838 103.8 31.7983V26.9148ZM109.754 34.8409C109.626 34.8409 109.512 34.8303 109.412 34.8089C109.312 34.7898 109.243 34.7706 109.205 34.7514L109.396 34.0866C109.58 34.1335 109.741 34.1506 109.882 34.1378C110.023 34.125 110.147 34.0621 110.256 33.9492C110.367 33.8384 110.468 33.6584 110.56 33.4091L110.7 33.0256L108.885 28.0909H109.703L111.058 32.0028H111.109L112.464 28.0909H113.283L111.199 33.7159C111.105 33.9695 110.989 34.1793 110.85 34.3455C110.712 34.5138 110.551 34.6385 110.368 34.7195C110.187 34.8004 109.982 34.8409 109.754 34.8409ZM116.097 33.1023C115.654 33.1023 115.265 32.9968 114.93 32.7859C114.598 32.5749 114.338 32.2798 114.15 31.9006C113.965 31.5213 113.872 31.0781 113.872 30.571C113.872 30.0597 113.965 29.6133 114.15 29.2319C114.338 28.8505 114.598 28.5543 114.93 28.3434C115.265 28.1325 115.654 28.027 116.097 28.027C116.54 28.027 116.928 28.1325 117.26 28.3434C117.595 28.5543 117.855 28.8505 118.04 29.2319C118.227 29.6133 118.321 30.0597 118.321 30.571C118.321 31.0781 118.227 31.5213 118.04 31.9006C117.855 32.2798 117.595 32.5749 117.26 32.7859C116.928 32.9968 116.54 33.1023 116.097 33.1023ZM116.097 32.4247C116.433 32.4247 116.71 32.3384 116.928 32.1658C117.145 31.9933 117.306 31.7663 117.41 31.4851C117.515 31.2038 117.567 30.8991 117.567 30.571C117.567 30.2429 117.515 29.9371 117.41 29.6538C117.306 29.3704 117.145 29.1413 116.928 28.9666C116.71 28.7919 116.433 28.7045 116.097 28.7045C115.76 28.7045 115.483 28.7919 115.266 28.9666C115.048 29.1413 114.888 29.3704 114.783 29.6538C114.679 29.9371 114.627 30.2429 114.627 30.571C114.627 30.8991 114.679 31.2038 114.783 31.4851C114.888 31.7663 115.048 31.9933 115.266 32.1658C115.483 32.3384 115.76 32.4247 116.097 32.4247ZM122.566 30.9929V28.0909H123.321V33H122.566V32.169H122.515C122.4 32.4183 122.221 32.6303 121.978 32.805C121.735 32.9776 121.429 33.0639 121.058 33.0639C120.751 33.0639 120.478 32.9968 120.24 32.8626C120.001 32.7262 119.813 32.5217 119.677 32.2489C119.541 31.9741 119.473 31.6278 119.473 31.2102V28.0909H120.227V31.1591C120.227 31.517 120.327 31.8026 120.527 32.0156C120.73 32.2287 120.987 32.3352 121.301 32.3352C121.488 32.3352 121.679 32.2873 121.873 32.1914C122.069 32.0955 122.233 31.9485 122.365 31.7504C122.499 31.5522 122.566 31.2997 122.566 30.9929ZM124.702 33V28.0909H125.431V28.8324H125.482C125.571 28.5895 125.733 28.3924 125.968 28.2411C126.202 28.0898 126.466 28.0142 126.76 28.0142C126.816 28.0142 126.885 28.0153 126.968 28.0174C127.051 28.0195 127.114 28.0227 127.157 28.027V28.794C127.131 28.7876 127.072 28.7781 126.981 28.7653C126.891 28.7504 126.797 28.7429 126.696 28.7429C126.458 28.7429 126.245 28.793 126.057 28.8931C125.872 28.9911 125.725 29.1275 125.616 29.3022C125.51 29.4748 125.456 29.6719 125.456 29.8935V33H124.702ZM131.528 29.1903L130.85 29.3821C130.808 29.2692 130.745 29.1594 130.662 29.0529C130.581 28.9442 130.47 28.8548 130.329 28.7844C130.189 28.7141 130.009 28.679 129.789 28.679C129.489 28.679 129.239 28.7482 129.038 28.8867C128.84 29.0231 128.741 29.1967 128.741 29.4077C128.741 29.5952 128.809 29.7433 128.946 29.8519C129.082 29.9606 129.295 30.0511 129.585 30.1236L130.313 30.3026C130.752 30.4091 131.079 30.5721 131.295 30.7915C131.51 31.0089 131.617 31.2891 131.617 31.6321C131.617 31.9134 131.536 32.1648 131.375 32.3864C131.215 32.608 130.991 32.7827 130.703 32.9105C130.416 33.0384 130.081 33.1023 129.7 33.1023C129.199 33.1023 128.785 32.9936 128.457 32.7763C128.128 32.5589 127.921 32.2415 127.833 31.8239L128.549 31.6449C128.617 31.9091 128.746 32.1072 128.936 32.2393C129.128 32.3714 129.378 32.4375 129.687 32.4375C130.039 32.4375 130.318 32.3629 130.524 32.2138C130.733 32.0625 130.838 31.8814 130.838 31.6705C130.838 31.5 130.778 31.3572 130.659 31.2422C130.539 31.125 130.356 31.0376 130.109 30.9801L129.291 30.7884C128.841 30.6818 128.511 30.5167 128.3 30.293C128.091 30.0671 127.987 29.7848 127.987 29.446C127.987 29.169 128.065 28.924 128.22 28.7109C128.378 28.4979 128.592 28.3306 128.862 28.2092C129.135 28.0877 129.444 28.027 129.789 28.027C130.275 28.027 130.657 28.1335 130.934 28.3466C131.213 28.5597 131.411 28.8409 131.528 29.1903ZM134.811 33.1023C134.338 33.1023 133.93 32.9979 133.587 32.7891C133.246 32.5781 132.983 32.2841 132.798 31.907C132.614 31.5277 132.523 31.0866 132.523 30.5838C132.523 30.081 132.614 29.6378 132.798 29.2543C132.983 28.8686 133.241 28.5682 133.571 28.353C133.903 28.1357 134.291 28.027 134.734 28.027C134.99 28.027 135.243 28.0696 135.492 28.1548C135.741 28.2401 135.968 28.3786 136.173 28.5703C136.377 28.7599 136.54 29.0114 136.662 29.3246C136.783 29.6378 136.844 30.0234 136.844 30.4815V30.8011H133.06V30.1491H136.077C136.077 29.8722 136.021 29.625 135.911 29.4077C135.802 29.1903 135.646 29.0188 135.444 28.8931C135.244 28.7674 135.007 28.7045 134.734 28.7045C134.434 28.7045 134.174 28.7791 133.955 28.9283C133.737 29.0753 133.57 29.267 133.453 29.5036C133.336 29.7401 133.277 29.9936 133.277 30.2642V30.6989C133.277 31.0696 133.341 31.3839 133.469 31.6417C133.599 31.8974 133.779 32.0923 134.009 32.2266C134.239 32.3587 134.506 32.4247 134.811 32.4247C135.009 32.4247 135.188 32.397 135.348 32.3416C135.51 32.2841 135.65 32.1989 135.767 32.0859C135.884 31.9709 135.974 31.8281 136.038 31.6577L136.767 31.8622C136.69 32.1094 136.561 32.3267 136.38 32.5142C136.199 32.6996 135.975 32.8445 135.709 32.9489C135.443 33.0511 135.143 33.1023 134.811 33.1023ZM138.745 26.4545V33H137.991V26.4545H138.745ZM142.313 28.0909V28.7301H139.667V28.0909H142.313ZM140.459 33V27.4134C140.459 27.1321 140.525 26.8977 140.657 26.7102C140.79 26.5227 140.961 26.3821 141.172 26.2884C141.383 26.1946 141.606 26.1477 141.84 26.1477C142.025 26.1477 142.177 26.1626 142.294 26.1925C142.411 26.2223 142.498 26.25 142.556 26.2756L142.339 26.9276C142.3 26.9148 142.247 26.8988 142.179 26.8796C142.113 26.8604 142.025 26.8509 141.917 26.8509C141.667 26.8509 141.487 26.9137 141.377 27.0394C141.268 27.1651 141.214 27.3494 141.214 27.5923V33H140.459Z" fill="#696969"/>
</svg>
