<svg width="18" height="25" viewBox="0 0 18 25" fill="none" xmlns="http://www.w3.org/2000/svg">
<g clip-path="url(#clip0_2678_1702)">
<path d="M0.5 20.8332C0.5 18.532 2.4028 16.6665 4.75 16.6665H9V20.8332C9 23.1344 7.0972 24.9998 4.75 24.9998C2.4028 24.9998 0.5 23.1344 0.5 20.8332Z" fill="#24CB71"/>
<path d="M9 0V8.33333H13.25C15.5972 8.33333 17.5 6.46785 17.5 4.16667C17.5 1.86549 15.5972 0 13.25 0H9Z" fill="#FF7237"/>
<path d="M13.2148 16.6668C15.5621 16.6668 17.4648 14.8013 17.4648 12.5002C17.4648 10.199 15.5621 8.3335 13.2148 8.3335C10.8676 8.3335 8.96484 10.199 8.96484 12.5002C8.96484 14.8013 10.8676 16.6668 13.2148 16.6668Z" fill="#00B6FF"/>
<path d="M0.5 4.16667C0.5 6.46785 2.4028 8.33333 4.75 8.33333H9V0H4.75C2.4028 0 0.5 1.86549 0.5 4.16667Z" fill="#FF3737"/>
<path d="M0.5 12.5002C0.5 14.8013 2.4028 16.6668 4.75 16.6668H9V8.3335H4.75C2.4028 8.3335 0.5 10.199 0.5 12.5002Z" fill="#874FFF"/>
</g>
<defs>
<clipPath id="clip0_2678_1702">
<rect width="17" height="25" fill="white" transform="translate(0.5)"/>
</clipPath>
</defs>
</svg>
