<svg width="25" height="25" viewBox="0 0 25 25" fill="none" xmlns="http://www.w3.org/2000/svg">
<path d="M12.5013 1.0415C6.17109 1.0415 1.04297 6.16963 1.04297 12.4998C1.04297 17.5696 4.32318 21.853 8.87734 23.3707C9.45026 23.4707 9.66484 23.128 9.66484 22.8269C9.66484 22.554 9.6513 21.6519 9.6513 20.6925C6.77214 21.2228 6.02734 19.9905 5.79818 19.3467C5.66901 19.0165 5.11068 17.9998 4.62422 17.728C4.22318 17.5123 3.64922 16.9832 4.60964 16.9686C5.51172 16.954 6.15651 17.7988 6.37109 18.1436C7.40234 19.8759 9.04922 19.3894 9.70859 19.0884C9.80859 18.3436 10.1096 17.8425 10.4388 17.5561C7.8888 17.2696 5.22526 16.2811 5.22526 11.8978C5.22526 10.6519 5.66901 9.62067 6.40026 8.81859C6.28464 8.53213 5.88359 7.35817 6.51484 5.78213C6.51484 5.78213 7.47422 5.48213 9.66484 6.95713C10.5976 6.69833 11.5614 6.56831 12.5294 6.57067C13.5044 6.57067 14.4784 6.6988 15.394 6.95713C17.5857 5.46755 18.5451 5.78213 18.5451 5.78213C19.1753 7.35817 18.7753 8.53213 18.6607 8.81859C19.3909 9.62067 19.8346 10.6384 19.8346 11.8978C19.8346 16.2957 17.1565 17.2696 14.6065 17.5561C15.0221 17.9144 15.3805 18.6019 15.3805 19.6759C15.3805 21.2082 15.3659 22.4405 15.3659 22.8269C15.3659 23.128 15.5805 23.4853 16.1534 23.3707C20.6794 21.853 23.9596 17.5561 23.9596 12.4998C23.9596 6.16963 18.8326 1.0415 12.5013 1.0415Z" fill="white"/>
</svg>
