<svg width="25" height="23" viewBox="0 0 25 23" fill="none" xmlns="http://www.w3.org/2000/svg">
<g clip-path="url(#clip0_2678_1710)">
<path d="M12.5 0L5.45459 0.756224L0 8.18949L12.5 22.9665L25 8.18949L19.5455 0.756224L12.5 0Z" fill="#FDB300"/>
<path d="M0 8.18945L12.5 22.9664L5.06309 8.18945H0Z" fill="#EB6C00"/>
<path d="M19.9368 8.18945L12.5 22.9664L24.9999 8.18945H19.9368Z" fill="#EB6C00"/>
<path d="M5.0625 8.18945L12.4994 22.9664L19.9363 8.18945H5.0625Z" fill="#FDAD00"/>
<path d="M5.454 0.756224L5.0625 8.18949L12.4994 0L5.454 0.756224Z" fill="#FDD231"/>
<path d="M19.9368 8.18949L19.5454 0.756125L12.5 0L19.9368 8.18949Z" fill="#FDD231"/>
<path d="M19.9384 8.18971H25.0014L19.5469 0.756348L19.9384 8.18971Z" fill="#FDAD00"/>
<path d="M0 8.18971H5.06309L5.45459 0.756348L0 8.18971Z" fill="#FDAD00"/>
<path d="M12.4994 0L5.0625 8.18949H19.9363L12.4994 0Z" fill="#FEEEB7"/>
</g>
<defs>
<clipPath id="clip0_2678_1710">
<rect width="25" height="23" fill="white"/>
</clipPath>
</defs>
</svg>
