<svg width="41" height="54" viewBox="0 0 41 54" fill="none" xmlns="http://www.w3.org/2000/svg">
<path d="M20.6888 3.1037C20.6888 3.1037 37.4618 7.69818 37.6506 13.3473C38.9742 46.6834 20.4357 50.7196 20.4357 50.7196C20.4357 50.7196 1.89727 46.6834 3.22288 13.3473C3.47395 7.69818 20.6888 3.1037 20.6888 3.1037ZM20.6888 0C20.4357 0 20.1204 0.0620352 19.8693 0.12407C19.6805 0.186106 15.2659 1.36671 10.7889 3.29174C8.01517 4.47041 5.80782 5.64908 4.16889 6.95376C1.51968 8.94083 0.196075 11.05 0.0695394 13.3473C-0.245795 21.2936 0.511409 28.3094 2.33914 34.2686C3.85355 39.1714 6.05889 43.3316 8.96117 46.6834C14.0045 52.5186 19.2387 53.7613 19.8071 53.8853C20.0581 53.9474 20.2469 53.9474 20.5 53.9474C20.7511 53.9474 20.9419 53.8853 21.1929 53.8853C21.7613 53.7613 26.9935 52.4566 32.0388 46.6834C34.9391 43.3316 37.1465 39.1714 38.6589 34.2686C40.4886 28.3094 41.2458 21.2936 40.9305 13.3473C40.8039 9.62321 37.3995 6.39544 30.4622 3.35378C26.0495 1.42875 21.7613 0.248141 21.5725 0.186106C21.2572 0.0620352 21.0041 0 20.6888 0Z" fill="#F4F4F4"/>
<path fill-rule="evenodd" clip-rule="evenodd" d="M33.4074 17.9825C33.4074 17.9825 24.4297 24.3236 22.9957 26.8981C21.6848 29.4098 20.501 40.4606 20.501 40.4606C20.501 40.4606 19.5039 29.2843 18.0063 26.8981C16.6338 24.7001 7.59259 17.9825 7.59259 17.9825C7.59259 17.9825 17.1344 22.5021 20.501 22.5021C23.8061 22.5021 33.4074 17.9825 33.4074 17.9825Z" fill="#F4F4F4"/>
</svg>
