<svg width="26" height="246" viewBox="0 0 26 246" fill="none" xmlns="http://www.w3.org/2000/svg">
<path d="M15.4955 104.998L15.493 105.498L15.4955 105.498L15.4955 104.998ZM25.8843 104.998L22.9975 102.111L20.1108 104.998L22.9975 107.885L25.8843 104.998ZM1.49983 99.9999L1.11019 100.313C2.87717 102.51 4.67477 103.816 6.9624 104.562C9.2237 105.3 11.9335 105.48 15.493 105.498L15.4955 104.998L15.498 104.498C11.9433 104.48 9.37214 104.296 7.27256 103.611C5.19931 102.935 3.55615 101.759 1.88947 99.6866L1.49983 99.9999ZM15.4955 104.998L15.4955 105.498L22.9975 105.498L22.9975 104.998L22.9975 104.498L15.4955 104.498L15.4955 104.998Z" fill="#2B2B2B"/>
<path d="M15.5111 35.1833L15.5086 35.6833L15.5111 35.6833L15.5111 35.1833ZM25.8999 35.1833L23.0132 32.2966L20.1264 35.1833L23.0132 38.0701L25.8999 35.1833ZM1.51545 30.1852L1.12582 30.4986C2.89279 32.6958 4.69039 34.001 6.97803 34.7473C9.23933 35.4851 11.9491 35.6654 15.5086 35.6833L15.5111 35.1833L15.5137 34.6833C11.959 34.6655 9.38777 34.4816 7.28818 33.7967C5.21493 33.1203 3.57177 31.9444 1.90509 29.8719L1.51545 30.1852ZM15.5111 35.1833L15.5111 35.6833L23.0132 35.6833L23.0132 35.1833L23.0132 34.6833L15.5112 34.6833L15.5111 35.1833Z" fill="#2B2B2B"/>
<path d="M15.4877 173.183L15.4852 173.683L15.4877 173.683L15.4877 173.183ZM25.8765 173.183L22.9897 170.297L20.103 173.183L22.9897 176.07L25.8765 173.183ZM1.49202 168.185L1.10238 168.499C2.86936 170.696 4.66695 172.001 6.95459 172.747C9.21589 173.485 11.9257 173.665 15.4852 173.683L15.4877 173.183L15.4902 172.683C11.9355 172.665 9.36433 172.482 7.26474 171.797C5.19149 171.12 3.54833 169.944 1.88165 167.872L1.49202 168.185ZM15.4877 173.183L15.4877 173.683L22.9897 173.683L22.9897 173.183L22.9897 172.683L15.4877 172.683L15.4877 173.183Z" fill="#2B2B2B"/>
<path d="M7.26465 240.797C5.24002 240.136 2 237.015 2 237.015V0H1C1 92.7495 1 144.75 1 237.5C1 237.5 4.66802 241.002 6.95508 241.748C9.21621 242.486 11.9292 242.666 15.4883 242.684L20.6016 242.683L22.9902 245.07L25.877 242.183L22.9893 239.297L20.6025 241.684H15.4873C11.9343 241.666 9.36361 241.482 7.26465 240.797Z" fill="#2B2B2B"/>
</svg>
